SplineFontDB: 3.2
FontName: PrototypeSitakai-Regular
FullName: Prototype Sitakai Regular
FamilyName: Prototype Sitakai
Weight: Book
Copyright: 
Version: 001.001
ItalicAngle: 0
UnderlinePosition: -100
UnderlineWidth: 50
Ascent: 800
Descent: 200
InvalidEm: 0
sfntRevision: 0x00010000
LayerCount: 2
Layer: 0 1 "Back" 1
Layer: 1 1 "Fore" 0
XUID: [1021 569 122123003 10704]
StyleMap: 0x0040
FSType: 0
OS2Version: 4
OS2_WeightWidthSlopeOnly: 0
OS2_UseTypoMetrics: 0
CreationTime: 1680357076
ModificationTime: 1680456727
PfmFamily: 17
TTFWeight: 400
TTFWidth: 5
LineGap: 90
VLineGap: 0
Panose: 2 0 5 3 0 0 0 0 0 0
OS2TypoAscent: 800
OS2TypoAOffset: 0
OS2TypoDescent: -200
OS2TypoDOffset: 0
OS2TypoLinegap: 90
OS2WinAscent: 800
OS2WinAOffset: 0
OS2WinDescent: 160
OS2WinDOffset: 0
HheadAscent: 800
HheadAOffset: 0
HheadDescent: -160
HheadDOffset: 0
OS2SubXSize: 650
OS2SubYSize: 700
OS2SubXOff: 0
OS2SubYOff: 140
OS2SupXSize: 650
OS2SupYSize: 700
OS2SupXOff: 0
OS2SupYOff: 480
OS2StrikeYSize: 49
OS2StrikeYPos: 258
OS2XHeight: 521
OS2Vendor: 'CLGR'
OS2CodePages: 00000001.00000000
OS2UnicodeRanges: 00000023.00000000.00000000.00000000
Lookup: 4 1 1 "'liga' Standard Ligatures in Latin lookup 1" { "'liga' Standard Ligatures in Latin lookup 1-1"  } ['liga' ('DFLT' <'dflt' > 'latn' <'dflt' > ) ]
Lookup: 260 0 0 "'mark' Mark Positioning in Latin lookup 0" { "'mark' Mark Positioning in Latin lookup 0-1"  } ['mark' ('DFLT' <'dflt' > 'latn' <'dflt' > ) ]
MarkAttachClasses: 1
DEI: 91125
TtTable: prep
PUSHW_1
 511
SCANCTRL
PUSHB_1
 4
SCANTYPE
EndTTInstrs
ShortTable: cvt  2
  33
  633
EndShort
ShortTable: maxp 16
  1
  0
  47
  407
  5
  0
  0
  2
  0
  1
  1
  0
  64
  0
  0
  0
EndShort
LangName: 1033 "" "" "" "Calligraphr : Prototype Sitakai Regular : 01-04-2023" "" "Version 001.001" "" "" "" "" "Created with Calligraphr.com" "" "" "" "" "" "Prototype Sitakai" "Regular"
GaspTable: 1 65535 15 1
Encoding: UnicodeBmp
UnicodeInterp: none
NameList: AGL For New Fonts
DisplaySize: -48
AntiAlias: 1

StartChar: .notdef
Encoding: 65536 -1 0
Width: 364
GlyphClass: 1
Flags: W
LayerCount: 2
Fore
SplineSet
33 0 m 1,0,-1
 33 666 l 1,1,-1
 298 666 l 1,2,-1
 298 0 l 1,3,-1
 33 0 l 1,0,-1
66 33 m 1,4,-1
 265 33 l 1,5,-1
 265 633 l 1,6,-1
 66 633 l 1,7,-1
 66 33 l 1,4,-1
EndSplineSet
Validated: 1
EndChar

StartChar: exclam
Encoding: 33 33 5
Width: 382
GlyphClass: 1
Flags: W
LayerCount: 2
Fore
SplineSet
224 702 m 0,0,1
 239 712 239 712 248 710 c 0,2,3
 264 707 264 707 264 697 c 0,4,5
 264 693 264 693 261 687 c 0,6,7
 256 678 256 678 244.5 663.5 c 128,-1,8
 233 649 233 649 230 648 c 0,9,10
 220 644 220 644 194 618 c 2,11,-1
 181 607 l 2,12,13
 179 607 179 607 153 574 c 0,14,15
 152 572 152 572 149 568 c 128,-1,16
 146 564 146 564 144 562 c 2,17,-1
 132 547 l 2,18,19
 122 534 122 534 106 517 c 0,20,21
 105 516 105 516 98.5 508 c 128,-1,22
 92 500 92 500 86.5 495.5 c 128,-1,23
 81 491 81 491 76 491 c 0,24,25
 75 491 75 491 71 493 c 0,26,27
 56 504 56 504 56 511 c 0,28,29
 56 516 56 516 64 529 c 0,30,31
 67 535 67 535 71.5 539 c 128,-1,32
 76 543 76 543 78 548 c 2,33,-1
 83 553 l 2,34,35
 84 553 84 553 89 560 c 0,36,37
 97 576 97 576 129 608 c 0,38,39
 135 614 135 614 153 637 c 0,40,41
 162 650 162 650 187.5 672.5 c 128,-1,42
 213 695 213 695 215 697 c 0,43,44
 216 698 216 698 219 699.5 c 128,-1,45
 222 701 222 701 224 702 c 0,0,1
171 559 m 0,46,47
 176 561 176 561 180 559 c 0,48,49
 193 552 193 552 198 532 c 0,50,51
 204 512 204 512 204 509 c 0,52,53
 204 498 204 498 185 487 c 0,54,55
 172 481 172 481 162 486 c 0,56,57
 150 492 150 492 149 517 c 2,58,-1
 149 527 l 2,59,60
 149 540 149 540 153.5 546 c 128,-1,61
 158 552 158 552 171 559 c 0,46,47
155 346 m 0,62,63
 162 368 162 368 180 368 c 0,64,65
 185 368 185 368 192 363 c 0,66,67
 196 360 196 360 198 356.5 c 128,-1,68
 200 353 200 353 201 348 c 128,-1,69
 202 343 202 343 204 340 c 0,70,71
 207 335 207 335 207 316 c 0,72,73
 207 308 207 308 206 307 c 0,74,75
 204 303 204 303 194 297.5 c 128,-1,76
 184 292 184 292 179 292 c 128,-1,77
 174 292 174 292 166 295.5 c 128,-1,78
 158 299 158 299 157 303 c 0,79,80
 153 317 153 317 153 330 c 0,81,82
 153 338 153 338 155 346 c 0,62,63
154 111 m 2,83,84
 154 110 154 110 150 104 c 2,85,-1
 147 99 l 1,86,-1
 140 92 l 2,87,88
 132 84 132 84 129 78 c 0,89,90
 123 68 123 68 117 68 c 128,-1,91
 111 68 111 68 100 76 c 0,92,93
 91 82 91 82 91 86 c 0,94,95
 90 89 90 89 92.5 97.5 c 128,-1,96
 95 106 95 106 97 108 c 0,97,98
 98 109 98 109 100 120.5 c 128,-1,99
 102 132 102 132 104 133 c 0,100,101
 112 141 112 141 117 141 c 0,102,103
 120 141 120 141 127 148 c 0,104,105
 140 161 140 161 155 180.5 c 128,-1,106
 170 200 170 200 184 215 c 0,107,108
 191 222 191 222 191 224 c 0,109,110
 191 225 191 225 193 225 c 0,111,112
 196 225 196 225 197 228 c 0,113,114
 199 231 199 231 243 275 c 0,115,116
 248 280 248 280 254 284.5 c 128,-1,117
 260 289 260 289 265 294 c 0,118,119
 290 319 290 319 297 324 c 0,120,121
 305 329 305 329 309 328 c 0,122,123
 326 326 326 326 326 315 c 0,124,125
 326 309 326 309 318 299 c 0,126,127
 315 296 315 296 315 293 c 0,128,129
 315 292 315 292 310.5 286 c 128,-1,130
 306 280 306 280 306 279 c 0,131,132
 306 277 306 277 288.5 259.5 c 128,-1,133
 271 242 271 242 270 242 c 0,134,135
 265 238 265 238 259 232 c 0,136,137
 213 186 213 186 206 177 c 0,138,139
 204 174 204 174 199 168.5 c 128,-1,140
 194 163 194 163 192 159 c 0,141,142
 188 152 188 152 177 140 c 128,-1,143
 166 128 166 128 163 123 c 2,144,-1
 154 111 l 2,83,84
EndSplineSet
Validated: 1
EndChar

StartChar: quotedbl
Encoding: 34 34 6
AltUni2: 00201c.ffffffff.0 00201d.ffffffff.0 00201e.ffffffff.0 00201c.ffffffff.0 00201d.ffffffff.0 00201e.ffffffff.0
Width: 369
GlyphClass: 1
Flags: W
LayerCount: 2
Fore
SplineSet
191 701 m 2,0,-1
 199 705 l 2,1,2
 206 705 206 705 212 692 c 128,-1,3
 218 679 218 679 221 677 c 0,4,5
 231 667 231 667 231 662 c 0,6,7
 231 659 231 659 241 651 c 0,8,9
 247 647 247 647 251.5 641 c 128,-1,10
 256 635 256 635 261 626 c 128,-1,11
 266 617 266 617 270 611 c 0,12,13
 281 595 281 595 284.5 592 c 128,-1,14
 288 589 288 589 294 589 c 2,15,-1
 299 589 l 2,16,17
 310 589 310 589 312 587 c 0,18,19
 313 586 313 586 313 583 c 0,20,21
 313 569 313 569 294 554 c 0,22,23
 286 550 286 550 270.5 535.5 c 128,-1,24
 255 521 255 521 248 511 c 0,25,26
 247 509 247 509 242.5 503 c 128,-1,27
 238 497 238 497 237 495 c 0,28,29
 235 491 235 491 234 491 c 0,30,31
 231 491 231 491 226 483 c 0,32,33
 209 459 209 459 206 459 c 0,34,35
 205 459 205 459 194.5 448 c 128,-1,36
 184 437 184 437 184 436 c 2,37,-1
 180 430 l 2,38,39
 175 422 175 422 165 422 c 0,40,41
 156 422 156 422 152 431 c 0,42,43
 151 435 151 435 144.5 442.5 c 128,-1,44
 138 450 138 450 137 452 c 0,45,46
 136 458 136 458 130 465.5 c 128,-1,47
 124 473 124 473 123 478 c 0,48,49
 112 505 112 505 99 518 c 1,50,51
 86 540 86 540 78 548 c 0,52,53
 69 557 69 557 71 562 c 0,54,55
 73 566 73 566 87 581 c 0,56,57
 98 592 98 592 98 594 c 0,58,59
 98 595 98 595 103 600 c 0,60,61
 106 603 106 603 112 613 c 0,62,63
 116 618 116 618 124.5 628 c 128,-1,64
 133 638 133 638 138 645 c 0,65,66
 142 651 142 651 159 670 c 0,67,68
 172 690 172 690 191 701 c 2,0,-1
159 364 m 0,69,70
 161 364 161 364 171.5 367 c 128,-1,71
 182 370 182 370 185 364 c 0,72,73
 189 362 189 362 194 355 c 128,-1,74
 199 348 199 348 199 346 c 128,-1,75
 199 344 199 344 206.5 337 c 128,-1,76
 214 330 214 330 219 327 c 128,-1,77
 224 324 224 324 235 315 c 128,-1,78
 246 306 246 306 249 305 c 0,79,80
 253 303 253 303 261 296 c 128,-1,81
 269 289 269 289 273 287 c 0,82,83
 284 280 284 280 284 271 c 0,84,85
 284 264 284 264 279 262 c 0,86,87
 278 261 278 261 276 258 c 2,88,-1
 274 256 l 2,89,90
 274 254 274 254 269 248.5 c 128,-1,91
 264 243 264 243 264 242 c 0,92,93
 263 240 263 240 253 234 c 0,94,95
 245 229 245 229 241 222 c 0,96,97
 238 216 238 216 234 210.5 c 128,-1,98
 230 205 230 205 226 198 c 0,99,100
 207 168 207 168 202 157 c 0,101,102
 197 147 197 147 184 134 c 0,103,104
 182 132 182 132 175 122 c 128,-1,105
 168 112 168 112 168 110 c 0,106,107
 168 105 168 105 152 106 c 0,108,109
 151 106 151 106 149 109.5 c 128,-1,110
 147 113 147 113 145.5 116.5 c 128,-1,111
 144 120 144 120 143 121 c 0,112,113
 132 138 132 138 120 147 c 0,114,115
 118 148 118 148 114 156 c 0,116,117
 113 158 113 158 104 170 c 0,118,119
 86 188 86 188 63 221 c 0,120,121
 54 232 54 232 56 239 c 0,122,123
 56 242 56 242 66 252 c 0,124,125
 72 260 72 260 88 282.5 c 128,-1,126
 104 305 104 305 109 310 c 0,127,128
 136 337 136 337 144 353 c 0,129,130
 149 365 149 365 159 364 c 0,69,70
EndSplineSet
Validated: 1
EndChar

StartChar: quotesingle
Encoding: 39 39 7
AltUni2: 002018.ffffffff.0 002019.ffffffff.0 00201a.ffffffff.0 002018.ffffffff.0 002019.ffffffff.0 00201a.ffffffff.0
Width: 631
GlyphClass: 1
Flags: W
LayerCount: 2
Fore
SplineSet
503 415 m 4,0,1
 503 419 503 419 501 437.5 c 132,-1,2
 499 456 499 456 499 459 c 4,3,4
 499 467 499 467 496.5 480.5 c 132,-1,5
 494 494 494 494 493 499 c 4,6,7
 491 513 491 513 485 543 c 4,8,9
 481 570 481 570 474 589 c 4,10,11
 469 602 469 602 469 608 c 132,-1,12
 469 614 469 614 457 632 c 4,13,14
 453 638 453 638 444.5 642 c 132,-1,15
 436 646 436 646 422.5 649.5 c 132,-1,16
 409 653 409 653 406 654 c 4,17,18
 397 657 397 657 389 657 c 132,-1,19
 381 657 381 657 364.5 652.5 c 132,-1,20
 348 648 348 648 338 648 c 4,21,22
 334 648 334 648 302 638 c 4,23,24
 301 637 301 637 297 636.5 c 132,-1,25
 293 636 293 636 292 636 c 4,26,27
 288 636 288 636 284.5 634 c 132,-1,28
 281 632 281 632 279 631 c 4,29,30
 238 610 238 610 217 582 c 4,31,32
 215 579 215 579 207 569.5 c 132,-1,33
 199 560 199 560 197 555 c 6,34,-1
 195 551 l 6,35,36
 193 547 193 547 191 545 c 4,37,38
 184 535 184 535 176 517 c 132,-1,39
 168 499 168 499 163 490 c 4,40,41
 142 445 142 445 121 356 c 4,42,43
 113 322 113 322 112 288 c 4,44,45
 112 286 112 286 111.5 264 c 132,-1,46
 111 242 111 242 111 226 c 4,47,48
 111 201 111 201 113 171 c 4,49,50
 115 158 115 158 113 149 c 4,51,52
 112 144 112 144 112 118 c 4,53,54
 112 110 112 110 112 106 c 132,-1,55
 112 102 112 102 111 98.5 c 132,-1,56
 110 95 110 95 109.5 94.5 c 132,-1,57
 109 94 109 94 107 91 c 132,-1,58
 105 88 105 88 103 86 c 4,59,60
 100 82 100 82 97 82 c 4,61,62
 95 82 95 82 92 78 c 132,-1,63
 89 74 89 74 85 77 c 6,64,-1
 82 79 l 6,65,66
 79 81 79 81 78 81 c 4,67,68
 75 82 75 82 69 90 c 132,-1,69
 63 98 63 98 63 101 c 6,70,-1
 60 107 l 6,71,72
 55 120 55 120 55 149 c 4,73,74
 55 153 55 153 57 160 c 132,-1,75
 59 167 59 167 56 174 c 4,76,77
 54 192 54 192 54 244 c 4,78,79
 54 277 54 277 55 283 c 4,80,81
 56 292 56 292 56 304 c 4,82,83
 56 318 56 318 60 336 c 4,84,85
 60 337 60 337 60.5 340 c 132,-1,86
 61 343 61 343 61.5 347 c 132,-1,87
 62 351 62 351 62 354 c 4,88,89
 63 363 63 363 67.5 377 c 132,-1,90
 72 391 72 391 73 399 c 4,91,92
 75 409 75 409 80 424.5 c 132,-1,93
 85 440 85 440 87 449 c 4,94,95
 93 468 93 468 98 479.5 c 132,-1,96
 103 491 103 491 109.5 505.5 c 132,-1,97
 116 520 116 520 122 534 c 4,98,99
 134 564 134 564 144 578 c 6,100,-1
 148 586 l 6,101,102
 148 592 148 592 165 609 c 4,103,104
 166 610 166 610 167 612 c 4,105,106
 169 614 169 614 169 615 c 4,107,108
 169 618 169 618 193 640.5 c 132,-1,109
 217 663 217 663 223 666 c 4,110,111
 228 671 228 671 242.5 678.5 c 132,-1,112
 257 686 257 686 259 685 c 4,113,114
 260 685 260 685 265 688 c 4,115,116
 275 695 275 695 284 695 c 4,117,118
 290 695 290 695 299 698 c 4,119,120
 356 717 356 717 390 717 c 4,121,122
 394 717 394 717 399 716.5 c 132,-1,123
 404 716 404 716 407.5 716 c 132,-1,124
 411 716 411 716 412 716 c 132,-1,125
 413 716 413 716 416.5 715 c 132,-1,126
 420 714 420 714 422 714 c 4,127,128
 429 714 429 714 429 712 c 132,-1,129
 429 710 429 710 432 710 c 4,130,131
 440 710 440 710 457 703 c 4,132,133
 469 700 469 700 482 694 c 132,-1,134
 495 688 495 688 495 686 c 132,-1,135
 495 684 495 684 500 681 c 4,136,137
 509 674 509 674 520.5 656 c 132,-1,138
 532 638 532 638 532 626 c 4,139,140
 532 625 532 625 536 607 c 4,141,142
 543 579 543 579 545 562 c 4,143,144
 545 561 545 561 545.5 558.5 c 132,-1,145
 546 556 546 556 547 552 c 132,-1,146
 548 548 548 548 548 546 c 4,147,148
 555 516 555 516 555 497 c 4,149,150
 555 494 555 494 557 482 c 132,-1,151
 559 470 559 470 559 466 c 4,152,153
 559 450 559 450 563 421 c 132,-1,154
 567 392 567 392 567 377 c 4,155,156
 567 356 567 356 569 348 c 4,157,158
 576 317 576 317 576 228 c 4,159,160
 576 178 576 178 573 162 c 4,161,162
 571 157 571 157 573 149 c 4,163,164
 574 146 574 146 574 141 c 4,165,166
 574 114 574 114 556 108 c 4,167,168
 553 107 553 107 552 104 c 4,169,170
 549 98 549 98 539 107 c 4,171,172
 520 122 520 122 520 129 c 6,173,-1
 520 143 l 6,174,175
 520 156 520 156 521.5 177.5 c 132,-1,176
 523 199 523 199 523 209 c 4,177,178
 523 224 523 224 520 240 c 4,179,180
 519 243 519 243 520 248 c 132,-1,181
 521 253 521 253 521 255 c 4,182,183
 521 268 521 268 516 300 c 132,-1,184
 511 332 511 332 510 345 c 4,185,186
 510 351 510 351 508.5 363.5 c 132,-1,187
 507 376 507 376 507 380 c 4,188,189
 508 382 508 382 507 385.5 c 132,-1,190
 506 389 506 389 505 395 c 132,-1,191
 504 401 504 401 504 402 c 4,192,193
 504 404 504 404 503.5 409 c 132,-1,194
 503 414 503 414 503 415 c 4,0,1
EndSplineSet
Validated: 1
EndChar

StartChar: comma
Encoding: 44 44 8
Width: 638
GlyphClass: 1
Flags: W
LayerCount: 2
Fore
SplineSet
217 146 m 0,0,1
 221 146 221 146 231 144 c 128,-1,2
 241 142 241 142 248 142 c 0,3,4
 257 142 257 142 268 141 c 128,-1,5
 279 140 279 140 287 140 c 2,6,-1
 300 140 l 2,7,8
 303 140 303 140 306.5 140.5 c 128,-1,9
 310 141 310 141 312.5 141 c 128,-1,10
 315 141 315 141 317 141.5 c 128,-1,11
 319 142 319 142 320 142 c 2,12,-1
 322 142 l 1,13,-1
 324 142 l 2,14,15
 326 143 326 143 330 144 c 128,-1,16
 334 145 334 145 337 145 c 0,17,18
 373 150 373 150 391 161 c 0,19,20
 395 164 395 164 398 164 c 0,21,22
 399 164 399 164 401 166 c 0,23,24
 401 167 401 167 411 171 c 0,25,26
 417 173 417 173 424 179.5 c 128,-1,27
 431 186 431 186 434 188 c 0,28,29
 441 192 441 192 445.5 197.5 c 128,-1,30
 450 203 450 203 455.5 210 c 128,-1,31
 461 217 461 217 466 222 c 2,32,-1
 479 235 l 2,33,34
 497 253 497 253 508 281 c 0,35,36
 520 316 520 316 525 342 c 0,37,38
 526 352 526 352 532 372.5 c 128,-1,39
 538 393 538 393 538 405 c 0,40,41
 538 412 538 412 539 426 c 128,-1,42
 540 440 540 440 540 447 c 128,-1,43
 540 454 540 454 538 464 c 0,44,45
 527 516 527 516 526 518 c 2,46,-1
 509 552 l 2,47,48
 507 554 507 554 500 567 c 128,-1,49
 493 580 493 580 491 582 c 0,50,51
 487 586 487 586 487 587 c 0,52,53
 487 589 487 589 480.5 596.5 c 128,-1,54
 474 604 474 604 470 607 c 2,55,-1
 463 612 l 2,56,57
 463 614 463 614 457 617 c 128,-1,58
 451 620 451 620 444 623 c 128,-1,59
 437 626 437 626 436 627 c 0,60,61
 431 630 431 630 410.5 636 c 128,-1,62
 390 642 390 642 377 642 c 0,63,64
 375 642 375 642 373 641.5 c 128,-1,65
 371 641 371 641 370 641 c 0,66,67
 366 640 366 640 358 640 c 0,68,69
 353 640 353 640 347.5 638.5 c 128,-1,70
 342 637 342 637 330 637 c 0,71,72
 322 637 322 637 311.5 635.5 c 128,-1,73
 301 634 301 634 297 634 c 2,74,-1
 296 634 l 2,75,76
 294 635 294 635 293 635 c 0,77,78
 287 635 287 635 274.5 630 c 128,-1,79
 262 625 262 625 259 624 c 0,80,81
 236 620 236 620 226 612 c 0,82,83
 222 609 222 609 214.5 601 c 128,-1,84
 207 593 207 593 207 591 c 0,85,86
 194 573 194 573 194 572 c 0,87,88
 194 564 194 564 159 498 c 0,89,90
 156 492 156 492 146 477 c 0,91,92
 139 467 139 467 133 447 c 0,93,94
 125 415 125 415 124 355 c 2,95,-1
 124 330 l 2,96,97
 124 291 124 291 132 246 c 128,-1,98
 140 201 140 201 158 178 c 0,99,100
 168 163 168 163 178 158 c 0,101,102
 204 146 204 146 217 146 c 0,0,1
276 688 m 0,103,104
 280 688 280 688 288 690 c 128,-1,105
 296 692 296 692 301 692 c 2,106,-1
 312 692 l 2,107,108
 331 692 331 692 335 690 c 0,109,110
 344 683 344 683 375 683 c 0,111,112
 438 683 438 683 481 651 c 0,113,114
 506 633 506 633 522 610 c 0,115,116
 534 592 534 592 534 591 c 0,117,118
 534 589 534 589 535 589 c 0,119,120
 537 589 537 589 545.5 574 c 128,-1,121
 554 559 554 559 554 556 c 0,122,123
 554 555 554 555 558 549 c 0,124,125
 560 546 560 546 563.5 536.5 c 128,-1,126
 567 527 567 527 568 525 c 0,127,128
 574 511 574 511 574 500 c 0,129,130
 574 491 574 491 579 470 c 128,-1,131
 584 449 584 449 584 438 c 0,132,133
 584 437 584 437 583.5 433 c 128,-1,134
 583 429 583 429 583 426 c 0,135,136
 582 421 582 421 582 401 c 0,137,138
 582 388 582 388 577 373 c 0,139,140
 573 359 573 359 573 358 c 0,141,142
 573 347 573 347 567 329 c 0,143,144
 567 328 567 328 566.5 324.5 c 128,-1,145
 566 321 566 321 566 319 c 0,146,147
 566 313 566 313 561 299.5 c 128,-1,148
 556 286 556 286 556 285 c 0,149,150
 551 265 551 265 545 253 c 0,151,152
 541 236 541 236 510 201 c 0,153,154
 471 152 471 152 458 145 c 0,155,156
 413 114 413 114 366 103 c 0,157,158
 361 102 361 102 341 97 c 0,159,160
 317 91 317 91 278 91 c 0,161,162
 256 91 256 91 246 94 c 0,163,164
 243 95 243 95 238 95 c 0,165,166
 234 95 234 95 224.5 97 c 128,-1,167
 215 99 215 99 211 99 c 0,168,169
 170 103 170 103 152 114 c 0,170,171
 127 126 127 126 111 147 c 0,172,173
 109 149 109 149 102 157.5 c 128,-1,174
 95 166 95 166 90.5 173.5 c 128,-1,175
 86 181 86 181 86 186 c 0,176,177
 86 187 86 187 83 191.5 c 128,-1,178
 80 196 80 196 80 198 c 128,-1,179
 80 200 80 200 73 221 c 128,-1,180
 66 242 66 242 66 244 c 0,181,182
 66 245 66 245 65.5 247.5 c 128,-1,183
 65 250 65 250 64 254 c 128,-1,184
 63 258 63 258 63 260 c 0,185,186
 57 290 57 290 57 346 c 0,187,188
 57 372 57 372 56 373 c 0,189,190
 53 377 53 377 53 468 c 0,191,192
 53 509 53 509 72 541 c 0,193,194
 75 547 75 547 78 555 c 128,-1,195
 81 563 81 563 84 567.5 c 128,-1,196
 87 572 87 572 96 576 c 0,197,198
 102 578 102 578 115.5 589.5 c 128,-1,199
 129 601 129 601 131 602 c 0,200,201
 133 604 133 604 142.5 612 c 128,-1,202
 152 620 152 620 155 622 c 0,203,204
 160 624 160 624 166 629 c 0,205,206
 199 654 199 654 225 671 c 0,207,208
 226 672 226 672 265 686 c 0,209,210
 273 688 273 688 276 688 c 0,103,104
EndSplineSet
Validated: 1
EndChar

StartChar: period
Encoding: 46 46 9
Width: 640
GlyphClass: 1
Flags: W
LayerCount: 2
Fore
SplineSet
60 521 m 0,0,1
 60 533 60 533 58 547.5 c 128,-1,2
 56 562 56 562 56 568 c 2,3,-1
 56 583 l 2,4,5
 56 586 56 586 55 595 c 128,-1,6
 54 604 54 604 54 608 c 128,-1,7
 54 612 54 612 54 615.5 c 128,-1,8
 54 619 54 619 54 622 c 2,9,-1
 53 624 l 2,10,11
 51 628 51 628 51 665 c 2,12,-1
 51 672 l 2,13,14
 54 680 54 680 62 680 c 0,15,16
 64 680 64 680 67 677.5 c 128,-1,17
 70 675 70 675 70 674 c 0,18,19
 70 672 70 672 74.5 672 c 128,-1,20
 79 672 79 672 85 673 c 2,21,-1
 91 674 l 2,22,23
 94 674 94 674 97 674.5 c 128,-1,24
 100 675 100 675 101.5 675.5 c 128,-1,25
 103 676 103 676 105.5 675.5 c 128,-1,26
 108 675 108 675 112 673 c 0,27,28
 118 670 118 670 124 672 c 0,29,30
 134 675 134 675 149 670 c 0,31,32
 164 666 164 666 228 664 c 0,33,34
 250 664 250 664 250 650 c 0,35,36
 250 643 250 643 249 638 c 0,37,38
 245 616 245 616 242 550 c 0,39,40
 242 538 242 538 240 524.5 c 128,-1,41
 238 511 238 511 238 502 c 0,42,43
 238 490 238 490 233.5 485 c 128,-1,44
 229 480 229 480 217 476 c 2,45,-1
 205 470 l 2,46,47
 204 468 204 468 200 468.5 c 128,-1,48
 196 469 196 469 193 471 c 0,49,50
 185 476 185 476 167 476 c 0,51,52
 154 476 154 476 146 475 c 0,53,54
 134 475 134 475 130 476 c 128,-1,55
 126 477 126 477 118 477 c 0,56,57
 105 477 105 477 93 476 c 2,58,-1
 77 476 l 1,59,60
 66 486 66 486 63 493 c 128,-1,61
 60 500 60 500 60 521 c 0,0,1
385 507 m 2,62,63
 385 523 385 523 382.5 574.5 c 128,-1,64
 380 626 380 626 380 640 c 2,65,-1
 380 648 l 2,66,67
 380 667 380 667 388 671 c 0,68,69
 394 674 394 674 399 669 c 0,70,71
 403 666 403 666 426 666 c 2,72,-1
 452 666 l 1,73,-1
 465 666 l 2,74,75
 478 666 478 666 498 664 c 128,-1,76
 518 662 518 662 530 662 c 0,77,78
 560 662 560 662 567 660 c 128,-1,79
 574 658 574 658 574 647 c 0,80,81
 574 640 574 640 569 620 c 128,-1,82
 564 600 564 600 563 597 c 0,83,84
 563 591 563 591 561 578 c 128,-1,85
 559 565 559 565 559 558 c 128,-1,86
 559 551 559 551 556.5 536.5 c 128,-1,87
 554 522 554 522 554 514 c 0,88,89
 554 503 554 503 558 501 c 0,90,91
 563 498 563 498 563 493 c 0,92,93
 563 489 563 489 559.5 486.5 c 128,-1,94
 556 484 556 484 556 481 c 0,95,96
 556 474 556 474 551 469.5 c 128,-1,97
 546 465 546 465 540 465 c 0,98,99
 533 465 533 465 530 472 c 2,100,-1
 527 477 l 1,101,-1
 510 476 l 2,102,103
 499 476 499 476 473 473 c 2,104,-1
 447 470 l 1,105,-1
 422 470 l 2,106,107
 415 470 415 470 405 470 c 2,108,-1
 395 471 l 2,109,110
 382 474 382 474 384 495 c 0,111,112
 384 498 384 498 384 502 c 2,113,-1
 385 507 l 2,62,63
456 395 m 0,114,115
 472 395 472 395 493 398 c 128,-1,116
 514 401 514 401 526 401 c 0,117,118
 530 401 530 401 535 401 c 0,119,120
 551 403 551 403 553 406 c 2,121,-1
 553 407 l 1,122,123
 557 413 557 413 559 414 c 0,124,125
 564 416 564 416 570.5 411.5 c 128,-1,126
 577 407 577 407 579 400 c 0,127,128
 580 397 580 397 578.5 385 c 128,-1,129
 577 373 577 373 577 371 c 0,130,131
 578 369 578 369 578 359 c 0,132,133
 578 350 578 350 586 344 c 1,134,-1
 583 332 l 2,135,136
 578 315 578 315 574 291 c 0,137,138
 573 284 573 284 570 271.5 c 128,-1,139
 567 259 567 259 566 245 c 0,140,141
 563 172 563 172 548 172 c 0,142,143
 546 172 546 172 545 173 c 0,144,145
 544 173 544 173 540 181 c 128,-1,146
 536 189 536 189 523 189 c 0,147,148
 518 189 518 189 504.5 187 c 128,-1,149
 491 185 491 185 486 185 c 0,150,151
 478 185 478 185 460.5 183.5 c 128,-1,152
 443 182 443 182 432 182 c 0,153,154
 425 182 425 182 415 181.5 c 128,-1,155
 405 181 405 181 403 181 c 0,156,157
 391 181 391 181 391 170 c 0,158,159
 391 164 391 164 386.5 157 c 128,-1,160
 382 150 382 150 377 150 c 0,161,162
 375 150 375 150 372 153 c 0,163,164
 369 155 369 155 368 172 c 2,165,-1
 368 196 l 2,166,167
 368 198 368 198 369 206.5 c 128,-1,168
 370 215 370 215 370 220 c 0,169,170
 370 230 370 230 373 245 c 0,171,172
 377 258 377 258 377 287 c 0,173,174
 377 301 377 301 374 319.5 c 128,-1,175
 371 338 371 338 371 353 c 2,176,-1
 371 375 l 1,177,178
 383 392 383 392 392 388 c 0,179,180
 394 387 394 387 397 392 c 0,181,182
 400 398 400 398 406 398 c 0,183,184
 410 398 410 398 417 395.5 c 128,-1,185
 424 393 424 393 426 393 c 0,186,187
 427 393 427 393 428 394 c 2,188,-1
 432 394 l 2,189,190
 436 394 436 394 442.5 394.5 c 128,-1,191
 449 395 449 395 456 395 c 0,114,115
65 380 m 2,192,193
 68 382 68 382 72 388 c 1,194,-1
 96 388 l 2,195,196
 134 388 134 388 142 393 c 0,197,198
 145 395 145 395 153 393 c 2,199,-1
 158 393 l 2,200,201
 162 393 162 393 171 393.5 c 128,-1,202
 180 394 180 394 183 394 c 0,203,204
 189 394 189 394 190 393 c 0,205,206
 191 393 191 393 194 392.5 c 128,-1,207
 197 392 197 392 200 392 c 0,208,209
 207 392 207 392 223 394 c 0,210,211
 228 395 228 395 230.5 397 c 128,-1,212
 233 399 233 399 234.5 402.5 c 128,-1,213
 236 406 236 406 238 408 c 0,214,215
 244 412 244 412 248.5 408.5 c 128,-1,216
 253 405 253 405 253 397 c 0,217,218
 253 395 253 395 256.5 386.5 c 128,-1,219
 260 378 260 378 260 377 c 128,-1,220
 260 376 260 376 254 369.5 c 128,-1,221
 248 363 248 363 248 362 c 2,222,-1
 248 352 l 2,223,224
 248 350 248 350 247 344.5 c 128,-1,225
 246 339 246 339 246 338 c 2,226,-1
 246 328 l 2,227,228
 246 319 246 319 245.5 304.5 c 128,-1,229
 245 290 245 290 245 276 c 0,230,231
 245 218 245 218 243 210 c 0,232,233
 240 195 240 195 240 193 c 0,234,235
 240 184 240 184 235.5 179.5 c 128,-1,236
 231 175 231 175 224 179 c 0,237,238
 218 183 218 183 202 183 c 0,239,240
 181 183 181 183 153 177 c 0,241,242
 143 175 143 175 141 175 c 0,243,244
 136 174 136 174 84 171 c 0,245,246
 69 171 69 171 69 185 c 0,247,248
 69 191 69 191 70 195 c 128,-1,249
 71 199 71 199 71 214 c 0,250,251
 71 244 71 244 68 268 c 0,252,253
 68 270 68 270 67.5 273 c 128,-1,254
 67 276 67 276 67 277 c 2,255,-1
 67 291 l 2,256,257
 67 305 67 305 66 315 c 128,-1,258
 65 325 65 325 65 346 c 2,259,-1
 65 380 l 2,192,193
EndSplineSet
Validated: 1
EndChar

StartChar: two
Encoding: 50 50 12
Width: 453
GlyphClass: 1
Flags: W
LayerCount: 2
Fore
SplineSet
58 -142 m 0,0,1
 55 -137 55 -137 59 -133.5 c 128,-1,2
 63 -130 63 -130 67 -134 c 0,3,4
 68 -136 68 -136 67 -140 c 128,-1,5
 66 -144 66 -144 63.5 -145 c 128,-1,6
 61 -146 61 -146 58 -142 c 0,0,1
EndSplineSet
Validated: 1
EndChar

StartChar: five
Encoding: 53 53 15
Width: 240
GlyphClass: 1
Flags: W
LayerCount: 2
Fore
SplineSet
96 66 m 0,0,1
 99 67 99 67 102 69 c 128,-1,2
 105 71 105 71 107.5 72.5 c 128,-1,3
 110 74 110 74 113 75 c 128,-1,4
 116 76 116 76 120 76.5 c 128,-1,5
 124 77 124 77 130 77 c 0,6,7
 144 77 144 77 154 72 c 0,8,9
 162 68 162 68 171 59.5 c 128,-1,10
 180 51 180 51 180 47 c 128,-1,11
 180 43 180 43 184 39 c 0,12,13
 189 34 189 34 189 14 c 0,14,15
 189 -1 189 -1 187 -9 c 0,16,17
 187 -11 187 -11 185 -17 c 0,18,19
 183 -27 183 -27 173 -42 c 128,-1,20
 163 -57 163 -57 155 -57 c 0,21,22
 137 -62 137 -62 129 -62 c 0,23,24
 122 -62 122 -62 118 -61 c 0,25,26
 83 -53 83 -53 76 -41 c 2,27,-1
 70 -32 l 2,28,29
 51 -4 51 -4 51 10 c 0,30,31
 51 16 51 16 54 22 c 128,-1,32
 57 28 57 28 57 37 c 0,33,34
 58 43 58 43 66 54 c 0,35,36
 77 66 77 66 77 58 c 0,37,38
 76 54 76 54 77 54 c 128,-1,39
 78 54 78 54 85 59 c 0,40,41
 94 65 94 65 96 66 c 0,0,1
EndSplineSet
Validated: 1
EndChar

StartChar: six
Encoding: 54 54 16
Width: 313
GlyphClass: 1
Flags: W
LayerCount: 2
Fore
SplineSet
239 379 m 0,0,1
 228 379 228 379 210 377 c 128,-1,2
 192 375 192 375 173 374 c 0,3,4
 156 374 156 374 134 372 c 0,5,6
 124 371 124 371 108 371 c 0,7,8
 80 371 80 371 72 380 c 0,9,10
 69 384 69 384 64 384 c 128,-1,11
 59 384 59 384 56 390 c 0,12,13
 52 397 52 397 52 404 c 0,14,15
 52 416 52 416 61 420 c 0,16,17
 65 421 65 421 75 428.5 c 128,-1,18
 85 436 85 436 94 436 c 2,19,-1
 98 436 l 2,20,21
 105 435 105 435 112.5 437.5 c 128,-1,22
 120 440 120 440 124 440 c 128,-1,23
 128 440 128 440 132 442 c 0,24,25
 134 443 134 443 138 443 c 0,26,27
 143 443 143 443 154.5 440 c 128,-1,28
 166 437 166 437 170 437 c 0,29,30
 172 437 172 437 177 435.5 c 128,-1,31
 182 434 182 434 192 435 c 2,32,-1
 203 435 l 2,33,34
 219 435 219 435 229 430 c 0,35,36
 241 427 241 427 244 423 c 0,37,38
 246 420 246 420 248 420 c 128,-1,39
 250 420 250 420 255 417 c 0,40,41
 261 413 261 413 260 396 c 0,42,43
 259 385 259 385 256 385 c 128,-1,44
 253 385 253 385 248 382 c 128,-1,45
 243 379 243 379 239 379 c 0,0,1
EndSplineSet
Validated: 1
EndChar

StartChar: eight
Encoding: 56 56 18
Width: 578
GlyphClass: 1
Flags: W
LayerCount: 2
Fore
SplineSet
62 797 m 0,0,1
 65 800 65 800 111 800 c 2,2,-1
 159 799 l 1,3,4
 163 787 163 787 163 770 c 0,5,6
 163 727 163 727 140 704 c 0,7,8
 132 696 132 696 120 695 c 0,9,10
 113 694 113 694 106 694 c 0,11,12
 99 696 99 696 92.5 702 c 128,-1,13
 86 708 86 708 79 717.5 c 128,-1,14
 72 727 72 727 69 730 c 0,15,16
 64 735 64 735 62 745 c 128,-1,17
 60 755 60 755 58 758 c 0,18,19
 57 760 57 760 57 766 c 0,20,21
 58 768 58 768 55 773 c 0,22,23
 53 776 53 776 56.5 785.5 c 128,-1,24
 60 795 60 795 62 797 c 0,0,1
403 786 m 2,25,-1
 408 800 l 1,26,-1
 514 800 l 1,27,28
 516 796 516 796 518.5 788.5 c 128,-1,29
 521 781 521 781 523 777 c 0,30,31
 526 769 526 769 526 760 c 0,32,33
 526 734 526 734 510 714 c 1,34,35
 502 696 502 696 471 696 c 0,36,37
 442 696 442 696 426 715 c 0,38,39
 407 734 407 734 403 757 c 0,40,41
 399 773 399 773 400 774 c 0,42,43
 402 776 402 776 402 780 c 0,44,45
 402 786 402 786 403 786 c 2,25,-1
EndSplineSet
Validated: 1
EndChar

StartChar: nine
Encoding: 57 57 19
Width: 370
GlyphClass: 1
Flags: W
LayerCount: 2
Fore
SplineSet
64 711 m 128,-1,1
 64 717 64 717 71.5 726.5 c 128,-1,2
 79 736 79 736 86 736 c 0,3,4
 102 736 102 736 111 750 c 0,5,6
 118 759 118 759 119 757 c 0,7,8
 120 756 120 756 119 754 c 256,9,10
 118 752 118 752 120 752 c 0,11,12
 123 752 123 752 123 753 c 2,13,-1
 124 754 l 2,14,15
 125 755 125 755 127 755.5 c 128,-1,16
 129 756 129 756 130 757 c 0,17,18
 136 760 136 760 145.5 766.5 c 128,-1,19
 155 773 155 773 161 775 c 0,20,21
 163 775 163 775 173.5 782 c 128,-1,22
 184 789 184 789 186 789 c 0,23,24
 189 789 189 789 195 793.5 c 128,-1,25
 201 798 201 798 203 798 c 0,26,27
 211 800 211 800 281 800 c 0,28,29
 316 800 316 800 316 799 c 0,30,31
 316 797 316 797 314 797 c 128,-1,32
 312 797 312 797 300 790 c 0,33,34
 285 781 285 781 260 768 c 0,35,36
 248 763 248 763 241 758.5 c 128,-1,37
 234 754 234 754 222 748 c 0,38,39
 210 743 210 743 199.5 736.5 c 128,-1,40
 189 730 189 730 183 727 c 0,41,42
 147 709 147 709 129 694 c 0,43,44
 127 692 127 692 120 686.5 c 128,-1,45
 113 681 113 681 107 678.5 c 128,-1,46
 101 676 101 676 93 676 c 0,47,48
 90 676 90 676 84 676.5 c 128,-1,49
 78 677 78 677 77 677 c 0,50,51
 63 679 63 679 63 683 c 0,52,53
 63 684 63 684 58.5 686.5 c 128,-1,54
 54 689 54 689 54 691 c 0,55,56
 54 692 54 692 59 699 c 0,57,0
 64 705 64 705 64 711 c 128,-1,1
114 764 m 0,58,59
 115 764 115 764 118.5 766 c 128,-1,60
 122 768 122 768 124.5 769.5 c 128,-1,61
 127 771 127 771 128 769 c 0,62,63
 128 768 128 768 125.5 766 c 128,-1,64
 123 764 123 764 119.5 762 c 128,-1,65
 116 760 116 760 115 759 c 0,66,67
 109 753 109 753 108 753 c 0,68,69
 105 753 105 753 96 746.5 c 128,-1,70
 87 740 87 740 86 740 c 1,71,-1
 86 744 l 2,72,73
 86 747 86 747 97.5 755 c 128,-1,74
 109 763 109 763 114 764 c 0,58,59
EndSplineSet
Validated: 1
EndChar

StartChar: semicolon
Encoding: 59 59 20
Width: 620
GlyphClass: 1
Flags: W
LayerCount: 2
Fore
SplineSet
81 703 m 0,0,1
 81 705 81 705 83 708 c 128,-1,2
 85 711 85 711 85 712 c 0,3,4
 85 714 85 714 88 714 c 0,5,6
 95 714 95 714 95 724 c 0,7,8
 96 726 96 726 98.5 724.5 c 128,-1,9
 101 723 101 723 105 721.5 c 128,-1,10
 109 720 109 720 110 720 c 0,11,12
 113 721 113 721 117 719 c 128,-1,13
 121 717 121 717 121 714 c 2,14,-1
 127 704 l 2,15,16
 131 698 131 698 140 679.5 c 128,-1,17
 149 661 149 661 157 645.5 c 128,-1,18
 165 630 165 630 168 627 c 2,19,-1
 171 622 l 2,20,21
 174 617 174 617 176 612 c 2,22,-1
 179 608 l 2,23,24
 181 608 181 608 181 604 c 0,25,26
 181 601 181 601 184.5 596.5 c 128,-1,27
 188 592 188 592 192.5 587 c 128,-1,28
 197 582 197 582 198 579 c 0,29,30
 200 575 200 575 210 559 c 0,31,32
 220 539 220 539 221 538 c 0,33,34
 225 534 225 534 232 523 c 128,-1,35
 239 512 239 512 245 505 c 0,36,37
 253 495 253 495 263 480 c 0,38,39
 285 452 285 452 290 452 c 0,40,41
 292 452 292 452 293 453 c 0,42,43
 295 454 295 454 299 460 c 128,-1,44
 303 466 303 466 304 467 c 0,45,46
 308 471 308 471 318 485 c 128,-1,47
 328 499 328 499 332 503 c 0,48,49
 338 512 338 512 347 521 c 0,50,51
 351 525 351 525 351 528 c 0,52,53
 351 530 351 530 353 530 c 0,54,55
 354 530 354 530 363 541 c 0,56,57
 371 552 371 552 378.5 560 c 128,-1,58
 386 568 386 568 392 576 c 0,59,60
 394 579 394 579 402 587 c 0,61,62
 406 592 406 592 415 602 c 128,-1,63
 424 612 424 612 428 616 c 0,64,65
 437 625 437 625 470 669 c 0,66,67
 486 696 486 696 524 716 c 0,68,69
 537 722 537 722 541 718 c 0,70,71
 544 715 544 715 551 718 c 0,72,73
 553 719 553 719 553 716 c 0,74,75
 553 710 553 710 561 708 c 0,76,77
 564 705 564 705 563 701.5 c 128,-1,78
 562 698 562 698 558 692 c 2,79,-1
 555 685 l 2,80,81
 553 675 553 675 533 659 c 0,82,83
 511 642 511 642 506 636 c 128,-1,84
 501 630 501 630 490 607 c 0,85,86
 483 593 483 593 476 593 c 0,87,88
 475 593 475 593 460 577.5 c 128,-1,89
 445 562 445 562 437 553 c 0,90,91
 416 532 416 532 410 522 c 0,92,93
 406 516 406 516 405 516 c 2,94,-1
 395 504 l 2,95,96
 390 498 390 498 383 491 c 0,97,98
 380 488 380 488 380 487 c 128,-1,99
 380 486 380 486 374.5 481 c 128,-1,100
 369 476 369 476 369 474 c 128,-1,101
 369 472 369 472 367 469.5 c 128,-1,102
 365 467 365 467 362.5 464.5 c 128,-1,103
 360 462 360 462 359 461 c 0,104,105
 355 453 355 453 342.5 438 c 128,-1,106
 330 423 330 423 326 417 c 128,-1,107
 322 411 322 411 322 409 c 0,108,109
 322 406 322 406 328 396.5 c 128,-1,110
 334 387 334 387 342.5 374 c 128,-1,111
 351 361 351 361 353 359 c 0,112,113
 358 350 358 350 377.5 325 c 128,-1,114
 397 300 397 300 404 288 c 2,115,-1
 406 286 l 2,116,117
 408 283 408 283 409 282 c 0,118,119
 414 277 414 277 424.5 262.5 c 128,-1,120
 435 248 435 248 439 244 c 0,121,122
 448 235 448 235 458 217 c 0,123,124
 461 212 461 212 492 173 c 0,125,126
 496 167 496 167 496 165 c 0,127,128
 496 164 496 164 499 161 c 0,129,130
 506 155 506 155 506 143 c 0,131,132
 506 138 506 138 504 132.5 c 128,-1,133
 502 127 502 127 502 123 c 0,134,135
 503 119 503 119 498.5 117 c 128,-1,136
 494 115 494 115 485 114 c 2,137,-1
 472 114 l 2,138,139
 470 116 470 116 466 116 c 128,-1,140
 462 116 462 116 455 123 c 0,141,142
 430 153 430 153 411 184 c 0,143,144
 410 186 410 186 404.5 193 c 128,-1,145
 399 200 399 200 391.5 209 c 128,-1,146
 384 218 384 218 382 221 c 0,147,148
 371 238 371 238 368 239 c 128,-1,149
 365 240 365 240 365 243 c 128,-1,150
 365 246 365 246 353 261.5 c 128,-1,151
 341 277 341 277 339 281 c 0,152,153
 338 282 338 282 325 300 c 0,154,155
 317 311 317 311 307.5 326 c 128,-1,156
 298 341 298 341 296 344 c 0,157,158
 292 348 292 348 292 351 c 0,159,160
 292 353 292 353 287.5 357 c 128,-1,161
 283 361 283 361 281 361 c 128,-1,162
 279 361 279 361 272 352 c 0,163,164
 270 350 270 350 266.5 345.5 c 128,-1,165
 263 341 263 341 258 335.5 c 128,-1,166
 253 330 253 330 250 327 c 0,167,168
 190 262 190 262 158 214 c 0,169,170
 156 211 156 211 138 184.5 c 128,-1,171
 120 158 120 158 118 156 c 2,172,-1
 106 136 l 2,173,174
 106 135 106 135 98.5 124.5 c 128,-1,175
 91 114 91 114 88 111 c 0,176,177
 86 109 86 109 72 109 c 0,178,179
 61 110 61 110 59.5 111 c 128,-1,180
 58 112 58 112 60 118 c 0,181,182
 61 120 61 120 57.5 122 c 128,-1,183
 54 124 54 124 56 126 c 128,-1,184
 58 128 58 128 58 131 c 128,-1,185
 58 134 58 134 62 134 c 0,186,187
 69 136 69 136 65 140 c 0,188,189
 58 147 58 147 58 153 c 0,190,191
 58 154 58 154 62 158 c 128,-1,192
 66 162 66 162 66 163 c 0,193,194
 66 165 66 165 68.5 167.5 c 128,-1,195
 71 170 71 170 71 171 c 0,196,197
 71 173 71 173 74.5 181 c 128,-1,198
 78 189 78 189 78 190 c 0,199,200
 78 192 78 192 80.5 193.5 c 128,-1,201
 83 195 83 195 84 194 c 2,202,-1
 84 190 l 2,203,204
 83 187 83 187 82 184 c 2,205,-1
 81 180 l 1,206,207
 83 182 83 182 89.5 192.5 c 128,-1,208
 96 203 96 203 98 206 c 0,209,210
 101 209 101 209 101 211 c 0,211,212
 101 218 101 218 109.5 229 c 128,-1,213
 118 240 118 240 119 244 c 0,214,215
 119 246 119 246 124 252 c 128,-1,216
 129 258 129 258 129 260 c 0,217,218
 129 261 129 261 135 267 c 0,219,220
 136 268 136 268 140 273.5 c 128,-1,221
 144 279 144 279 147.5 284 c 128,-1,222
 151 289 151 289 152 289 c 128,-1,223
 153 289 153 289 155 293 c 0,224,225
 160 303 160 303 177 316 c 0,226,227
 179 318 179 318 184.5 328 c 128,-1,228
 190 338 190 338 196 341 c 0,229,230
 199 343 199 343 206 351 c 128,-1,231
 213 359 213 359 216 361 c 0,232,233
 222 365 222 365 224 369 c 128,-1,234
 226 373 226 373 243 392 c 0,235,236
 251 402 251 402 251 404 c 0,237,238
 251 407 251 407 243.5 416 c 128,-1,239
 236 425 236 425 235 426 c 0,240,241
 233 430 233 430 229 435.5 c 128,-1,242
 225 441 225 441 223 445 c 0,243,244
 220 451 220 451 216 455 c 0,245,246
 209 462 209 462 204 468.5 c 128,-1,247
 199 475 199 475 193.5 483 c 128,-1,248
 188 491 188 491 184 496 c 0,249,250
 164 522 164 522 161 536 c 0,251,252
 161 538 161 538 155 547.5 c 128,-1,253
 149 557 149 557 149 558 c 2,254,-1
 134 581 l 1,255,-1
 126 596 l 1,256,-1
 121 606 l 2,257,258
 119 612 119 612 116 616.5 c 128,-1,259
 113 621 113 621 110 627 c 0,260,261
 106 634 106 634 98 650 c 0,262,263
 92 662 92 662 92 664 c 128,-1,264
 92 666 92 666 84.5 678 c 128,-1,265
 77 690 77 690 77 694 c 0,266,267
 77 696 77 696 78 697 c 0,268,269
 81 700 81 700 81 703 c 0,0,1
278 627 m 0,270,271
 278 628 278 628 277 633 c 0,272,273
 275 642 275 642 277 642 c 0,274,275
 281 642 281 642 282.5 650 c 128,-1,276
 284 658 284 658 281 660 c 0,277,278
 278 661 278 661 289 669 c 2,279,-1
 298 673 l 2,280,281
 300 674 300 674 309 674 c 0,282,283
 326 674 326 674 330 671 c 0,284,285
 339 666 339 666 339 648 c 0,286,287
 339 645 339 645 343 635.5 c 128,-1,288
 347 626 347 626 340 623 c 0,289,290
 339 622 339 622 337 619 c 128,-1,291
 335 616 335 616 333 613.5 c 128,-1,292
 331 611 331 611 330 611 c 0,293,294
 328 611 328 611 321.5 608.5 c 128,-1,295
 315 606 315 606 311 606 c 0,296,297
 303 606 303 606 303 604 c 1,298,-1
 299 605 l 2,299,300
 295 606 295 606 290 607 c 2,301,-1
 286 608 l 2,302,303
 284 608 284 608 281 616 c 128,-1,304
 278 624 278 624 278 627 c 0,270,271
76 457 m 0,305,306
 77 463 77 463 83 469.5 c 128,-1,307
 89 476 89 476 96 476 c 0,308,309
 100 476 100 476 105 473 c 0,310,311
 106 473 106 473 112 472.5 c 128,-1,312
 118 472 118 472 119 471 c 0,313,314
 132 458 132 458 131 448 c 0,315,316
 130 443 130 443 139 432 c 1,317,318
 134 419 134 419 130 415 c 0,319,320
 120 405 120 405 96 405 c 0,321,322
 86 405 86 405 80 408 c 0,323,324
 72 411 72 411 72 414 c 0,325,326
 72 415 72 415 70 419.5 c 128,-1,327
 68 424 68 424 69 426 c 0,328,329
 71 428 71 428 66 442 c 0,330,331
 65 447 65 447 68 447 c 0,332,333
 75 447 75 447 76 457 c 0,305,306
439 449 m 0,334,335
 440 449 440 449 444.5 452 c 128,-1,336
 449 455 449 455 451 455 c 0,337,338
 476 451 476 451 479 449 c 0,339,340
 482 448 482 448 485.5 440 c 128,-1,341
 489 432 489 432 488 430 c 0,342,343
 486 426 486 426 486.5 422.5 c 128,-1,344
 487 419 487 419 488.5 413 c 128,-1,345
 490 407 490 407 490 406 c 0,346,347
 490 400 490 400 483 393.5 c 128,-1,348
 476 387 476 387 470 387 c 0,349,350
 466 387 466 387 466 386 c 0,351,352
 466 384 466 384 457 384 c 0,353,354
 453 384 453 384 449 383 c 128,-1,355
 445 382 445 382 442.5 382.5 c 128,-1,356
 440 383 440 383 436 386 c 0,357,358
 431 390 431 390 426 397 c 0,359,360
 423 403 423 403 420 403 c 0,361,362
 414 403 414 403 421 408 c 0,363,364
 424 410 424 410 422 414 c 0,365,366
 418 421 418 421 420 427 c 128,-1,367
 422 433 422 433 429 433 c 0,368,369
 433 433 433 433 433 433.5 c 128,-1,370
 433 434 433 434 431 437 c 0,371,372
 429 439 429 439 432.5 444 c 128,-1,373
 436 449 436 449 439 449 c 0,334,335
242 201 m 1,374,375
 236 207 236 207 236 208 c 256,376,377
 236 209 236 209 235 213 c 0,378,379
 233 219 233 219 236 219 c 2,380,-1
 239 219 l 2,381,382
 243 218 243 218 245 221.5 c 128,-1,383
 247 225 247 225 244 228 c 0,384,385
 242 230 242 230 247 233 c 0,386,387
 251 234 251 234 258 244 c 1,388,-1
 274 242 l 2,389,390
 288 240 288 240 294 234 c 0,391,392
 299 229 299 229 299 225 c 128,-1,393
 299 221 299 221 299.5 214.5 c 128,-1,394
 300 208 300 208 300 206 c 0,395,396
 300 196 300 196 295 189 c 0,397,398
 293 185 293 185 288.5 182.5 c 128,-1,399
 284 180 284 180 278 178 c 128,-1,400
 272 176 272 176 270 175 c 0,401,402
 265 173 265 173 256.5 174.5 c 128,-1,403
 248 176 248 176 245 179 c 2,404,-1
 235 194 l 1,405,-1
 239 197 l 1,406,-1
 242 201 l 1,374,375
EndSplineSet
Validated: 1
EndChar

StartChar: question
Encoding: 63 63 21
Width: 487
GlyphClass: 1
Flags: W
LayerCount: 2
Fore
SplineSet
169 143 m 0,0,1
 169 144 169 144 164.5 155.5 c 128,-1,2
 160 167 160 167 160 169 c 0,3,4
 160 174 160 174 159.5 182.5 c 128,-1,5
 159 191 159 191 159 197 c 2,6,-1
 159 209 l 2,7,8
 162 272 162 272 162 299 c 0,9,10
 162 335 162 335 168 359 c 0,11,12
 170 363 170 363 170 370 c 0,13,14
 171 383 171 383 177 401 c 0,15,16
 179 411 179 411 179 413 c 0,17,18
 179 420 179 420 194 443 c 1,19,20
 220 469 220 469 269 489 c 0,21,22
 301 501 301 501 307 507 c 0,23,24
 312 512 312 512 331 517 c 0,25,26
 337 519 337 519 348 525.5 c 128,-1,27
 359 532 359 532 359 535 c 0,28,29
 359 536 359 536 364 543 c 0,30,31
 369 549 369 549 369 568 c 0,32,33
 369 592 369 592 361.5 622.5 c 128,-1,34
 354 653 354 653 349 657 c 0,35,36
 348 658 348 658 346 662 c 0,37,38
 344 673 344 673 331 684 c 0,39,40
 325 690 325 690 325 692 c 0,41,42
 325 697 325 697 306.5 712.5 c 128,-1,43
 288 728 288 728 281 732 c 0,44,45
 273 738 273 738 243 738 c 2,46,-1
 240 738 l 1,47,-1
 232 737 l 2,48,49
 224 736 224 736 218 736 c 0,50,51
 135 728 135 728 101 719 c 0,52,53
 88 716 88 716 81.5 715.5 c 128,-1,54
 75 715 75 715 74 718 c 0,55,56
 74 720 74 720 70.5 723.5 c 128,-1,57
 67 727 67 727 69 729 c 0,58,59
 72 733 72 733 68 734 c 2,60,-1
 62 732 l 2,61,62
 58 728 58 728 58 733 c 0,63,64
 57 735 57 735 59 737 c 256,65,66
 61 739 61 739 60 742.5 c 128,-1,67
 59 746 59 746 62 749 c 128,-1,68
 65 752 65 752 65 755 c 128,-1,69
 65 758 65 758 70 758 c 0,70,71
 77 759 77 759 78 766 c 0,72,73
 78 774 78 774 104.5 779.5 c 128,-1,74
 131 785 131 785 163.5 788.5 c 128,-1,75
 196 792 196 792 199 793 c 0,76,77
 204 794 204 794 216 794 c 0,78,79
 227 794 227 794 248 792.5 c 128,-1,80
 269 791 269 791 276 791 c 0,81,82
 282 791 282 791 292 787 c 0,83,84
 314 783 314 783 337.5 768 c 128,-1,85
 361 753 361 753 370 736 c 0,86,87
 371 735 371 735 384 718 c 0,88,89
 384 715 384 715 386 713 c 0,90,91
 405 685 405 685 410 672 c 0,92,93
 415 660 415 660 415 658 c 128,-1,94
 415 656 415 656 418 653 c 0,95,96
 419 652 419 652 422 641 c 0,97,98
 424 630 424 630 425.5 621 c 128,-1,99
 427 612 427 612 428 608.5 c 128,-1,100
 429 605 429 605 430 598.5 c 128,-1,101
 431 592 431 592 431 583 c 128,-1,102
 431 574 431 574 431 556 c 0,103,104
 431 529 431 529 428 520 c 0,105,106
 424 506 424 506 418 499 c 128,-1,107
 412 492 412 492 393 479 c 0,108,109
 379 470 379 470 362 464 c 0,110,111
 344 457 344 457 324 447 c 0,112,113
 321 445 321 445 317.5 443.5 c 128,-1,114
 314 442 314 442 311 441 c 128,-1,115
 308 440 308 440 306 439 c 128,-1,116
 304 438 304 438 302 437 c 2,117,-1
 301 436 l 2,118,119
 299 434 299 434 295 434 c 0,120,121
 287 434 287 434 266 418 c 0,122,123
 259 413 259 413 257 413 c 0,124,125
 252 413 252 413 237 394 c 0,126,127
 230 385 230 385 225 348 c 0,128,129
 221 318 221 318 220 271 c 0,130,131
 220 262 220 262 220 252.5 c 128,-1,132
 220 243 220 243 219.5 236.5 c 128,-1,133
 219 230 219 230 219 229 c 128,-1,134
 219 228 219 228 218.5 219 c 128,-1,135
 218 210 218 210 218 203 c 0,136,137
 218 177 218 177 217 169 c 2,138,-1
 215 155 l 1,139,140
 200 140 200 140 197 142 c 128,-1,141
 194 144 194 144 187 134 c 1,142,143
 179 142 179 142 176 140 c 0,144,145
 169 138 169 138 169 143 c 0,0,1
164 44 m 0,146,147
 168 66 168 66 185 66 c 0,148,149
 201 66 201 66 201 61 c 0,150,151
 201 60 201 60 206 58 c 0,152,153
 213 56 213 56 220 47.5 c 128,-1,154
 227 39 227 39 227 31 c 0,155,156
 227 29 227 29 225 23 c 0,157,158
 215 8 215 8 214 7 c 0,159,160
 205 -2 205 -2 197 -2 c 0,161,162
 195 -2 195 -2 189.5 -1.5 c 128,-1,163
 184 -1 184 -1 179 -1 c 128,-1,164
 174 -1 174 -1 167.5 6.5 c 128,-1,165
 161 14 161 14 164 17 c 0,166,167
 165 18 165 18 163 22 c 128,-1,168
 161 26 161 26 159 26 c 0,169,170
 155 26 155 26 159 31 c 0,171,172
 162 34 162 34 164 44 c 0,146,147
EndSplineSet
Validated: 1
EndChar

StartChar: a
Encoding: 65 65 22
AltUni2: 000061.ffffffff.0 000061.ffffffff.0
Width: 12
GlyphClass: 1
Flags: W
AnchorPoint: "diphthong" 6 283 basechar 0
AnchorPoint: "final" 3 18 basechar 0
AnchorPoint: "vowel" -1 407 mark 0
LayerCount: 2
Fore
SplineSet
-15.4501953125 442.474609375 m 0,0,1
 -13.634765625 442.474609375 -13.634765625 442.474609375 -10.609375 444.837890625 c 128,-1,2
 -7.5849609375 447.200195312 -7.5849609375 447.200195312 -5.76953125 447.200195312 c 0,3,4
 7.5400390625 451.25 7.5400390625 451.25 11.775390625 447.200195312 c 0,5,6
 13.58984375 445.174804688 13.58984375 445.174804688 15.4052734375 445.174804688 c 0,7,8
 20.8505859375 446.525390625 20.8505859375 446.525390625 22.060546875 442.474609375 c 0,9,10
 22.060546875 441.125 22.060546875 441.125 25.6904296875 438.424804688 c 0,11,12
 28.1103515625 437.075195312 28.1103515625 437.075195312 31.4375 432.6875 c 128,-1,13
 34.765625 428.299804688 34.765625 428.299804688 34.765625 426.950195312 c 0,14,15
 34.765625 426.275390625 34.765625 426.275390625 36.580078125 424.25 c 0,16,17
 37.185546875 422.900390625 37.185546875 422.900390625 38.3955078125 412.775390625 c 2,18,-1
 39 404 l 1,19,-1
 34.765625 393.875 l 2,20,21
 27.5048828125 379.025390625 27.5048828125 379.025390625 15.4052734375 371.599609375 c 0,22,23
 4.515625 365.525390625 4.515625 365.525390625 -4.5595703125 365.525390625 c 0,24,25
 -17.2646484375 365.525390625 -17.2646484375 365.525390625 -24.5244140625 378.349609375 c 0,26,27
 -27.5498046875 383.075195312 -27.5498046875 383.075195312 -28.154296875 383.075195312 c 0,28,29
 -34.205078125 394.549804688 -34.205078125 394.549804688 -34.205078125 395.224609375 c 2,30,-1
 -36.625 399.275390625 l 2,31,32
 -39.6494140625 403.325195312 -39.6494140625 403.325195312 -36.01953125 406.700195312 c 2,33,-1
 -33.599609375 409.400390625 l 2,34,35
 -33.599609375 410.75 -33.599609375 410.75 -28.154296875 422.900390625 c 0,36,37
 -19.6845703125 442.474609375 -19.6845703125 442.474609375 -15.4501953125 442.474609375 c 0,0,1
EndSplineSet
EndChar

StartChar: b
Encoding: 66 66 23
AltUni2: 000062.ffffffff.0 000062.ffffffff.0
Width: 447
GlyphClass: 1
Flags: W
AnchorPoint: "final" 281 159 basechar 0
AnchorPoint: "vowel" 227 532 basechar 0
LayerCount: 2
Fore
SplineSet
126 287 m 0,0,1
 107 375 107 375 89 373 c 0,2,3
 77 371 77 371 54.5 362 c 0,4,5
 52 361 52 361 50.5 358 c 128,-1,6
 49 355 49 355 48 347 c 0,7,8
 41 307 41 307 41 269 c 0,9,10
 41 249 41 249 43 240 c 0,11,12
 47 215 47 215 56.5 197.5 c 128,-1,13
 66 180 66 180 76 180 c 0,14,15
 83 180 83 180 88 185 c 0,16,17
 123 227 123 227 128 261 c 0,18,19
 129.159179688 277.521484375 129.159179688 277.521484375 126 287 c 0,0,1
  Spiro
    126 287 o
    107.25 352.5 o
    89 373 o
    74.375 369.25 o
    54.5 362 o
    52.25 360.5 o
    50.5 358 o
    49.125 353.75 o
    48 347 o
    42.75 307.5 o
    41 269 o
    41.5 251.75 o
    43 240 o
    48.375 216.875 o
    56.5 197.5 o
    66.125 184.375 o
    76 180 o
    82.5 181.25 o
    88 185 o
    115.5 225 o
    128 261 o
    128.08 275.761 o
    0 0 z
  EndSpiro
-8 209 m 0,20,21
 -8 194 -8 194 5 176 c 2,22,23
 6.3515625 172.568359375 6.3515625 172.568359375 14.9755859375 161.98828125 c 2,24,25
 23 152 23 152 27 147 c 0,26,27
 31 143 31 143 47 135 c 0,28,29
 49 134 49 134 62.5 130 c 128,-1,30
 76 126 76 126 78 124 c 0,31,32
 79 123 79 123 82 123 c 0,33,34
 101 123 101 123 121 139 c 0,35,36
 143 156 143 156 145 158 c 0,37,38
 150 163 150 163 158 169 c 0,39,40
 165 174 165 174 165 178 c 0,41,42
 165 179 165 179 167.5 181.5 c 128,-1,43
 170 184 170 184 170 186 c 0,44,45
 170 187 170 187 174 193 c 0,46,47
 182 207 182 207 182 215 c 0,48,49
 182 218 182 218 184 228 c 0,50,51
 186 240 186 240 186 257 c 2,52,53
 186 257 186 257 186 267 c 2,54,55
 186 309 186 309 174 321 c 0,56,57
 173 322 173 322 173 325 c 0,58,59
 173 327 173 327 169.5 333 c 128,-1,60
 166 339 166 339 166 340 c 0,61,62
 166 348 166 348 151 368 c 0,63,64
 148 372 148 372 148 376 c 0,65,66
 148 378 148 378 138 387 c 0,67,68
 130.799804688 393.400390625 130.799804688 393.400390625 122 400 c 2,69,70
 115 405 115 405 114 406 c 2,71,72
 109 410 109 410 97 414 c 0,73,74
 82 419 82 419 75 419 c 0,75,76
 66 419 66 419 63.5 422 c 128,-1,77
 61 425 61 425 62 437 c 0,78,79
 63 444 63 444 67.5 462.5 c 128,-1,80
 72 481 72 481 72 488 c 0,81,82
 72 502 72 502 92 542 c 0,83,84
 93 544 93 544 94 546 c 256,85,86
 95 548 95 548 95 549 c 0,87,88
 95 557 95 557 119 581 c 0,89,90
 134.444335938 593.079101562 134.444335938 593.079101562 135 595 c 0,91,92
 135 596 135 596 147 602 c 0,93,94
 149 603 149 603 152 605 c 0,95,96
 177 622 177 622 224 622 c 0,97,98
 255 622 255 622 269 616 c 0,99,100
 275 613 275 613 278 613 c 0,101,102
 290 613 290 613 327 591 c 0,103,104
 332 588 332 588 351 567 c 0,105,106
 367 549 367 549 371 540 c 0,107,108
 381 518 381 518 383 518 c 0,109,110
 384 518 384 518 388 507.5 c 0,111,112
 391 499 391 499 391 498 c 0,113,114
 392.419921875 498.325195312 392.419921875 498.325195312 400 462 c 0,115,116
 403 448 403 448 404 446 c 128,-1,117
 405 444 405 444 405 387 c 0,118,119
 405 328 405 328 404 321 c 0,120,121
 403 308 403 308 400.5 262.5 c 128,-1,122
 398 217 398 217 397 212 c 0,123,124
 395 202 395 202 395 182 c 0,125,126
 395 157 395 157 403 154 c 0,127,128
 406 153 406 153 412.5 149 c 128,-1,129
 419 145 419 145 420 143 c 128,-1,130
 421 141 421 141 425 142.5 c 0,131,132
 427 143 427 143 431.5 146.5 c 128,-1,133
 436 150 436 150 437 150 c 0,134,135
 448 150 448 150 453.5 186.5 c 0,136,137
 458 218 458 218 459.5 257.5 c 128,-1,138
 461 297 461 297 463 307 c 0,139,140
 467 327 467 327 467 380 c 0,141,142
 467 434 467 434 463 442 c 0,143,144
 462 444 462 444 460 461.5 c 128,-1,145
 458 479 458 479 457 480 c 0,146,147
 455 482 455 482 455 487 c 128,-1,148
 455 492 455 492 449 504 c 128,-1,149
 443 516 443 516 443 522 c 0,150,151
 443 548 443 548 425 566 c 0,152,153
 422 569 422 569 422 572 c 0,154,155
 422 576 422 576 414 585 c 128,-1,156
 406 594 406 594 394.5 604.5 c 128,-1,157
 383 615 383 615 381 618 c 0,158,159
 375 625 375 625 367 631 c 128,-1,160
 359 637 359 637 356 640 c 0,161,162
 343 653 343 653 311 662 c 0,163,164
 290 668 290 668 287 671 c 0,165,166
 285 673 285 673 281 673 c 0,167,168
 275 673 275 673 273 675 c 0,169,170
 268 680 268 680 229 680 c 0,171,172
 225 680 225 680 214 678 c 128,-1,173
 203 676 203 676 198 676 c 128,-1,174
 193 676 193 676 183 673.5 c 128,-1,175
 173 671 173 671 167 671 c 0,176,177
 153 670 153 670 131 659 c 0,178,179
 86 637 86 637 58 593 c 0,180,181
 53 585 53 585 50 584 c 0,182,183
 48.126953125 583.063476562 48.126953125 583.063476562 46 579 c 0,184,185
 43 573 43 573 26 531 c 0,186,187
 24 526 24 526 20 511.5 c 128,-1,188
 16 497 16 497 15 494 c 0,189,190
 13 490 13 490 13 485 c 128,-1,191
 13 480 13 480 12 478 c 0,192,193
 10 473 10 473 6 438 c 0,194,195
 5 427 5 427 3.21875 420.586914062 c 0,196,197
 1 414 1 414 0 397 c 0,198,199
 -8 302 -8 302 -8 209 c 0,20,21
  Spiro
    -8 209 o
    -4.75 193.25 o
    5 176 v
    8.16981 170.781 o
    14.9755 161.988 v
    21.9939 153.247 o
    27 147 o
    34 142 o
    47 135 o
    51.875 133.25 o
    62.5 130 o
    73.125 126.5 o
    78 124 o
    79.5 123.25 o
    82 123 o
    101.25 127 o
    121 139 o
    138 152.25 o
    145 158 o
    150.75 163.25 o
    158 169 o
    163.25 173.75 o
    165 178 o
    165.625 179.375 o
    167.5 181.5 o
    169.375 183.875 o
    170 186 o
    171 188.25 o
    174 193 o
    180 205.5 o
    182 215 o
    182.5 219.75 o
    184 228 o
    185.5 241.25 o
    186 257 [
    186 267 ]
    183 301.5 o
    174 321 o
    173.25 322.5 o
    173 325 o
    172.125 328 o
    169.5 333 o
    166.875 337.75 o
    166 340 o
    162.25 351 o
    151 368 o
    148.75 372 o
    148 376 o
    145.5 379.75 o
    138 387 o
    130.4 393.45 o
    122 400 v
    116.5 404 o
    114 406 v
    107.25 410 o
    97 414 o
    84 417.75 o
    75 419 o
    67.625 419.75 o
    63.5 422 o
    61.875 427.25 o
    62 437 o
    63.875 446.875 o
    67.5 462.5 o
    70.875 478.125 o
    72 488 o
    77 508.5 o
    92 542 o
    94 546 o
    94.75 547.75 o
    95 549 o
    101 561 o
    119 581 o
    130 591.5 o
    135 595 o
    138 597.25 o
    147 602 o
    149.25 603.25 o
    152 605 o
    182.5 617.75 o
    224 622 o
    250.75 620.5 o
    269 616 o
    274.25 613.75 o
    278 613 o
    296.25 607.5 o
    327 591 o
    335.5 583.5 o
    351 567 o
    364 551.25 o
    371 540 o
    379 523.5 o
    383 518 o
    384.75 515.375 o
    388 507.5 o
    390.25 500.875 o
    391 498 o
    400 462 o
    402.5 451 o
    404 446 o
    404.75 430.25 o
    405 387 o
    404.75 341 o
    404 321 o
    402.625 299.875 o
    400.5 262.5 o
    398.375 227.125 o
    397 212 o
    395.5 199.5 o
    395 182 o
    397 162.5 o
    403 154 o
    406.875 152.25 o
    412.5 149 o
    417.625 145.5 o
    420 143 o
    421.75 141.875 o
    425 142.5 o
    427.625 143.75 o
    431.5 146.5 o
    435.125 149.125 o
    437 150 o
    446.625 159.125 o
    453.5 186.5 o
    457.25 220 o
    459.5 257.5 o
    461.125 289.625 o
    463 307 o
    466 335.25 o
    467 380 o
    466 422.5 o
    463 442 o
    461.75 447.875 o
    460 461.5 o
    458.25 474.875 o
    457 480 o
    455.5 482.75 o
    455 487 o
    453.5 493.75 o
    449 504 o
    444.5 514.5 o
    443 522 o
    438.5 546 o
    425 566 o
    422.75 569 o
    422 572 o
    420 577.25 o
    414 585 o
    405.125 594.375 o
    394.5 604.5 o
    385.375 613.125 o
    381 618 o
    374.5 624.75 o
    367 631 o
    360.25 636.25 o
    356 640 o
    338.25 652 o
    311 662 o
    294.5 667.25 o
    287 671 o
    284.5 672.5 o
    281 673 o
    276 673.5 o
    273 675 o
    259.5 678.75 o
    229 680 o
    223.25 679.5 o
    214 678 o
    204.5 676.5 o
    198 676 o
    191.75 675.375 o
    183 673.5 o
    174 671.625 o
    167 671 o
    151 667.5 o
    131 659 o
    90.25 631.5 o
    58 593 o
    53.5 586.75 o
    50 584 o
    48.0637 582.282 o
    46 579 o
    39.5 564 o
    26 531 o
    23.5 523.625 o
    20 511.5 o
    16.75 499.875 o
    15 494 o
    13.5 489.75 o
    13 485 o
    12.75 480.75 o
    12 478 o
    9.5 465.5 o
    6 438 o
    4.80466 428.147 o
    3.21863 420.587 o
    1.30466 411.397 o
    0 397 o
    -6 302.5 o
    0 0 z
  EndSpiro
EndSplineSet
EndChar

StartChar: c
Encoding: 67 67 24
AltUni2: 000063.ffffffff.0 000063.ffffffff.0
Width: 474
GlyphClass: 1
Flags: W
AnchorPoint: "final" 206 70 basechar 0
AnchorPoint: "vowel" 220 564 basechar 0
LayerCount: 2
Fore
SplineSet
41 701 m 0,0,1
 49 699 49 699 51 699 c 0,2,3
 55 699 55 699 60.5 701 c 128,-1,4
 66 703 66 703 71 703 c 2,5,-1
 76 703 l 2,6,7
 90 701 90 701 92 701 c 0,8,9
 112 697 112 697 119 697 c 0,10,11
 127 697 127 697 132 698 c 0,12,13
 146 701 146 701 154 700 c 0,14,15
 226 691 226 691 240 690 c 0,16,17
 273 688 273 688 286 675 c 0,18,19
 298 663 298 663 290 659 c 0,20,21
 288 658 288 658 288 655.5 c 128,-1,22
 288 653 288 653 289 652 c 0,23,24
 291 652 291 652 291 646 c 0,25,26
 291 641 291 641 286 641 c 0,27,28
 282 641 282 641 278 636.5 c 128,-1,29
 274 632 274 632 269 633 c 0,30,31
 265 634 265 634 262 631.5 c 128,-1,32
 259 629 259 629 254 632 c 0,33,34
 248 634 248 634 245 634 c 0,35,36
 232 634 232 634 219 624 c 0,37,38
 217 622 217 622 205 622 c 0,39,40
 202 622 202 622 198 622.5 c 128,-1,41
 194 623 194 623 193 623 c 128,-1,42
 192 623 192 623 176 627 c 0,43,44
 163 631 163 631 126 634 c 128,-1,45
 89 637 89 637 77 642 c 0,46,47
 61 647 61 647 58 640 c 0,48,49
 55 631 55 631 55 553 c 2,50,-1
 55 375 l 1,51,-1
 54 344 l 2,52,53
 53 343 53 343 51 340.5 c 128,-1,54
 49 338 49 338 47 335.5 c 128,-1,55
 45 333 45 333 45 332 c 0,56,57
 45 325 45 325 36.5 325.5 c 128,-1,58
 28 326 28 326 26 323 c 0,59,60
 22 318 22 318 17 326 c 0,61,62
 14 329 14 329 8.5 332 c 128,-1,63
 3 335 3 335 1 344 c 0,64,65
 -6 391 -6 391 -6 474 c 2,66,-1
 -6 492 l 2,67,68
 -6 494 -6 494 -5.5 505 c 128,-1,69
 -5 516 -5 516 -4.5 532 c 128,-1,70
 -4 548 -4 548 -4 563 c 0,71,72
 -4 623 -4 623 -2 637 c 0,73,74
 1 669 1 669 6 678 c 0,75,76
 9 682 9 682 9 685 c 0,77,78
 9 687 9 687 14.5 690 c 128,-1,79
 20 693 20 693 26 695.5 c 128,-1,80
 32 698 32 698 34 700 c 128,-1,81
 36 702 36 702 41 701 c 0,0,1
398 171 m 2,82,-1
 411 171 l 2,83,84
 416 171 416 171 417 173 c 128,-1,85
 418 175 418 175 418 182 c 2,86,-1
 418 198 l 1,87,-1
 418 265 l 2,88,89
 418 299 418 299 419 309 c 0,90,91
 420 322 420 322 418 328 c 128,-1,92
 416 334 416 334 416 336 c 0,93,94
 417 338 417 338 417 350 c 0,95,96
 417 355 417 355 417.5 363.5 c 128,-1,97
 418 372 418 372 418 376 c 0,98,99
 418 387 418 387 416 393 c 0,100,101
 415 396 415 396 419 398.5 c 128,-1,102
 423 401 423 401 424 402 c 0,103,104
 427 405 427 405 429 405 c 128,-1,105
 431 405 431 405 431.5 407.5 c 128,-1,106
 432 410 432 410 430 411 c 0,107,108
 427 413 427 413 433 416 c 0,109,110
 435 417 435 417 436 416 c 256,111,112
 437 415 437 415 448 415 c 0,113,114
 458 415 458 415 460 413 c 0,115,116
 464 411 464 411 465 411 c 0,117,118
 467 411 467 411 471 406.5 c 128,-1,119
 475 402 475 402 474 400 c 0,120,121
 474 396 474 396 475 394 c 0,122,123
 475 393 475 393 477 314 c 0,124,125
 479 151 479 151 481 146 c 0,126,127
 483 144 483 144 481.5 137 c 128,-1,128
 480 130 480 130 480 128 c 128,-1,129
 480 126 480 126 476.5 124 c 128,-1,130
 473 122 473 122 473 119 c 0,131,132
 473 118 473 118 472 116 c 2,133,-1
 472 114 l 2,134,135
 472 112 472 112 466.5 109.5 c 128,-1,136
 461 107 461 107 458 108 c 0,137,138
 434 114 434 114 427 114 c 0,139,140
 423 114 423 114 415 112 c 0,141,142
 405 109 405 109 336 109 c 2,143,-1
 258 109 l 2,144,145
 244 108 244 108 223 108 c 0,146,147
 208 108 208 108 206 109 c 0,148,149
 200 111 200 111 197 111 c 0,150,151
 196 111 196 111 193 112.5 c 128,-1,152
 190 114 190 114 188.5 114.5 c 128,-1,153
 187 115 187 115 185 113 c 0,154,155
 181 108 181 108 178 111 c 2,156,-1
 174 115 l 2,157,158
 171 119 171 119 171 120 c 0,159,160
 171 123 171 123 168 123 c 0,161,162
 164 124 164 124 167 131 c 128,-1,163
 170 138 170 138 172 138 c 0,164,165
 173 139 173 139 172.5 142 c 128,-1,166
 172 145 172 145 170 147 c 0,167,168
 169 148 169 148 171 152 c 128,-1,169
 173 156 173 156 175 157 c 0,170,171
 176 158 176 158 182 158 c 128,-1,172
 188 158 188 158 194 161 c 0,173,174
 211 168 211 168 224 165 c 0,175,176
 229 164 229 164 232 165 c 0,177,178
 237 168 237 168 271 169 c 0,179,180
 274 169 274 169 282 169.5 c 128,-1,181
 290 170 290 170 294 170 c 0,182,183
 302 170 302 170 322.5 169 c 128,-1,184
 343 168 343 168 353 168 c 0,185,186
 368 168 368 168 374 169 c 0,187,188
 384 171 384 171 398 171 c 2,82,-1
EndSplineSet
EndChar

StartChar: d
Encoding: 68 68 25
AltUni2: 000064.ffffffff.0 000064.ffffffff.0
Width: 633
GlyphClass: 1
Flags: W
AnchorPoint: "final" 359 128 basechar 0
AnchorPoint: "vowel" 141 574 basechar 0
LayerCount: 2
Fore
SplineSet
0 558 m 0,0,1
 0 552 0 552 -4.5 545 c 128,-1,2
 -9 538 -9 538 -14 538 c 0,3,4
 -18 538 -18 538 -22 533 c 0,5,6
 -28 525 -28 525 -30 529 c 0,7,8
 -30 530 -30 530 -29 532 c 0,9,10
 -28 535 -28 535 -40 547 c 1,11,-1
 -39 564 l 2,12,13
 -39 581 -39 581 -36 585 c 0,14,15
 -33 594 -33 594 -33 597 c 0,16,17
 -33 603 -33 603 -28 612 c 0,18,19
 -24 619 -24 619 -7 635.5 c 128,-1,20
 10 652 10 652 20 659 c 0,21,22
 30 665 30 665 30 667 c 0,23,24
 32 669 32 669 38.5 671 c 128,-1,25
 45 673 45 673 47 674 c 0,26,27
 63 683 63 683 84 687 c 1,28,-1
 108 687 l 2,29,30
 113 687 113 687 122.5 686.5 c 128,-1,31
 132 686 132 686 133 686 c 0,32,33
 159 686 159 686 183 674 c 0,34,35
 186 674 186 674 191.5 672 c 128,-1,36
 197 670 197 670 199 669 c 0,37,38
 202 668 202 668 204.5 667 c 128,-1,39
 207 666 207 666 208 665.5 c 128,-1,40
 209 665 209 665 211.5 664 c 128,-1,41
 214 663 214 663 218 662 c 0,42,43
 220 661 220 661 222 660.5 c 128,-1,44
 224 660 224 660 225.5 659.5 c 128,-1,45
 227 659 227 659 228 659 c 2,46,-1
 230 658 l 2,47,48
 236 652 236 652 256 644 c 0,49,50
 263 640 263 640 301.5 602 c 128,-1,51
 340 564 340 564 340 562 c 0,52,53
 340 561 340 561 344.5 555 c 128,-1,54
 349 549 349 549 349 548 c 128,-1,55
 349 547 349 547 356 537 c 128,-1,56
 363 527 363 527 363 526 c 2,57,-1
 369 518 l 2,58,59
 375 511 375 511 381.5 496.5 c 128,-1,60
 388 482 388 482 393 475 c 0,61,62
 405 460 405 460 415 440 c 0,63,64
 418 435 418 435 425.5 423 c 128,-1,65
 433 411 433 411 436 405 c 0,66,67
 443 393 443 393 443 391 c 0,68,69
 445 388 445 388 446 386 c 0,70,71
 449 380 449 380 452.5 371 c 128,-1,72
 456 362 456 362 459 350.5 c 128,-1,73
 462 339 462 339 464 335 c 2,74,-1
 469 320 l 2,75,76
 478 293 478 293 483 283 c 0,77,78
 484 282 484 282 486.5 273.5 c 128,-1,79
 489 265 489 265 491 263 c 0,80,81
 503 245 503 245 503 237 c 0,82,83
 503 235 503 235 505.5 231 c 128,-1,84
 508 227 508 227 509 225 c 0,85,86
 513 215 513 215 525.5 198.5 c 128,-1,87
 538 182 538 182 542 182 c 0,88,89
 544 182 544 182 547 179 c 0,90,91
 554 172 554 172 567 170 c 0,92,93
 570 169 570 169 577 169 c 0,94,95
 591 169 591 169 625 188 c 0,96,97
 629 190 629 190 633 190 c 0,98,99
 636 190 636 190 642.5 194 c 128,-1,100
 649 198 649 198 652.5 199.5 c 128,-1,101
 656 201 656 201 658 196 c 0,102,103
 658 193 658 193 665.5 190 c 128,-1,104
 673 187 673 187 672 182 c 0,105,106
 672 179 672 179 675.5 176.5 c 128,-1,107
 679 174 679 174 678 169 c 0,108,109
 674 157 674 157 672 153 c 0,110,111
 669 148 669 148 665.5 144.5 c 128,-1,112
 662 141 662 141 660 139.5 c 128,-1,113
 658 138 658 138 652.5 135 c 128,-1,114
 647 132 647 132 644 130 c 0,115,116
 630 121 630 121 615 117 c 0,117,118
 610 114 610 114 607 114 c 128,-1,119
 604 114 604 114 594 112 c 0,120,121
 590 111 590 111 579 111 c 0,122,123
 560 111 560 111 552 115 c 0,124,125
 548 118 548 118 543 118 c 0,126,127
 536 118 536 118 499 146 c 0,128,129
 470 170 470 170 470 179 c 0,130,131
 470 182 470 182 468 183 c 0,132,133
 461 188 461 188 456 202 c 0,134,135
 448 221 448 221 446 225 c 0,136,137
 435 242 435 242 430 256 c 0,138,139
 428 261 428 261 424 269.5 c 128,-1,140
 420 278 420 278 418 282 c 2,141,-1
 400 336 l 2,142,143
 398 340 398 340 398 343 c 128,-1,144
 398 346 398 346 396 346 c 128,-1,145
 394 346 394 346 394 352 c 0,146,147
 393 357 393 357 389 364 c 128,-1,148
 385 371 385 371 383 371 c 0,149,150
 382 371 382 371 370 359 c 2,151,-1
 358 346 l 1,152,-1
 351 337 l 2,153,154
 346 329 346 329 337 320 c 0,155,156
 307 290 307 290 295 266 c 0,157,158
 291 258 291 258 284 249 c 128,-1,159
 277 240 277 240 274 234 c 0,160,161
 268 222 268 222 258 212 c 2,162,-1
 256 209 l 2,163,164
 255 207 255 207 252.5 204 c 128,-1,165
 250 201 250 201 248 198 c 0,166,167
 245 194 245 194 234 177.5 c 128,-1,168
 223 161 223 161 219 157 c 0,169,170
 218 156 218 156 209.5 139.5 c 128,-1,171
 201 123 201 123 200 122 c 0,172,173
 198 120 198 120 198 119 c 0,174,175
 198 117 198 117 192.5 112.5 c 128,-1,176
 187 108 187 108 183 107 c 2,177,-1
 171 103 l 2,178,179
 165 101 165 101 161.5 103.5 c 128,-1,180
 158 106 158 106 154 106 c 0,181,182
 150 105 150 105 149.5 105.5 c 128,-1,183
 149 106 149 106 150 109 c 0,184,185
 151 111 151 111 151 116 c 0,186,187
 151 117 151 117 150.5 120 c 128,-1,188
 150 123 150 123 150 125 c 0,189,190
 150 138 150 138 158 148 c 0,191,192
 162 152 162 152 162 157 c 0,193,194
 162 163 162 163 168 175 c 0,195,196
 172 183 172 183 216 247 c 2,197,-1
 238 281 l 2,198,199
 238 282 238 282 253 307 c 0,200,201
 257 315 257 315 269 327 c 0,202,203
 303 363 303 363 303 370 c 0,204,205
 303 371 303 371 308 378 c 128,-1,206
 313 385 313 385 313 386 c 0,207,208
 313 388 313 388 329.5 402.5 c 128,-1,209
 346 417 346 417 350 419 c 0,210,211
 356 421 356 421 355 432 c 0,212,213
 355 440 355 440 353 442 c 0,214,215
 348 447 348 447 338 461 c 128,-1,216
 328 475 328 475 327 478 c 0,217,218
 326 479 326 479 324 481 c 128,-1,219
 322 483 322 483 321 484.5 c 128,-1,220
 320 486 320 486 320 488 c 128,-1,221
 320 490 320 490 311.5 502 c 128,-1,222
 303 514 303 514 301 516 c 0,223,224
 298 519 298 519 295 525 c 0,225,226
 293 530 293 530 279.5 544.5 c 128,-1,227
 266 559 266 559 264 562 c 0,228,229
 245 587 245 587 227 595 c 0,230,231
 224 596 224 596 219 600.5 c 128,-1,232
 214 605 214 605 211 605 c 0,233,234
 210 605 210 605 207 608 c 0,235,236
 204 613 204 613 192 615 c 0,237,238
 189 615 189 615 184 618 c 128,-1,239
 179 621 179 621 177 621 c 0,240,241
 171 621 171 621 161 626 c 0,242,243
 160 627 160 627 142 629 c 2,244,-1
 110 633 l 1,245,-1
 100 633 l 2,246,247
 68 633 68 633 37 608 c 0,248,249
 31 602 31 602 22 596 c 0,250,251
 18 593 18 593 13 585 c 128,-1,252
 8 577 8 577 8 575 c 0,253,254
 8 574 8 574 4 567.5 c 128,-1,255
 0 561 0 561 0 558 c 0,0,1
EndSplineSet
EndChar

StartChar: e
Encoding: 69 69 26
AltUni2: 000065.ffffffff.0 000065.ffffffff.0
Width: 8
GlyphClass: 1
Flags: W
AnchorPoint: "diphthong" 1 528 basechar 0
AnchorPoint: "final" -0.5 81 basechar 0
AnchorPoint: "vowel" 1.5 505 mark 0
LayerCount: 2
Fore
SplineSet
-100.5 387 m 0,0,1
 -100.5 389 -100.5 389 -103 393.5 c 128,-1,2
 -105.5 398 -105.5 398 -105.5 399 c 0,3,4
 -105.5 401 -105.5 401 -108.5 402 c 0,5,6
 -110.5 403 -110.5 403 -114 410.5 c 128,-1,7
 -117.5 418 -117.5 418 -118.5 419 c 2,8,-1
 -133.5 449 l 2,9,10
 -136.5 456 -136.5 456 -137.5 456 c 0,11,12
 -140.5 456 -140.5 456 -143.5 472 c 0,13,14
 -144.5 476 -144.5 476 -151.5 484 c 128,-1,15
 -158.5 492 -158.5 492 -158.5 498 c 128,-1,16
 -158.5 504 -158.5 504 -161.5 507 c 0,17,18
 -168.5 514 -168.5 514 -159.5 514 c 0,19,20
 -152.5 514 -152.5 514 -156.5 519 c 0,21,22
 -158.5 521 -158.5 521 -157.5 522 c 128,-1,23
 -156.5 523 -156.5 523 -155 522.5 c 128,-1,24
 -153.5 522 -153.5 522 -151.5 521.5 c 128,-1,25
 -149.5 521 -149.5 521 -148.5 521 c 0,26,27
 -146.5 521 -146.5 521 -142 524.5 c 128,-1,28
 -137.5 528 -137.5 528 -137.5 530 c 128,-1,29
 -137.5 532 -137.5 532 -132.5 532 c 0,30,31
 -128.5 532 -128.5 532 -129.5 537 c 0,32,33
 -130.5 540 -130.5 540 -127.5 540 c 0,34,35
 -126.5 540 -126.5 540 -124.5 540 c 0,36,37
 -116.5 539 -116.5 539 -110.5 528 c 0,38,39
 -104.5 520 -104.5 520 -98.5 514 c 0,40,41
 -94.5 510 -94.5 510 -85 491.5 c 128,-1,42
 -75.5 473 -75.5 473 -64.5 449.5 c 128,-1,43
 -53.5 426 -53.5 426 -52.5 424 c 0,44,45
 -44.5 411 -44.5 411 -44.5 408 c 0,46,47
 -44.5 407 -44.5 407 -36.5 393 c 128,-1,48
 -28.5 379 -28.5 379 -28.5 378 c 0,49,50
 -27.5 376 -27.5 376 -25.5 374 c 0,51,52
 -24.5 372 -24.5 372 -15.5 358 c 128,-1,53
 -6.5 344 -6.5 344 -5.5 342 c 0,54,55
 -4.5 341 -4.5 341 -3.5 339 c 0,56,57
 -1.5 337 -1.5 337 -1.5 336 c 128,-1,58
 -1.5 335 -1.5 335 1.5 335 c 0,59,60
 7.5 335 7.5 335 9.5 344 c 0,61,62
 9.5 346 9.5 346 17 358 c 128,-1,63
 24.5 370 24.5 370 33.5 384 c 128,-1,64
 42.5 398 42.5 398 43.5 399 c 0,65,66
 43.5 400 43.5 400 56.5 420 c 0,67,68
 59.5 425 59.5 425 65.5 429.5 c 128,-1,69
 71.5 434 71.5 434 75.5 441 c 0,70,71
 78.5 445 78.5 445 82 449.5 c 128,-1,72
 85.5 454 85.5 454 89.5 460 c 0,73,74
 95.5 470 95.5 470 101.5 476 c 0,75,76
 108.5 483 108.5 483 108.5 485 c 0,77,78
 108.5 489 108.5 489 118 497.5 c 128,-1,79
 127.5 506 127.5 506 130.5 506 c 0,80,81
 132.5 506 132.5 506 132.5 505 c 128,-1,82
 132.5 504 132.5 504 137 506.5 c 128,-1,83
 141.5 509 141.5 509 147.5 513 c 2,84,-1
 152.5 518 l 1,85,86
 167.5 503 167.5 503 167.5 497 c 0,87,88
 167.5 492 167.5 492 153.5 473 c 0,89,90
 150.5 466 150.5 466 135.5 444 c 0,91,92
 90.5 378 90.5 378 73.5 345 c 0,93,94
 70.5 339 70.5 339 60.5 321 c 128,-1,95
 50.5 303 50.5 303 42.5 288.5 c 128,-1,96
 34.5 274 34.5 274 34.5 270 c 0,97,98
 34.5 267 34.5 267 32 261.5 c 128,-1,99
 29.5 256 29.5 256 29.5 252 c 0,100,101
 27.5 235 27.5 235 15.5 232 c 0,102,103
 14.5 232 14.5 232 10.5 229.5 c 128,-1,104
 6.5 227 6.5 227 3.5 226 c 128,-1,105
 0.5 225 0.5 225 -0.5 226 c 0,106,107
 -0.5 228 -0.5 228 -5.5 228 c 0,108,109
 -16.5 228 -16.5 228 -20 231 c 128,-1,110
 -23.5 234 -23.5 234 -23.5 244 c 0,111,112
 -23.5 256 -23.5 256 -32.5 274 c 0,113,114
 -34.5 277 -34.5 277 -39 286 c 128,-1,115
 -43.5 295 -43.5 295 -46.5 298 c 0,116,117
 -47.5 299 -47.5 299 -50 303.5 c 128,-1,118
 -52.5 308 -52.5 308 -55 312 c 128,-1,119
 -57.5 316 -57.5 316 -58.5 316 c 0,120,121
 -60.5 316 -60.5 316 -60.5 319 c 0,122,123
 -60.5 321 -60.5 321 -64 325 c 128,-1,124
 -67.5 329 -67.5 329 -67.5 330 c 128,-1,125
 -67.5 331 -67.5 331 -74 341 c 128,-1,126
 -80.5 351 -80.5 351 -82.5 353 c 128,-1,127
 -84.5 355 -84.5 355 -84.5 357 c 0,128,129
 -84.5 358 -84.5 358 -89.5 365.5 c 128,-1,130
 -94.5 373 -94.5 373 -94.5 375 c 128,-1,131
 -94.5 377 -94.5 377 -97.5 381.5 c 128,-1,132
 -100.5 386 -100.5 386 -100.5 387 c 0,0,1
EndSplineSet
EndChar

StartChar: f
Encoding: 70 70 27
AltUni2: 000066.ffffffff.0 000066.ffffffff.0
Width: 613
GlyphClass: 1
Flags: W
AnchorPoint: "final" 288 93 basechar 0
AnchorPoint: "vowel" 332 596 basechar 0
LayerCount: 2
Fore
SplineSet
250 683 m 0,0,1
 251 683 251 683 257.5 686 c 128,-1,2
 264 689 264 689 265 689 c 0,3,4
 268 689 268 689 274.5 693 c 128,-1,5
 281 697 281 697 283 698 c 2,6,-1
 298 703 l 2,7,8
 322 713 322 713 366 713 c 0,9,10
 371 714 371 714 382 714 c 0,11,12
 408 714 408 714 428 710 c 0,13,14
 489 703 489 703 516 669 c 0,15,16
 520 663 520 663 527 655 c 128,-1,17
 534 647 534 647 539.5 639 c 128,-1,18
 545 631 545 631 550 621 c 0,19,20
 567 596 567 596 567 585 c 0,21,22
 567 584 567 584 572 573 c 128,-1,23
 577 562 577 562 577 561 c 0,24,25
 577 558 577 558 578 558 c 0,26,27
 580 558 580 558 580 553 c 0,28,29
 580 552 580 552 585 540 c 0,30,31
 587 534 587 534 591 518.5 c 128,-1,32
 595 503 595 503 596 500 c 0,33,34
 598 494 598 494 598 469 c 0,35,36
 598 438 598 438 600 431 c 0,37,38
 602 420 602 420 601 415 c 0,39,40
 599 409 599 409 599 377 c 0,41,42
 599 353 599 353 597.5 343.5 c 128,-1,43
 596 334 596 334 592.5 323.5 c 128,-1,44
 589 313 589 313 587 301 c 0,45,46
 574 248 574 248 564 225 c 0,47,48
 558 213 558 213 558 212 c 128,-1,49
 558 211 558 211 554 205 c 128,-1,50
 550 199 550 199 550 198 c 0,51,52
 550 196 550 196 547 194 c 128,-1,53
 544 192 544 192 544 190 c 0,54,55
 544 189 544 189 539.5 183.5 c 128,-1,56
 535 178 535 178 531 173 c 128,-1,57
 527 168 527 168 528 167 c 0,58,59
 530 165 530 165 535 165 c 0,60,61
 542 165 542 165 563.5 169 c 128,-1,62
 585 173 585 173 592 173 c 2,63,-1
 596 173 l 2,64,65
 600 173 600 173 615 158 c 1,66,-1
 625 159 l 2,67,68
 628 159 628 159 631.5 160.5 c 128,-1,69
 635 162 635 162 637 162.5 c 128,-1,70
 639 163 639 163 641.5 163 c 128,-1,71
 644 163 644 163 645.5 161 c 128,-1,72
 647 159 647 159 649 156 c 0,73,74
 651 149 651 149 654 149 c 0,75,76
 656 149 656 149 656 142 c 0,77,78
 656 139 656 139 656.5 137 c 128,-1,79
 657 135 657 135 657.5 134 c 128,-1,80
 658 133 658 133 658 132 c 128,-1,81
 658 131 658 131 657 129.5 c 128,-1,82
 656 128 656 128 653 125 c 0,83,84
 643 117 643 117 642 117 c 0,85,86
 640 116 640 116 636 112.5 c 128,-1,87
 632 109 632 109 630 109 c 2,88,-1
 627 108 l 2,89,90
 624 106 624 106 623 106 c 0,91,92
 604 96 604 96 567 93 c 2,93,-1
 562 93 l 2,94,95
 533 93 533 93 528 98 c 0,96,97
 522 102 522 102 500 102 c 2,98,-1
 497 102 l 2,99,100
 496 101 496 101 495 101.5 c 128,-1,101
 494 102 494 102 494 103 c 128,-1,102
 494 104 494 104 485 111 c 0,103,104
 475 119 475 119 466 119 c 0,105,106
 460 119 460 119 455 121.5 c 128,-1,107
 450 124 450 124 448 124 c 0,108,109
 445 124 445 124 440.5 130 c 128,-1,110
 436 136 436 136 436 139 c 0,111,112
 436 140 436 140 439.5 147 c 128,-1,113
 443 154 443 154 443 155 c 0,114,115
 443 158 443 158 444 159 c 2,116,-1
 446 160 l 2,117,118
 447 162 447 162 448.5 165 c 128,-1,119
 450 168 450 168 452 170 c 0,120,121
 457 178 457 178 478 197 c 0,122,123
 498 215 498 215 513 238 c 0,124,125
 523 252 523 252 531 291 c 0,126,127
 533 307 533 307 537 323 c 0,128,129
 540 336 540 336 540 337 c 0,130,131
 542 345 542 345 542 368 c 0,132,133
 542 457 542 457 536 473 c 0,134,135
 534 477 534 477 534 488 c 0,136,137
 534 524 534 524 519 554 c 0,138,139
 516 562 516 562 493 604 c 0,140,141
 492 605 492 605 490 609 c 128,-1,142
 488 613 488 613 487 614 c 0,143,144
 484 617 484 617 484 619 c 128,-1,145
 484 621 484 621 479 623 c 0,146,147
 477 624 477 624 469 634 c 0,148,149
 463 643 463 643 453 646 c 0,150,151
 432 654 432 654 406 656 c 0,152,153
 399 656 399 656 383.5 657 c 128,-1,154
 368 658 368 658 360 658 c 0,155,156
 347 658 347 658 340 657 c 0,157,158
 308 653 308 653 298 647 c 0,159,160
 292 643 292 643 273.5 634.5 c 128,-1,161
 255 626 255 626 253 626 c 2,162,-1
 227 614 l 2,163,164
 219 614 219 614 190 596 c 0,165,166
 185 593 185 593 175.5 583.5 c 128,-1,167
 166 574 166 574 156.5 562.5 c 128,-1,168
 147 551 147 551 145 549 c 128,-1,169
 143 547 143 547 138 538.5 c 128,-1,170
 133 530 133 530 132 529 c 0,171,172
 130 527 130 527 128 520 c 128,-1,173
 126 513 126 513 125 512 c 0,174,175
 114 494 114 494 114 456 c 2,176,-1
 114 443 l 2,177,178
 115 422 115 422 113 416 c 0,179,180
 111 412 111 412 111 397 c 0,181,182
 111 369 111 369 116 337 c 0,183,184
 117 333 117 333 121 320 c 128,-1,185
 125 307 125 307 125 301 c 0,186,187
 125 296 125 296 128 288 c 128,-1,188
 131 280 131 280 131 277 c 0,189,190
 131 271 131 271 141 241 c 0,191,192
 143 230 143 230 149 216 c 0,193,194
 154 206 154 206 154 204 c 128,-1,195
 154 202 154 202 160.5 193 c 128,-1,196
 167 184 167 184 170 182 c 0,197,198
 173 179 173 179 173 176 c 128,-1,199
 173 173 173 173 175 169 c 0,200,201
 178 165 178 165 175 156 c 128,-1,202
 172 147 172 147 166 143 c 0,203,204
 147 124 147 124 140 124 c 0,205,206
 139 124 139 124 127 122 c 0,207,208
 116 119 116 119 85 118 c 0,209,210
 79 118 79 118 69.5 117.5 c 128,-1,211
 60 117 60 117 55.5 116.5 c 128,-1,212
 51 116 51 116 50 116 c 0,213,214
 44 114 44 114 -4 114 c 2,215,-1
 -18 114 l 2,216,217
 -22 114 -22 114 -22 117 c 0,218,219
 -22 118 -22 118 -35 131 c 0,220,221
 -39 135 -39 135 -41.5 141.5 c 128,-1,222
 -44 148 -44 148 -37 150 c 0,223,224
 -34 151 -34 151 -34 152 c 0,225,226
 -36 156 -36 156 -31.5 158.5 c 128,-1,227
 -27 161 -27 161 -27 162 c 0,228,229
 -27 166 -27 166 -19.5 168 c 128,-1,230
 -12 170 -12 170 1.5 170 c 128,-1,231
 15 170 15 170 16 170 c 2,232,-1
 100 178 l 2,233,234
 102 179 102 179 97.5 195 c 128,-1,235
 93 211 93 211 87 229.5 c 128,-1,236
 81 248 81 248 80 251 c 0,237,238
 76 269 76 269 76 270 c 0,239,240
 60 311 60 311 55 356 c 0,241,242
 52 378 52 378 52 397 c 0,243,244
 52 410 52 410 54 420 c 0,245,246
 57 428 57 428 57 438 c 0,247,248
 57 440 57 440 56.5 450.5 c 128,-1,249
 56 461 56 461 56 468 c 0,250,251
 56 508 56 508 72 540 c 0,252,253
 83 559 83 559 84 560 c 0,254,255
 89 565 89 565 95 573 c 0,256,257
 107 590 107 590 133 616 c 0,258,259
 141 624 141 624 141 626 c 0,260,261
 141 627 141 627 145.5 630 c 128,-1,262
 150 633 150 633 155 636.5 c 128,-1,263
 160 640 160 640 161 641 c 2,264,-1
 166 646 l 1,265,-1
 175 652 l 2,266,267
 184 657 184 657 185 657 c 0,268,269
 187 657 187 657 195 662 c 0,270,271
 210 670 210 670 233 677 c 0,272,273
 244 679 244 679 246 681 c 128,-1,274
 248 683 248 683 250 683 c 0,0,1
EndSplineSet
EndChar

StartChar: g
Encoding: 71 71 28
AltUni2: 000067.ffffffff.0 000067.ffffffff.0
Width: 434
GlyphClass: 1
Flags: W
AnchorPoint: "final" 224 49 basechar 0
AnchorPoint: "vowel" 219 581 basechar 0
LayerCount: 2
Fore
SplineSet
-30 681 m 2,0,1
 -30 682 -30 682 -27 685 c 128,-1,2
 -24 688 -24 688 -24 690 c 0,3,4
 -24 693 -24 693 -21 695.5 c 128,-1,5
 -18 698 -18 698 -15 695 c 0,6,7
 -12 693 -12 693 -5.5 695.5 c 128,-1,8
 1 698 1 698 3 694 c 128,-1,9
 5 690 5 690 20.5 673.5 c 128,-1,10
 36 657 36 657 37 656 c 0,11,12
 41 651 41 651 46 647 c 0,13,14
 68 632 68 632 166 519 c 0,15,16
 189 494 189 494 209 466 c 0,17,18
 225 443 225 443 229 443 c 128,-1,19
 233 443 233 443 233 444 c 0,20,21
 234 446 234 446 238 446 c 128,-1,22
 242 446 242 446 243 444 c 0,23,24
 243 443 243 443 242 440.5 c 128,-1,25
 241 438 241 438 241 437 c 0,26,27
 241 435 241 435 244.5 432 c 128,-1,28
 248 429 248 429 250 429 c 0,29,30
 253 429 253 429 253 409 c 0,31,32
 253 393 253 393 247 393 c 0,33,34
 246 393 246 393 245 392 c 256,35,36
 244 391 244 391 243.5 390.5 c 128,-1,37
 243 390 243 390 242 390 c 0,38,39
 240 388 240 388 226.5 384.5 c 128,-1,40
 213 381 213 381 209 379 c 0,41,42
 190 370 190 370 183 364.5 c 128,-1,43
 176 359 176 359 160 341 c 0,44,45
 160 340 160 340 155.5 335 c 128,-1,46
 151 330 151 330 150 328 c 0,47,48
 148 325 148 325 140 312 c 128,-1,49
 132 299 132 299 128 287 c 0,50,51
 123 275 123 275 123 256 c 0,52,53
 123 235 123 235 130 226 c 0,54,55
 134 220 134 220 134 218 c 0,56,57
 134 215 134 215 139.5 208 c 128,-1,58
 145 201 145 201 146 199 c 0,59,60
 169 167 169 167 199 160 c 0,61,62
 204 159 204 159 209 157.5 c 128,-1,63
 214 156 214 156 221 155 c 0,64,65
 229 155 229 155 244 150 c 0,66,67
 257 146 257 146 282 143 c 0,68,69
 294 141 294 141 297 144 c 128,-1,70
 300 147 300 147 303 147 c 0,71,72
 308 147 308 147 321 152 c 128,-1,73
 334 157 334 157 338 158 c 0,74,75
 355 162 355 162 362 167 c 0,76,77
 364 169 364 169 366 169 c 0,78,79
 370 169 370 169 385 184 c 0,80,81
 404 203 404 203 409 214 c 0,82,83
 411 219 411 219 413.5 223.5 c 128,-1,84
 416 228 416 228 418 231 c 2,85,-1
 419 234 l 2,86,87
 424 244 424 244 424 245 c 0,88,89
 424 257 424 257 439 272 c 0,90,91
 451 283 451 283 461 278 c 0,92,93
 469 274 469 274 469 271 c 0,94,95
 469 269 469 269 474.5 260.5 c 128,-1,96
 480 252 480 252 479 249 c 0,97,98
 474 224 474 224 466 211 c 0,99,100
 464 207 464 207 464 203 c 0,101,102
 464 201 464 201 458 188 c 128,-1,103
 452 175 452 175 452 174 c 128,-1,104
 452 173 452 173 447.5 166 c 128,-1,105
 443 159 443 159 442 159 c 2,106,-1
 440 155 l 2,107,108
 439 152 439 152 419.5 132.5 c 128,-1,109
 400 113 400 113 394 109 c 0,110,111
 391 107 391 107 380 103.5 c 128,-1,112
 369 100 369 100 366 97 c 0,113,114
 362 92 362 92 328 84 c 0,115,116
 316 82 316 82 297 82 c 0,117,118
 286 82 286 82 286 83 c 0,119,120
 286 85 286 85 279 85 c 0,121,122
 261 87 261 87 246 92 c 0,123,124
 237 95 237 95 229 95 c 0,125,126
 189 100 189 100 171 109 c 0,127,128
 163 113 163 113 162 113 c 0,129,130
 160 113 160 113 153 118 c 128,-1,131
 146 123 146 123 145 124 c 0,132,133
 141 126 141 126 132.5 134.5 c 128,-1,134
 124 143 124 143 113 154.5 c 128,-1,135
 102 166 102 166 99 169 c 128,-1,136
 96 172 96 172 96 173 c 128,-1,137
 96 174 96 174 90.5 184 c 128,-1,138
 85 194 85 194 85 195 c 0,139,140
 85 198 85 198 82 203 c 0,141,142
 73 216 73 216 73 256 c 0,143,144
 73 271 73 271 75 276 c 0,145,146
 77 282 77 282 80 297 c 0,147,148
 80 300 80 300 87 314.5 c 128,-1,149
 94 329 94 329 94 332 c 0,150,151
 94 334 94 334 97.5 338.5 c 128,-1,152
 101 343 101 343 101 344 c 0,153,154
 101 346 101 346 106 356 c 0,155,156
 114 371 114 371 134 389.5 c 128,-1,157
 154 408 154 408 170 418 c 0,158,159
 182 425 182 425 177 430 c 2,160,-1
 175 433 l 2,161,162
 175 435 175 435 173 437 c 0,163,164
 169 441 169 441 160 454.5 c 128,-1,165
 151 468 151 468 141 478 c 0,166,167
 137 482 137 482 116.5 505.5 c 128,-1,168
 96 529 96 529 85 540 c 0,169,170
 80 545 80 545 55.5 571 c 128,-1,171
 31 597 31 597 24 604 c 0,172,173
 22 606 22 606 17 610.5 c 128,-1,174
 12 615 12 615 8 619 c 128,-1,175
 4 623 4 623 1 627 c 0,176,177
 -8 638 -8 638 -10 639 c 128,-1,178
 -12 640 -12 640 -14.5 645 c 128,-1,179
 -17 650 -17 650 -20 651 c 0,180,181
 -27 655 -27 655 -29 672 c 0,182,183
 -29 675 -29 675 -30 678 c 2,184,-1
 -30 681 l 2,0,1
EndSplineSet
EndChar

StartChar: h
Encoding: 72 72 29
AltUni2: 000068.ffffffff.0 000068.ffffffff.0
Width: 389
GlyphClass: 1
Flags: W
AnchorPoint: "final" 194 82 basechar 0
AnchorPoint: "vowel" 204 598 basechar 0
LayerCount: 2
Fore
SplineSet
108 735 m 1,0,1
 165 740 165 740 188 740 c 0,2,3
 189 740 189 740 196.5 739.5 c 128,-1,4
 204 739 204 739 209 739 c 0,5,6
 279 736 279 736 323 703 c 0,7,8
 375 665 375 665 383 652 c 0,9,10
 390 641 390 641 399 623 c 0,11,12
 401 618 401 618 404 614 c 128,-1,13
 407 610 407 610 409 605 c 0,14,15
 409 602 409 602 411 598 c 0,16,17
 418 583 418 583 422 567 c 0,18,19
 423 561 423 561 426 554.5 c 128,-1,20
 429 548 429 548 429 543 c 0,21,22
 430 541 430 541 431 535.5 c 128,-1,23
 432 530 432 530 432 528 c 0,24,25
 438 512 438 512 441 484 c 0,26,27
 443 469 443 469 443 438 c 0,28,29
 443 400 443 400 438 389 c 0,30,31
 434 378 434 378 433 357 c 0,32,33
 433 351 433 351 431.5 341 c 128,-1,34
 430 331 430 331 430 327 c 128,-1,35
 430 323 430 323 427.5 308 c 128,-1,36
 425 293 425 293 425 288 c 0,37,38
 425 279 425 279 419 243 c 0,39,40
 417 233 417 233 417 231 c 0,41,42
 415 227 415 227 413 181 c 0,43,44
 413 177 413 177 412 166.5 c 128,-1,45
 411 156 411 156 411 151 c 0,46,47
 411 144 411 144 412 141 c 128,-1,48
 413 138 413 138 413 129 c 0,49,50
 413 108 413 108 409 100 c 0,51,52
 407 96 407 96 407 93 c 0,53,54
 407 84 407 84 400 84 c 0,55,56
 398 84 398 84 396 81 c 0,57,58
 394 79 394 79 389 79 c 0,59,60
 387 79 387 79 382.5 77 c 128,-1,61
 378 75 378 75 375 74.5 c 128,-1,62
 372 74 372 74 370 76 c 0,63,64
 369 77 369 77 366 77 c 0,65,66
 359 77 359 77 359 79 c 0,67,68
 359 82 359 82 356.5 89 c 128,-1,69
 354 96 354 96 354 100 c 0,70,71
 354 105 354 105 352.5 109 c 128,-1,72
 351 113 351 113 352 121 c 0,73,74
 353 125 353 125 353 136 c 0,75,76
 353 140 353 140 352.5 148.5 c 128,-1,77
 352 157 352 157 352 161 c 0,78,79
 352 168 352 168 354 180 c 0,80,81
 356 188 356 188 356 212 c 0,82,83
 357 240 357 240 360 248 c 0,84,85
 362 256 362 256 365 278 c 128,-1,86
 368 300 368 300 367 302 c 0,87,88
 367 304 367 304 369 319 c 128,-1,89
 371 334 371 334 371 336 c 0,90,91
 371 337 371 337 372 340 c 2,92,-1
 372 342 l 1,93,-1
 372 344 l 2,94,95
 372 346 372 346 372.5 349 c 128,-1,96
 373 352 373 352 373 355 c 128,-1,97
 373 358 373 358 373.5 365 c 128,-1,98
 374 372 374 372 374 374 c 128,-1,99
 374 376 374 376 374.5 379 c 128,-1,100
 375 382 375 382 376 386 c 128,-1,101
 377 390 377 390 377 393 c 128,-1,102
 377 396 377 396 377.5 403.5 c 128,-1,103
 378 411 378 411 379 414 c 0,104,105
 380 420 380 420 380 435 c 0,106,107
 380 490 380 490 367 529 c 2,108,-1
 362 544 l 2,109,110
 360 550 360 550 358 559 c 128,-1,111
 356 568 356 568 353 574 c 0,112,113
 352 577 352 577 347 590.5 c 128,-1,114
 342 604 342 604 339 609 c 0,115,116
 333 620 333 620 315 634 c 0,117,118
 308 639 308 639 308 640 c 0,119,120
 305 647 305 647 283 659 c 0,121,122
 271 667 271 667 247 675 c 0,123,124
 239 676 239 676 237 679 c 0,125,126
 230 684 230 684 175 684 c 0,127,128
 158 684 158 684 154 683 c 0,129,130
 145 680 145 680 70 679 c 0,131,132
 35 679 35 679 33 681 c 0,133,134
 30 684 30 684 18 681 c 128,-1,135
 6 678 6 678 5 679 c 128,-1,136
 4 680 4 680 2.5 683.5 c 128,-1,137
 1 687 1 687 -1 690.5 c 128,-1,138
 -3 694 -3 694 -5 694 c 0,139,140
 -8 694 -8 694 -8 695 c 0,141,142
 -9 698 -9 698 -2 700 c 0,143,144
 0 700 0 700 1 702.5 c 128,-1,145
 2 705 2 705 1 707 c 0,146,147
 -2 713 -2 713 4 720 c 0,148,149
 11 729 11 729 24 731.5 c 128,-1,150
 37 734 37 734 73 734 c 0,151,152
 78 734 78 734 83.5 734 c 128,-1,153
 89 734 89 734 93 734 c 128,-1,154
 97 734 97 734 100.5 734.5 c 128,-1,155
 104 735 104 735 106 735 c 2,156,-1
 108 735 l 1,0,1
4 256 m 0,157,158
 4 274 4 274 -1 316 c 128,-1,159
 -6 358 -6 358 -6 375 c 0,160,161
 -6 381 -6 381 -6 390 c 2,162,-1
 -7 398 l 2,163,164
 -9 406 -9 406 -9 420 c 0,165,166
 -9 426 -9 426 -8.5 438 c 128,-1,167
 -8 450 -8 450 -8 455 c 2,168,-1
 -8 463 l 2,169,170
 -9 472 -9 472 -7 490 c 0,171,172
 -6 494 -6 494 -6 501 c 0,173,174
 -6 503 -6 503 -11 535 c 0,175,176
 -13 550 -13 550 -9 560 c 0,177,178
 -6 564 -6 564 -6 568 c 0,179,180
 -6 569 -6 569 -5 571.5 c 128,-1,181
 -4 574 -4 574 -5 576 c 2,182,-1
 -5 580 l 1,183,184
 -4 580 -4 580 -1 578 c 0,185,186
 4 575 4 575 5 575 c 0,187,188
 6 576 6 576 7.5 578.5 c 128,-1,189
 9 581 9 581 11 583 c 128,-1,190
 13 585 13 585 16 586 c 0,191,192
 21 588 21 588 21 591 c 0,193,194
 21 597 21 597 27 590 c 0,195,196
 29 588 29 588 30 585 c 0,197,198
 31 583 31 583 35 583 c 0,199,200
 42 583 42 583 42 572 c 0,201,202
 42 570 42 570 46.5 561 c 128,-1,203
 51 552 51 552 51 549 c 0,204,205
 51 547 51 547 52.5 532.5 c 128,-1,206
 54 518 54 518 54 512 c 0,207,208
 54 507 54 507 53.5 492.5 c 128,-1,209
 53 478 53 478 53 468 c 0,210,211
 53 356 53 356 62 311 c 0,212,213
 65 284 65 284 65 237 c 0,214,215
 65 214 65 214 63.5 187.5 c 128,-1,216
 62 161 62 161 62 143 c 0,217,218
 62 133 62 133 61 128 c 128,-1,219
 60 123 60 123 59 121.5 c 128,-1,220
 58 120 58 120 56 117 c 128,-1,221
 54 114 54 114 52 111 c 0,222,223
 46 100 46 100 28 102 c 0,224,225
 26 102 26 102 23 103 c 2,226,-1
 19 104 l 2,227,228
 17 106 17 106 14 106 c 0,229,230
 0 106 0 106 0 149 c 2,231,-1
 0 156 l 2,232,233
 2 164 2 164 2 201 c 0,234,235
 2 219 2 219 3 235 c 128,-1,236
 4 251 4 251 4 256 c 0,157,158
EndSplineSet
EndChar

StartChar: i
Encoding: 73 73 30
AltUni2: 000069.ffffffff.0 000069.ffffffff.0
Width: 12
GlyphClass: 1
Flags: W
AnchorPoint: "diphthong" 9 218 basechar 0
AnchorPoint: "final" 3 15 basechar 0
AnchorPoint: "vowel" 8 425 mark 0
LayerCount: 2
Fore
SplineSet
33.75 497.599609375 m 0,0,1
 31.5 497.599609375 31.5 497.599609375 29.25 499.125 c 128,-1,2
 27 500.649414062 27 500.649414062 23.0625 500.649414062 c 0,3,4
 16.3125 501.870117188 16.3125 501.870117188 14.625 501.870117188 c 2,5,-1
 11.8125 501.870117188 l 1,6,-1
 11.25 501.259765625 l 2,7,8
 10.125 501.259765625 10.125 501.259765625 8.71875 500.649414062 c 128,-1,9
 7.3125 500.040039062 7.3125 500.040039062 6.1875 500.040039062 c 0,10,11
 -8.4375 496.379882812 -8.4375 496.379882812 -20.8125 485.399414062 c 0,12,13
 -40.5 465.879882812 -40.5 465.879882812 -40.5 464.049804688 c 0,14,15
 -47.8125 453.6796875 -47.8125 453.6796875 -48.375 453.0703125 c 0,16,17
 -63 425.009765625 -63 425.009765625 -63 400 c 0,18,19
 -63 386.580078125 -63 386.580078125 -59.0625 378.040039062 c 0,20,21
 -57.9375 375.599609375 -57.9375 375.599609375 -57.9375 374.379882812 c 128,-1,22
 -57.9375 373.16015625 -57.9375 373.16015625 -55.40625 367.974609375 c 128,-1,23
 -52.875 362.790039062 -52.875 362.790039062 -52.875 362.1796875 c 0,24,25
 -52.875 359.740234375 -52.875 359.740234375 -45.5625 351.809570312 c 128,-1,26
 -38.25 343.879882812 -38.25 343.879882812 -34.875 342.66015625 c 0,27,28
 -33.1875 342.049804688 -33.1875 342.049804688 -24.75 337.169921875 c 0,29,30
 -20.8125 335.33984375 -20.8125 335.33984375 -8.4375 335.33984375 c 2,31,-1
 -5.625 335.33984375 l 2,32,33
 3.375 335.33984375 3.375 335.33984375 5.625 335.950195312 c 128,-1,34
 7.875 336.559570312 7.875 336.559570312 15.1875 341.439453125 c 0,35,36
 18.5625 343.26953125 18.5625 343.26953125 22.78125 345.099609375 c 128,-1,37
 27 346.9296875 27 346.9296875 30.375 349.370117188 c 0,38,39
 48.375 360.959960938 48.375 360.959960938 48.9375 362.1796875 c 0,40,41
 50.0625 364.620117188 50.0625 364.620117188 50.625 364.620117188 c 0,42,43
 52.875 364.620117188 52.875 364.620117188 56.8125 370.109375 c 128,-1,44
 60.75 375.599609375 60.75 375.599609375 63 381.08984375 c 2,45,-1
 65.8125 386.580078125 l 2,46,47
 65.8125 387.189453125 65.8125 387.189453125 68.0625 390.849609375 c 0,48,49
 70.3125 393.899414062 70.3125 393.899414062 71.71875 401.830078125 c 128,-1,50
 73.125 409.759765625 73.125 409.759765625 74.8125 413.419921875 c 2,51,-1
 78.1875 420.740234375 l 1,52,-1
 77.625 434.16015625 l 2,53,54
 77.0625 449.41015625 77.0625 449.41015625 72 461.609375 c 0,55,56
 71.4375 463.439453125 71.4375 463.439453125 69.46875 468.9296875 c 128,-1,57
 67.5 474.419921875 67.5 474.419921875 66.09375 478.080078125 c 128,-1,58
 64.6875 481.740234375 64.6875 481.740234375 63.5625 481.740234375 c 128,-1,59
 62.4375 481.740234375 62.4375 481.740234375 59.90625 484.1796875 c 128,-1,60
 57.375 486.620117188 57.375 486.620117188 56.25 486.620117188 c 0,61,62
 53.4375 487.83984375 53.4375 487.83984375 52.3125 489.059570312 c 0,63,64
 43.3125 497.599609375 43.3125 497.599609375 33.75 497.599609375 c 0,0,1
5.625 532.370117188 m 0,65,66
 10.125 533.58984375 10.125 533.58984375 17.4375 533.58984375 c 0,67,68
 36.5625 533.58984375 36.5625 533.58984375 50.0625 529.9296875 c 0,69,70
 51.75 529.3203125 51.75 529.3203125 53.4375 529.3203125 c 2,71,-1
 54 529.3203125 l 2,72,73
 56.8125 529.3203125 56.8125 529.3203125 67.5 521.084960938 c 128,-1,74
 78.1875 512.849609375 78.1875 512.849609375 79.3125 512.240234375 c 0,75,76
 85.5 507.969726562 85.5 507.969726562 90.84375 499.125 c 128,-1,77
 96.1875 490.280273438 96.1875 490.280273438 97.875 485.705078125 c 128,-1,78
 99.5625 481.129882812 99.5625 481.129882812 104.625 467.709960938 c 0,79,80
 111.375 454.290039062 111.375 454.290039062 111.375 432.939453125 c 0,81,82
 111.375 429.889648438 111.375 429.889648438 110.25 425.009765625 c 0,83,84
 101.25 390.240234375 101.25 390.240234375 100.6875 389.01953125 c 0,85,86
 99.5625 383.530273438 99.5625 383.530273438 86.0625 355.469726562 c 1,87,-1
 83.25 351.809570312 l 2,88,89
 81 348.149414062 81 348.149414062 81 346.9296875 c 128,-1,90
 81 345.709960938 81 345.709960938 74.8125 339.915039062 c 128,-1,91
 68.625 334.120117188 68.625 334.120117188 66.375 332.899414062 c 0,92,93
 64.6875 332.290039062 64.6875 332.290039062 59.625 326.799804688 c 0,94,95
 50.0625 315.8203125 50.0625 315.8203125 43.875 313.379882812 c 0,96,97
 40.5 312.16015625 40.5 312.16015625 39.9375 311.549804688 c 0,98,99
 20.8125 299.959960938 20.8125 299.959960938 -6.75 299.959960938 c 0,100,101
 -26.4375 299.959960938 -26.4375 299.959960938 -45.5625 309.719726562 c 0,102,103
 -56.25 315.8203125 -56.25 315.8203125 -64.6875 324.359375 c 0,104,105
 -66.375 325.580078125 -66.375 325.580078125 -68.34375 327.71484375 c 128,-1,106
 -70.3125 329.849609375 -70.3125 329.849609375 -71.4375 331.0703125 c 128,-1,107
 -72.5625 332.290039062 -72.5625 332.290039062 -73.125 332.290039062 c 0,108,109
 -74.8125 333.509765625 -74.8125 333.509765625 -77.625 337.474609375 c 128,-1,110
 -80.4375 341.439453125 -80.4375 341.439453125 -79.875 342.049804688 c 0,111,112
 -79.3125 343.879882812 -79.3125 343.879882812 -80.4375 346.625 c 128,-1,113
 -81.5625 349.370117188 -81.5625 349.370117188 -83.25 352.724609375 c 128,-1,114
 -84.9375 356.080078125 -84.9375 356.080078125 -85.5 356.689453125 c 0,115,116
 -88.3125 365.83984375 -88.3125 365.83984375 -88.3125 367.669921875 c 0,117,118
 -88.3125 373.76953125 -88.3125 373.76953125 -88.875 375.599609375 c 2,119,-1
 -90.5625 381.08984375 l 2,120,121
 -92.25 383.530273438 -92.25 383.530273438 -92.8125 383.530273438 c 0,122,123
 -95.0625 382.919921875 -95.0625 382.919921875 -95.0625 384.75 c 0,124,125
 -95.0625 385.969726562 -95.0625 385.969726562 -93.9375 385.969726562 c 0,126,127
 -93.375 385.969726562 -93.375 385.969726562 -93.375 389.629882812 c 128,-1,128
 -93.375 393.290039062 -93.375 393.290039062 -94.5 393.290039062 c 128,-1,129
 -95.625 393.290039062 -95.625 393.290039062 -95.625 397.559570312 c 2,130,-1
 -90.5625 429.280273438 l 2,131,132
 -90 431.109375 -90 431.109375 -88.3125 434.76953125 c 128,-1,133
 -86.625 438.4296875 -86.625 438.4296875 -85.21875 441.479492188 c 128,-1,134
 -83.8125 444.530273438 -83.8125 444.530273438 -83.25 446.969726562 c 128,-1,135
 -82.6875 449.41015625 -82.6875 449.41015625 -79.875 457.03515625 c 128,-1,136
 -77.0625 464.66015625 -77.0625 464.66015625 -75.9375 465.26953125 c 0,137,138
 -74.25 467.099609375 -74.25 467.099609375 -74.25 468.3203125 c 0,139,140
 -73.6875 470.149414062 -73.6875 470.149414062 -71.4375 472.28515625 c 128,-1,141
 -69.1875 474.419921875 -69.1875 474.419921875 -68.625 475.639648438 c 0,142,143
 -66.375 480.51953125 -66.375 480.51953125 -62.4375 484.790039062 c 0,144,145
 -60.1875 487.229492188 -60.1875 487.229492188 -60.1875 487.83984375 c 128,-1,146
 -60.1875 488.450195312 -60.1875 488.450195312 -52.3125 501.259765625 c 0,147,148
 -49.5 506.139648438 -49.5 506.139648438 -32.0625 517.729492188 c 0,149,150
 -17.4375 527.490234375 -17.4375 527.490234375 -2.8125 529.9296875 c 0,151,152
 0.5625 530.540039062 0.5625 530.540039062 5.625 532.370117188 c 0,65,66
EndSplineSet
EndChar

StartChar: j
Encoding: 74 74 31
AltUni2: 00006a.ffffffff.0 00006a.ffffffff.0
Width: 541
GlyphClass: 1
Flags: W
AnchorPoint: "final" 222 -5 basechar 0
AnchorPoint: "vowel" 238 454 basechar 0
LayerCount: 2
Fore
SplineSet
182.440429688 87.1396484375 m 2,0,-1
 186.280273438 88.4501953125 l 2,1,2
 190.120117188 89.759765625 190.120117188 89.759765625 193.959960938 89.759765625 c 2,3,-1
 196.83984375 91.0703125 l 2,4,5
 198.759765625 88.4501953125 198.759765625 88.4501953125 203.080078125 91.724609375 c 128,-1,6
 207.400390625 95 207.400390625 95 209.3203125 100.240234375 c 0,7,8
 212.200195312 106.790039062 212.200195312 106.790039062 214.120117188 106.790039062 c 0,9,10
 217 106.790039062 217 106.790039062 230.440429688 127.75 c 128,-1,11
 243.879882812 148.709960938 243.879882812 148.709960938 243.879882812 152.639648438 c 0,12,13
 243.879882812 153.950195312 243.879882812 153.950195312 245.799804688 156.5703125 c 128,-1,14
 247.719726562 159.190429688 247.719726562 159.190429688 253 173.599609375 c 128,-1,15
 258.280273438 188.009765625 258.280273438 188.009765625 257.3203125 189.3203125 c 0,16,17
 256.360351562 193.25 256.360351562 193.25 253.959960938 193.25 c 128,-1,18
 251.559570312 193.25 251.559570312 193.25 247.719726562 191.28515625 c 128,-1,19
 243.879882812 189.3203125 243.879882812 189.3203125 241 189.3203125 c 0,20,21
 206.440429688 189.3203125 206.440429688 189.3203125 187.240234375 176.219726562 c 0,22,23
 181.48046875 172.290039062 181.48046875 172.290039062 179.559570312 172.290039062 c 0,24,25
 178.599609375 172.290039062 178.599609375 172.290039062 163.240234375 159.190429688 c 0,26,27
 144.040039062 143.469726562 144.040039062 143.469726562 138.280273438 131.6796875 c 2,28,-1
 131.559570312 119.889648438 l 1,29,30
 134.440429688 95 134.440429688 95 135.400390625 93.6904296875 c 0,31,32
 142.120117188 84.51953125 142.120117188 84.51953125 171.879882812 84.51953125 c 0,33,34
 177.639648438 84.51953125 177.639648438 84.51953125 178.599609375 85.830078125 c 128,-1,35
 179.559570312 87.1396484375 179.559570312 87.1396484375 182.440429688 87.1396484375 c 2,0,-1
292.83984375 345.209960938 m 0,36,37
 293.799804688 368.790039062 293.799804688 368.790039062 301.48046875 413.330078125 c 128,-1,38
 309.16015625 457.870117188 309.16015625 457.870117188 310.120117188 482.759765625 c 0,39,40
 310.120117188 491.9296875 310.120117188 491.9296875 311.559570312 501.754882812 c 128,-1,41
 313 511.580078125 313 511.580078125 313 515.509765625 c 0,42,43
 313 522.059570312 313 522.059570312 312.040039062 525.990234375 c 0,44,45
 310.120117188 536.469726562 310.120117188 536.469726562 309.16015625 536.469726562 c 2,46,-1
 307.240234375 535.16015625 l 2,47,48
 306.280273438 532.540039062 306.280273438 532.540039062 304.83984375 531.23046875 c 128,-1,49
 303.400390625 529.919921875 303.400390625 529.919921875 302.440429688 531.23046875 c 128,-1,50
 301.48046875 532.540039062 301.48046875 532.540039062 296.6796875 532.540039062 c 0,51,52
 292.83984375 531.23046875 292.83984375 531.23046875 279.400390625 523.370117188 c 128,-1,53
 265.959960938 515.509765625 265.959960938 515.509765625 260.200195312 512.889648438 c 0,54,55
 208.360351562 488 208.360351562 488 197.799804688 484.0703125 c 0,56,57
 186.280273438 480.139648438 186.280273438 480.139648438 177.639648438 474.900390625 c 128,-1,58
 169 469.66015625 169 469.66015625 161.3203125 468.349609375 c 0,59,60
 136.360351562 463.110351562 136.360351562 463.110351562 129.639648438 457.870117188 c 0,61,62
 101.799804688 443.459960938 101.799804688 443.459960938 87.400390625 443.459960938 c 0,63,64
 83.5595703125 443.459960938 83.5595703125 443.459960938 79.7197265625 440.83984375 c 0,65,66
 77.7998046875 439.530273438 77.7998046875 439.530273438 57.6396484375 436.91015625 c 0,67,68
 41.3203125 434.290039062 41.3203125 434.290039062 31.7197265625 438.219726562 c 0,69,70
 30.759765625 438.219726562 30.759765625 438.219726562 27.8798828125 439.530273438 c 128,-1,71
 25 440.83984375 25 440.83984375 23.080078125 441.495117188 c 128,-1,72
 21.16015625 442.150390625 21.16015625 442.150390625 20.2001953125 442.150390625 c 0,73,74
 15.400390625 442.150390625 15.400390625 442.150390625 14.4404296875 450.009765625 c 0,75,76
 13.48046875 459.1796875 13.48046875 459.1796875 9.6396484375 459.1796875 c 0,77,78
 6.759765625 459.1796875 6.759765625 459.1796875 5.7998046875 464.419921875 c 0,79,80
 1 480.139648438 1 480.139648438 5.7998046875 481.450195312 c 2,81,-1
 9.6396484375 478.830078125 l 2,82,83
 13.48046875 476.209960938 13.48046875 476.209960938 13.48046875 476.865234375 c 128,-1,84
 13.48046875 477.51953125 13.48046875 477.51953125 13.48046875 485.379882812 c 0,85,86
 13.48046875 495.860351562 13.48046875 495.860351562 30.759765625 503.719726562 c 128,-1,87
 48.0400390625 511.580078125 48.0400390625 511.580078125 60.51953125 511.580078125 c 0,88,89
 74.919921875 511.580078125 74.919921875 511.580078125 116.200195312 524.6796875 c 0,90,91
 129.639648438 528.610351562 129.639648438 528.610351562 153.639648438 538.434570312 c 128,-1,92
 177.639648438 548.259765625 177.639648438 548.259765625 185.3203125 550.879882812 c 0,93,94
 213.16015625 558.740234375 213.16015625 558.740234375 266.919921875 591.490234375 c 0,95,96
 283.240234375 600.66015625 283.240234375 600.66015625 288.040039062 605.900390625 c 0,97,98
 292.83984375 609.830078125 292.83984375 609.830078125 303.400390625 624.240234375 c 128,-1,99
 313.959960938 638.650390625 313.959960938 638.650390625 313.959960938 639.959960938 c 0,100,101
 313.959960938 642.580078125 313.959960938 642.580078125 318.759765625 646.509765625 c 0,102,103
 320.6796875 647.8203125 320.6796875 647.8203125 323.559570312 655.025390625 c 128,-1,104
 326.440429688 662.23046875 326.440429688 662.23046875 332.200195312 660.919921875 c 128,-1,105
 337.959960938 659.610351562 337.959960938 659.610351562 343.719726562 668.780273438 c 0,106,107
 349.48046875 676.639648438 349.48046875 676.639648438 353.3203125 676.639648438 c 128,-1,108
 357.16015625 676.639648438 357.16015625 676.639648438 359.080078125 672.0546875 c 128,-1,109
 361 667.469726562 361 667.469726562 363.879882812 667.469726562 c 0,110,111
 365.799804688 667.469726562 365.799804688 667.469726562 368.200195312 664.849609375 c 128,-1,112
 370.599609375 662.23046875 370.599609375 662.23046875 371.559570312 662.23046875 c 0,113,114
 375.400390625 662.23046875 375.400390625 662.23046875 383.080078125 646.509765625 c 1,115,-1
 382.120117188 630.790039062 l 2,116,117
 382.120117188 628.169921875 382.120117188 628.169921875 381.639648438 624.240234375 c 128,-1,118
 381.16015625 620.309570312 381.16015625 620.309570312 381.16015625 619 c 0,119,120
 381.16015625 613.759765625 381.16015625 613.759765625 382.599609375 603.934570312 c 128,-1,121
 384.040039062 594.110351562 384.040039062 594.110351562 384.040039062 584.940429688 c 0,122,123
 384.040039062 573.150390625 384.040039062 573.150390625 379.240234375 549.5703125 c 0,124,125
 374.440429688 528.610351562 374.440429688 528.610351562 371.559570312 494.549804688 c 0,126,127
 369.639648438 457.870117188 369.639648438 457.870117188 367.240234375 435.599609375 c 128,-1,128
 364.83984375 413.330078125 364.83984375 413.330078125 360.040039062 385.165039062 c 128,-1,129
 355.240234375 357 355.240234375 357 353.3203125 345.209960938 c 0,130,131
 348.51953125 322.940429688 348.51953125 322.940429688 348.51953125 308.530273438 c 0,132,133
 348.51953125 304.599609375 348.51953125 304.599609375 345.16015625 292.809570312 c 128,-1,134
 341.799804688 281.01953125 341.799804688 281.01953125 341.799804688 275.780273438 c 0,135,136
 341.799804688 261.370117188 341.799804688 261.370117188 361.959960938 265.299804688 c 0,137,138
 375.400390625 267.919921875 375.400390625 267.919921875 415.719726562 267.919921875 c 0,139,140
 429.16015625 267.919921875 429.16015625 267.919921875 448.83984375 269.23046875 c 128,-1,141
 468.51953125 270.540039062 468.51953125 270.540039062 470.440429688 270.540039062 c 2,142,-1
 479.080078125 270.540039062 l 2,143,144
 519.400390625 270.540039062 519.400390625 270.540039062 519.400390625 257.440429688 c 0,145,146
 519.400390625 254.8203125 519.400390625 254.8203125 527.080078125 249.580078125 c 128,-1,147
 534.759765625 244.33984375 534.759765625 244.33984375 533.799804688 239.099609375 c 2,148,-1
 529.959960938 228.620117188 l 2,149,150
 529 226 529 226 527.559570312 220.10546875 c 128,-1,151
 526.120117188 214.209960938 526.120117188 214.209960938 524.6796875 211.58984375 c 128,-1,152
 523.240234375 208.969726562 523.240234375 208.969726562 518.440429688 207.66015625 c 0,153,154
 508.83984375 205.040039062 508.83984375 205.040039062 495.400390625 205.040039062 c 0,155,156
 481 205.040039062 481 205.040039062 463.719726562 202.419921875 c 128,-1,157
 446.440429688 199.799804688 446.440429688 199.799804688 406.120117188 198.490234375 c 0,158,159
 368.6796875 194.559570312 368.6796875 194.559570312 328.360351562 194.559570312 c 0,160,161
 325.48046875 194.559570312 325.48046875 194.559570312 321.16015625 182.76953125 c 128,-1,162
 316.83984375 170.98046875 316.83984375 170.98046875 316.83984375 164.4296875 c 0,163,164
 316.83984375 161.809570312 316.83984375 161.809570312 311.080078125 134.299804688 c 0,165,166
 306.280273438 113.33984375 306.280273438 113.33984375 279.400390625 75.349609375 c 0,167,168
 264.040039062 54.3896484375 264.040039062 54.3896484375 263.080078125 54.3896484375 c 128,-1,169
 262.120117188 54.3896484375 262.120117188 54.3896484375 253.48046875 45.2197265625 c 0,170,171
 235.240234375 26.8798828125 235.240234375 26.8798828125 202.599609375 17.7099609375 c 0,172,173
 197.799804688 16.400390625 197.799804688 16.400390625 188.200195312 16.400390625 c 0,174,175
 177.639648438 16.400390625 177.639648438 16.400390625 131.559570312 32.1201171875 c 0,176,177
 124.83984375 33.4296875 124.83984375 33.4296875 119.559570312 36.705078125 c 128,-1,178
 114.280273438 39.98046875 114.280273438 39.98046875 110.440429688 41.2900390625 c 0,179,180
 100.83984375 45.2197265625 100.83984375 45.2197265625 91.240234375 53.080078125 c 0,181,182
 87.400390625 54.3896484375 87.400390625 54.3896484375 85.48046875 67.490234375 c 0,183,184
 81.6396484375 98.9296875 81.6396484375 98.9296875 81.6396484375 100.240234375 c 0,185,186
 81.6396484375 106.790039062 81.6396484375 106.790039062 82.599609375 108.099609375 c 0,187,188
 85.48046875 115.959960938 85.48046875 115.959960938 85.48046875 125.129882812 c 0,189,190
 86.4404296875 147.400390625 86.4404296875 147.400390625 89.3203125 153.950195312 c 0,191,192
 91.240234375 159.190429688 91.240234375 159.190429688 91.240234375 167.049804688 c 0,193,194
 91.240234375 178.83984375 91.240234375 178.83984375 112.360351562 206.349609375 c 0,195,196
 122.919921875 220.759765625 122.919921875 220.759765625 127.719726562 222.0703125 c 0,197,198
 130.599609375 222.0703125 130.599609375 222.0703125 138.280273438 226.655273438 c 128,-1,199
 145.959960938 231.240234375 145.959960938 231.240234375 148.83984375 231.240234375 c 128,-1,200
 151.719726562 231.240234375 151.719726562 231.240234375 154.599609375 235.169921875 c 2,201,-1
 157.48046875 236.48046875 l 2,202,203
 160.360351562 239.099609375 160.360351562 239.099609375 163.719726562 241.719726562 c 128,-1,204
 167.080078125 244.33984375 167.080078125 244.33984375 169.959960938 245.650390625 c 0,205,206
 180.51953125 252.200195312 180.51953125 252.200195312 190.120117188 252.200195312 c 2,207,-1
 195.879882812 252.200195312 l 2,208,209
 206.440429688 252.200195312 206.440429688 252.200195312 214.120117188 254.8203125 c 0,210,211
 231.400390625 260.059570312 231.400390625 260.059570312 234.280273438 260.059570312 c 0,212,213
 254.440429688 260.059570312 254.440429688 260.059570312 274.599609375 267.919921875 c 0,214,215
 280.360351562 270.540039062 280.360351562 270.540039062 281.3203125 290.190429688 c 0,216,217
 281.3203125 296.740234375 281.3203125 296.740234375 284.6796875 305.91015625 c 128,-1,218
 288.040039062 315.080078125 288.040039062 315.080078125 288.040039062 319.009765625 c 0,219,220
 288.040039062 321.629882812 288.040039062 321.629882812 290.440429688 330.799804688 c 128,-1,221
 292.83984375 339.969726562 292.83984375 339.969726562 292.83984375 345.209960938 c 0,36,37
EndSplineSet
EndChar

StartChar: k
Encoding: 75 75 32
AltUni2: 00006b.ffffffff.0 00006b.ffffffff.0
Width: 323
GlyphClass: 1
Flags: W
AnchorPoint: "vowel" 135 539 basechar 0
AnchorPoint: "final" 124 79 basechar 0
LayerCount: 2
Fore
SplineSet
312 472 m 2,0,-1
 306 460 l 2,1,2
 306 456 306 456 286 434 c 0,3,4
 270 417 270 417 230 403 c 0,5,6
 226 400 226 400 223 400 c 0,7,8
 219 400 219 400 198 393 c 128,-1,9
 177 386 177 386 173 386 c 0,10,11
 148 381 148 381 135 379 c 2,12,-1
 122 377 l 1,13,14
 116 385 116 385 111 387 c 0,15,16
 108 389 108 389 104.5 396.5 c 128,-1,17
 101 404 101 404 100 405 c 0,18,19
 96 411 96 411 102 411 c 0,20,21
 103 411 103 411 101.5 415 c 128,-1,22
 100 419 100 419 105 419 c 128,-1,23
 110 419 110 419 113 428 c 0,24,25
 114 432 114 432 125 432.5 c 128,-1,26
 136 433 136 433 138 435 c 2,27,-1
 140 436 l 2,28,29
 142 436 142 436 144 436.5 c 128,-1,30
 146 437 146 437 148 437 c 0,31,32
 162 439 162 439 179.5 444.5 c 128,-1,33
 197 450 197 450 204 451 c 0,34,35
 215 453 215 453 229 461 c 0,36,37
 234 463 234 463 239 469 c 128,-1,38
 244 475 244 475 243 477 c 0,39,40
 242 478 242 478 242 500 c 0,41,42
 240 561 240 561 235 566 c 0,43,44
 233 568 233 568 231 573.5 c 128,-1,45
 229 579 229 579 226 582 c 0,46,47
 221 589 221 589 221 590 c 128,-1,48
 221 591 221 591 208.5 602 c 128,-1,49
 196 613 196 613 194 613 c 0,50,51
 193 613 193 613 190 616 c 0,52,53
 187 618 187 618 176 622 c 128,-1,54
 165 626 165 626 162 626 c 128,-1,55
 159 626 159 626 156 627 c 128,-1,56
 153 628 153 628 148.5 630 c 128,-1,57
 144 632 144 632 141 633 c 0,58,59
 122 639 122 639 98 645 c 0,60,61
 97 645 97 645 92.5 646.5 c 128,-1,62
 88 648 88 648 86 648 c 0,63,64
 77 650 77 650 65 649 c 0,65,66
 55 647 55 647 47.5 649.5 c 128,-1,67
 40 652 40 652 35 652 c 0,68,69
 26 652 26 652 26 656 c 0,70,71
 26 659 26 659 25 661.5 c 128,-1,72
 24 664 24 664 24.5 667 c 128,-1,73
 25 670 25 670 28 675 c 0,74,75
 32 686 32 686 34 690.5 c 128,-1,76
 36 695 36 695 43 700 c 128,-1,77
 50 705 50 705 61 706 c 0,78,79
 68 707 68 707 81 707 c 0,80,81
 107 707 107 707 142 696 c 0,82,83
 169 687 169 687 171 687 c 0,84,85
 174 687 174 687 179 685 c 128,-1,86
 184 683 184 683 186 682 c 0,87,88
 189 682 189 682 197 679 c 128,-1,89
 205 676 205 676 208 676 c 0,90,91
 215 676 215 676 236.5 661 c 128,-1,92
 258 646 258 646 258 643 c 2,93,-1
 259 642 l 2,94,95
 260 640 260 640 262 638.5 c 128,-1,96
 264 637 264 637 265 635 c 0,97,98
 285 612 285 612 296 580 c 0,99,100
 297 575 297 575 300.5 570 c 128,-1,101
 304 565 304 565 305 554 c 0,102,103
 306 547 306 547 307 543.5 c 128,-1,104
 308 540 308 540 310 537 c 128,-1,105
 312 534 312 534 313 529 c 0,106,107
 315 521 315 521 316 520 c 128,-1,108
 317 519 317 519 317 503 c 0,109,110
 317 482 317 482 315 480 c 0,111,112
 312 474 312 474 312 472 c 2,0,-1
11 473 m 0,113,114
 11 478 11 478 10 484 c 128,-1,115
 9 490 9 490 8.5 491.5 c 128,-1,116
 8 493 8 493 9 495 c 0,117,118
 11 495 11 495 13 502 c 0,119,120
 17 515 17 515 21 519 c 128,-1,121
 25 523 25 523 34 523 c 128,-1,122
 43 523 43 523 41 530 c 0,123,124
 41 532 41 532 43 533 c 0,125,126
 48 536 48 536 55 530.5 c 128,-1,127
 62 525 62 525 64 520 c 0,128,129
 70 494 70 494 70 488 c 2,130,-1
 70 470 l 2,131,132
 73 465 73 465 75 368 c 0,133,134
 75 355 75 355 75.5 337.5 c 128,-1,135
 76 320 76 320 76.5 311 c 128,-1,136
 77 302 77 302 77 301 c 128,-1,137
 77 300 77 300 77.5 294 c 128,-1,138
 78 288 78 288 78 278 c 128,-1,139
 78 268 78 268 78 259 c 0,140,141
 78 240 78 240 79.5 215 c 128,-1,142
 81 190 81 190 81 177 c 0,143,144
 81 171 81 171 83 154.5 c 128,-1,145
 85 138 85 138 85 130 c 0,146,147
 85 120 85 120 83 116 c 0,148,149
 78 104 78 104 71 104 c 0,150,151
 70 104 70 104 67 103.5 c 128,-1,152
 64 103 64 103 62.5 102.5 c 128,-1,153
 61 102 61 102 60 103 c 0,154,155
 58 106 58 106 49 106 c 0,156,157
 43 106 43 106 39 107.5 c 128,-1,158
 35 109 35 109 33.5 111 c 128,-1,159
 32 113 32 113 30 118 c 128,-1,160
 28 123 28 123 27 125 c 0,161,162
 21 140 21 140 21 151 c 0,163,164
 21 156 21 156 19 170.5 c 128,-1,165
 17 185 17 185 17 194 c 0,166,167
 17 208 17 208 15.5 234 c 128,-1,168
 14 260 14 260 14 273 c 2,169,-1
 14 288 l 2,170,171
 16 306 16 306 14 319 c 0,172,173
 12 333 12 333 12 394 c 0,174,175
 12 414 12 414 11.5 443 c 128,-1,176
 11 472 11 472 11 473 c 0,113,114
EndSplineSet
EndChar

StartChar: l
Encoding: 76 76 33
AltUni2: 00006c.ffffffff.0 00006c.ffffffff.0
Width: 553
GlyphClass: 1
Flags: W
AnchorPoint: "final" 198 45 basechar 0
AnchorPoint: "vowel" 293 553 basechar 0
LayerCount: 2
Fore
SplineSet
198 684 m 128,-1,1
 199 684 199 684 204.5 686.5 c 128,-1,2
 210 689 210 689 212 689 c 0,3,4
 216 689 216 689 226 691 c 0,5,6
 242 694 242 694 273 695 c 0,7,8
 299 696 299 696 302 698 c 0,9,10
 306 700 306 700 337 700 c 0,11,12
 367 700 367 700 377 698 c 0,13,14
 404 690 404 690 409 690 c 0,15,16
 410 690 410 690 412.5 689 c 128,-1,17
 415 688 415 688 418.5 686.5 c 128,-1,18
 422 685 422 685 425 684 c 0,19,20
 445 676 445 676 456 660 c 0,21,22
 458 657 458 657 468.5 645 c 128,-1,23
 479 633 479 633 482 629 c 0,24,25
 500 605 500 605 500 602 c 0,26,27
 500 601 500 601 502 599 c 0,28,29
 504 598 504 598 509 586.5 c 128,-1,30
 514 575 514 575 514 573 c 0,31,32
 514 568 514 568 522 552 c 128,-1,33
 530 536 530 536 530 529 c 0,34,35
 530 525 530 525 529 523 c 0,36,37
 515 502 515 502 507 502 c 2,38,-1
 503 502 l 2,39,40
 496 502 496 502 489 509 c 0,41,42
 484 514 484 514 479 512 c 0,43,44
 476 511 476 511 474.5 512.5 c 128,-1,45
 473 514 473 514 472 518.5 c 128,-1,46
 471 523 471 523 471 524 c 0,47,48
 470 527 470 527 462.5 541 c 128,-1,49
 455 555 455 555 455 560 c 0,50,51
 455 566 455 566 442 585.5 c 128,-1,52
 429 605 429 605 416 618 c 0,53,54
 414 620 414 620 403.5 625 c 128,-1,55
 393 630 393 630 391 630 c 128,-1,56
 389 630 389 630 385.5 632 c 128,-1,57
 382 634 382 634 378 635 c 0,58,59
 370 637 370 637 358 637 c 0,60,61
 355 637 355 637 344 636.5 c 128,-1,62
 333 636 333 636 325 636 c 2,63,-1
 274 636 l 2,64,65
 243 636 243 636 215 628 c 0,66,67
 200 624 200 624 200 623 c 0,68,69
 200 621 200 621 196 621 c 0,70,71
 188 621 188 621 142 584 c 0,72,73
 104 557 104 557 98 541 c 0,74,75
 97 537 97 537 97 533 c 128,-1,76
 97 529 97 529 90.5 517.5 c 128,-1,77
 84 506 84 506 84 501 c 0,78,79
 84 498 84 498 86 496 c 0,80,81
 92 492 92 492 124 492 c 0,82,83
 142 492 142 492 146 491 c 0,84,85
 150 491 150 491 165.5 489 c 128,-1,86
 181 487 181 487 184 487 c 0,87,88
 185 487 185 487 188 486.5 c 128,-1,89
 191 486 191 486 195.5 485 c 128,-1,90
 200 484 200 484 204 484 c 0,91,92
 209 484 209 484 230 480.5 c 128,-1,93
 251 477 251 477 262 477 c 0,94,95
 272 477 272 477 274 475 c 2,96,-1
 276 474 l 2,97,98
 279 474 279 474 282.5 474 c 128,-1,99
 286 474 286 474 290 474 c 0,100,101
 302 474 302 474 314.5 472 c 128,-1,102
 327 470 327 470 341 470 c 0,103,104
 348 470 348 470 361 469.5 c 128,-1,105
 374 469 374 469 376 469 c 2,106,-1
 395 469 l 2,107,108
 465 469 465 469 503 471 c 0,109,110
 518 472 518 472 522 463 c 0,111,112
 524 459 524 459 527 459 c 0,113,114
 529 459 529 459 532 456.5 c 128,-1,115
 535 454 535 454 536 454 c 0,116,117
 538 454 538 454 538 452 c 0,118,119
 538 449 538 449 541 445 c 0,120,121
 544 440 544 440 542 431 c 0,122,123
 537 413 537 413 512 387 c 0,124,125
 507 381 507 381 494 363.5 c 128,-1,126
 481 346 481 346 470 334 c 0,127,128
 454 317 454 317 454 315 c 0,129,130
 454 312 454 312 451 311 c 0,131,132
 442 305 442 305 421 275 c 0,133,134
 415 266 415 266 393.5 242.5 c 128,-1,135
 372 219 372 219 366 208 c 0,136,137
 359 196 359 196 329 163 c 0,138,139
 274 102 274 102 264 89 c 0,140,141
 261 85 261 85 241.5 64.5 c 128,-1,142
 222 44 222 44 217 35 c 0,143,144
 210 26 210 26 200 26 c 0,145,146
 196 26 196 26 196 24 c 0,147,148
 196 23 196 23 189 23 c 0,149,150
 186 23 186 23 179.5 27 c 128,-1,151
 173 31 173 31 171 31 c 0,152,153
 168 31 168 31 168 40 c 0,154,155
 168 45 168 45 169 54.5 c 128,-1,156
 170 64 170 64 170 65 c 0,157,158
 170 70 170 70 180 83 c 0,159,160
 181 84 181 84 206 111 c 0,161,162
 220 127 220 127 229 136 c 0,163,164
 244 154 244 154 253 163 c 0,165,166
 266 176 266 176 269 182 c 128,-1,167
 272 188 272 188 282.5 199 c 128,-1,168
 293 210 293 210 294 211 c 0,169,170
 296 213 296 213 304.5 224 c 128,-1,171
 313 235 313 235 315 238 c 128,-1,172
 317 241 317 241 358 296 c 0,173,174
 386 333 386 333 403 349 c 2,175,-1
 411 357 l 2,176,177
 411 360 411 360 423 372 c 0,178,179
 445 396 445 396 448 403 c 0,180,181
 449 404 449 404 449 406 c 0,182,183
 449 411 449 411 388 411 c 0,184,185
 297 411 297 411 230 421 c 0,186,187
 225 422 225 422 215 423.5 c 128,-1,188
 205 425 205 425 198.5 426.5 c 128,-1,189
 192 428 192 428 191 428 c 0,190,191
 181 428 181 428 147 431.5 c 128,-1,192
 113 435 113 435 102 435 c 0,193,194
 60 435 60 435 56 439 c 0,195,196
 53 440 53 440 44 438 c 128,-1,197
 35 436 35 436 32 439 c 2,198,-1
 27 441 l 2,199,200
 25 440 25 440 22.5 442 c 128,-1,201
 20 444 20 444 20 446 c 128,-1,202
 20 448 20 448 17 453.5 c 128,-1,203
 14 459 14 459 14 461 c 0,204,205
 14 462 14 462 13.5 464.5 c 128,-1,206
 13 467 13 467 13 468.5 c 128,-1,207
 13 470 13 470 13 471 c 0,208,209
 15 474 15 474 11 476 c 0,210,211
 10 476 10 476 10 473 c 128,-1,212
 10 470 10 470 8 470 c 128,-1,213
 6 470 6 470 5 473 c 0,214,215
 4 477 4 477 7.5 481.5 c 128,-1,216
 11 486 11 486 14 485 c 0,217,218
 24 485 24 485 24 493 c 0,219,220
 24 497 24 497 26.5 499 c 128,-1,221
 29 501 29 501 29 506 c 0,222,223
 29 508 29 508 31.5 515 c 128,-1,224
 34 522 34 522 34 525.5 c 128,-1,225
 34 529 34 529 31 532 c 0,226,227
 26 534 26 534 30 538 c 0,228,229
 31 538 31 538 31 542 c 128,-1,230
 31 546 31 546 32 546 c 0,231,232
 33 547 33 547 41.5 560.5 c 128,-1,233
 50 574 50 574 50 576 c 128,-1,234
 50 578 50 578 53.5 582.5 c 128,-1,235
 57 587 57 587 57 588 c 0,236,237
 57 590 57 590 64 596.5 c 128,-1,238
 71 603 71 603 73 603 c 128,-1,239
 75 603 75 603 85 613 c 0,240,241
 92 620 92 620 107 630 c 0,242,243
 112 633 112 633 129.5 647 c 128,-1,244
 147 661 147 661 160 668 c 0,245,246
 166 671 166 671 168 673 c 0,247,248
 168 674 168 674 171 674 c 0,249,250
 172 674 172 674 184.5 679 c 128,-1,0
 197 684 197 684 198 684 c 128,-1,1
EndSplineSet
EndChar

StartChar: m
Encoding: 77 77 34
AltUni2: 00006d.ffffffff.0 00006d.ffffffff.0
Width: 532
GlyphClass: 1
Flags: W
AnchorPoint: "final" 234 139 basechar 0
AnchorPoint: "vowel" 242 407 basechar 0
LayerCount: 2
Fore
SplineSet
75 708 m 0,0,1
 76 708 76 708 84.5 710 c 128,-1,2
 93 712 93 712 96 709 c 0,3,4
 97 709 97 709 101 696 c 0,5,6
 105 684 105 684 107 650 c 0,7,8
 110 604 110 604 115 590 c 0,9,10
 115 589 115 589 115.5 587 c 128,-1,11
 116 585 116 585 116.5 583.5 c 128,-1,12
 117 582 117 582 117.5 580.5 c 128,-1,13
 118 579 118 579 118 578 c 0,14,15
 118 575 118 575 121 569 c 128,-1,16
 124 563 124 563 124 561 c 128,-1,17
 124 559 124 559 126 557 c 0,18,19
 141 542 141 542 141 535 c 0,20,21
 141 534 141 534 143 534 c 0,22,23
 144 534 144 534 150.5 529 c 128,-1,24
 157 524 157 524 158 524 c 0,25,26
 166 522 166 522 174.5 523.5 c 128,-1,27
 183 525 183 525 184 525 c 0,28,29
 194 525 194 525 207 538 c 0,30,31
 208 540 208 540 212.5 543.5 c 128,-1,32
 217 547 217 547 219 548 c 0,33,34
 238 563 238 563 241 572 c 0,35,36
 243 577 243 577 247.5 585 c 128,-1,37
 252 593 252 593 252 600 c 2,38,-1
 252 606 l 1,39,-1
 252 611 l 2,40,41
 252 615 252 615 253 620.5 c 128,-1,42
 254 626 254 626 254 629 c 0,43,44
 254 634 254 634 253 637 c 0,45,46
 251 645 251 645 253 645 c 0,47,48
 256 645 256 645 261 649.5 c 128,-1,49
 266 654 266 654 266 657 c 0,50,51
 264 666 264 666 272 672 c 0,52,53
 276 676 276 676 276 678 c 0,54,55
 277 680 277 680 279.5 679.5 c 128,-1,56
 282 679 282 679 287 677 c 128,-1,57
 292 675 292 675 294 675 c 0,58,59
 298 675 298 675 305 670 c 128,-1,60
 312 665 312 665 314 664 c 0,61,62
 322 662 322 662 322 636 c 2,63,-1
 322 609 l 2,64,65
 323 547 323 547 328 542 c 0,66,67
 330 540 330 540 330 537 c 0,68,69
 330 532 330 532 337.5 526.5 c 128,-1,70
 345 521 345 521 353 521 c 0,71,72
 357 521 357 521 361 523 c 128,-1,73
 365 525 365 525 368 525 c 0,74,75
 377 525 377 525 399.5 547.5 c 128,-1,76
 422 570 422 570 426 583 c 0,77,78
 426 584 426 584 432 595 c 128,-1,79
 438 606 438 606 438 611 c 0,80,81
 438 634 438 634 450 650 c 0,82,83
 455 655 455 655 455 658 c 0,84,85
 455 663 455 663 461.5 669.5 c 128,-1,86
 468 676 468 676 473 672 c 0,87,88
 475 669 475 669 479 670.5 c 128,-1,89
 483 672 483 672 486 671 c 0,90,91
 490 669 490 669 493 669 c 0,92,93
 498 669 498 669 502 664 c 0,94,95
 509 656 509 656 509 648 c 128,-1,96
 509 640 509 640 500 604 c 0,97,98
 496 586 496 586 489 574 c 0,99,100
 483 564 483 564 483 561 c 0,101,102
 483 560 483 560 479 555.5 c 128,-1,103
 475 551 475 551 475 549 c 0,104,105
 475 544 475 544 456 525 c 0,106,107
 452 520 452 520 440 508 c 128,-1,108
 428 496 428 496 427 496 c 0,109,110
 425 496 425 496 422 493 c 128,-1,111
 419 490 419 490 408 484 c 128,-1,112
 397 478 397 478 396 477 c 0,113,114
 379 466 379 466 360 466 c 0,115,116
 355 466 355 466 341 468 c 0,117,118
 332 470 332 470 319 470 c 0,119,120
 317 470 317 470 303.5 475.5 c 128,-1,121
 290 481 290 481 290 483 c 0,122,123
 290 484 290 484 284 488 c 0,124,125
 272 495 272 495 272 502 c 0,126,127
 272 504 272 504 268.5 507.5 c 128,-1,128
 265 511 265 511 262 511 c 128,-1,129
 259 511 259 511 255.5 507.5 c 128,-1,130
 252 504 252 504 250 503 c 0,131,132
 247 502 247 502 241 496.5 c 128,-1,133
 235 491 235 491 233 490 c 0,134,135
 231 490 231 490 228 486 c 128,-1,136
 225 482 225 482 222 482 c 2,137,-1
 214 478 l 2,138,139
 206 475 206 475 205 475 c 128,-1,140
 204 475 204 475 201 473 c 128,-1,141
 198 471 198 471 196 471 c 0,142,143
 191 471 191 471 191 469 c 0,144,145
 191 468 191 468 185 468 c 0,146,147
 184 468 184 468 173.5 466.5 c 128,-1,148
 163 465 163 465 158 465 c 128,-1,149
 153 465 153 465 152 466 c 0,150,151
 143 468 143 468 122 478 c 0,152,153
 118 479 118 479 109.5 485.5 c 128,-1,154
 101 492 101 492 99 494 c 0,155,156
 98 496 98 496 96 496 c 128,-1,157
 94 496 94 496 89.5 501 c 128,-1,158
 85 506 85 506 85 507 c 128,-1,159
 85 508 85 508 82 511 c 128,-1,160
 79 514 79 514 79 515 c 0,161,162
 79 519 79 519 78 519 c 2,163,-1
 76 522 l 2,164,165
 73 525 73 525 72 525.5 c 128,-1,166
 71 526 71 526 69 525 c 0,167,168
 68 524 68 524 68 504 c 2,169,-1
 68 481 l 2,170,171
 68 461 68 461 66 458 c 0,172,173
 64 454 64 454 66 453 c 0,174,175
 69 452 69 452 69 404 c 0,176,177
 69 360 69 360 68 327 c 0,178,179
 67 267 67 267 62 261 c 0,180,181
 56 253 56 253 56 231 c 0,182,183
 56 224 56 224 56.5 211 c 128,-1,184
 57 198 57 198 57 191 c 0,185,186
 57 159 57 159 58 148 c 2,187,-1
 60 128 l 1,188,189
 50 126 50 126 48 115 c 0,190,191
 47 110 47 110 43 110 c 0,192,193
 38 110 38 110 30.5 108.5 c 128,-1,194
 23 107 23 107 21 107 c 0,195,196
 13 107 13 107 9 122 c 0,197,198
 4 141 4 141 4 196 c 0,199,200
 4 231 4 231 6 310 c 128,-1,201
 8 389 8 389 8 430 c 0,202,203
 8 478 8 478 7 503 c 0,204,205
 7 512 7 512 6.5 537.5 c 128,-1,206
 6 563 6 563 6 577 c 0,207,208
 6 588 6 588 6 600 c 128,-1,209
 6 612 6 612 6.5 619 c 128,-1,210
 7 626 7 626 7 627 c 128,-1,211
 7 628 7 628 9 634 c 128,-1,212
 11 640 11 640 11.5 644 c 128,-1,213
 12 648 12 648 9 651 c 0,214,215
 5 653 5 653 10 663 c 0,216,217
 12 667 12 667 14 664 c 0,218,219
 20 658 20 658 19 669 c 0,220,221
 19 671 19 671 19 674 c 0,222,223
 18 682 18 682 20 682 c 128,-1,224
 22 682 22 682 22 680 c 128,-1,225
 22 678 22 678 23 678 c 128,-1,226
 24 678 24 678 24 680 c 0,227,228
 23 682 23 682 24.5 683 c 128,-1,229
 26 684 26 684 28 682 c 0,230,231
 29 681 29 681 32 685 c 128,-1,232
 35 689 35 689 35 691 c 0,233,234
 34 693 34 693 37 693 c 2,235,-1
 45 691 l 2,236,237
 53 686 53 686 54 691 c 0,238,239
 54 692 54 692 56.5 695.5 c 128,-1,240
 59 699 59 699 61 702 c 128,-1,241
 63 705 63 705 63 706 c 0,242,243
 63 710 63 710 75 708 c 0,0,1
EndSplineSet
EndChar

StartChar: n
Encoding: 78 78 35
AltUni2: 00006e.ffffffff.0 00006e.ffffffff.0
Width: 496
GlyphClass: 1
Flags: W
AnchorPoint: "vowel" 289 549 basechar 0
AnchorPoint: "final" 244 94 basechar 0
LayerCount: 2
Fore
SplineSet
185 639 m 0,0,1
 185 641 185 641 192 646 c 128,-1,2
 199 651 199 651 199 654 c 0,3,4
 199 656 199 656 201 658.5 c 128,-1,5
 203 661 203 661 205.5 661.5 c 128,-1,6
 208 662 208 662 209 660 c 0,7,8
 211 658 211 658 215 660.5 c 128,-1,9
 219 663 219 663 224 667 c 128,-1,10
 229 671 229 671 231 671 c 2,11,-1
 238 675 l 2,12,13
 239 676 239 676 255.5 681.5 c 128,-1,14
 272 687 272 687 276 688 c 2,15,-1
 282 688 l 2,16,17
 289 689 289 689 294 689 c 0,18,19
 317 689 317 689 331 683 c 0,20,21
 337 681 337 681 339 681 c 2,22,-1
 353 674 l 2,23,24
 358 672 358 672 379.5 661.5 c 128,-1,25
 401 651 401 651 402 650 c 0,26,27
 405 647 405 647 407 647 c 0,28,29
 410 647 410 647 423 632 c 0,30,31
 430 624 430 624 457 588 c 2,32,-1
 463 580 l 2,33,34
 463 579 463 579 466 573 c 128,-1,35
 469 567 469 567 469 555 c 0,36,37
 469 545 469 545 471 537 c 0,38,39
 472 528 472 528 475 478 c 128,-1,40
 478 428 478 428 481 412 c 0,41,42
 489 356 489 356 489 353 c 0,43,44
 495 302 495 302 495 293 c 0,45,46
 496 284 496 284 496 267 c 128,-1,47
 496 250 496 250 493.5 219.5 c 128,-1,48
 491 189 491 189 491 176 c 0,49,50
 491 170 491 170 492 160 c 2,51,-1
 492 150 l 2,52,53
 492 146 492 146 487 139 c 128,-1,54
 482 132 482 132 478 132 c 0,55,56
 475 132 475 132 475 130 c 0,57,58
 472 127 472 127 468.5 127 c 128,-1,59
 465 127 465 127 458 129 c 128,-1,60
 451 131 451 131 449 131 c 2,61,-1
 448 131 l 2,62,63
 440 131 440 131 439 178 c 0,64,65
 439 184 439 184 438 196 c 128,-1,66
 437 208 437 208 437 211 c 0,67,68
 437 213 437 213 438 227 c 128,-1,69
 439 241 439 241 439 248 c 0,70,71
 439 256 439 256 438 257 c 0,72,73
 436 259 436 259 436 279 c 0,74,75
 436 286 436 286 436 296 c 2,76,-1
 435 305 l 2,77,78
 435 306 435 306 434 311 c 128,-1,79
 433 316 433 316 433 319 c 128,-1,80
 433 322 433 322 431 331 c 128,-1,81
 429 340 429 340 431 342 c 0,82,83
 432 345 432 345 430.5 349.5 c 128,-1,84
 429 354 429 354 429 358 c 0,85,86
 425 375 425 375 425 387 c 0,87,88
 423 417 423 417 421 419 c 128,-1,89
 419 421 419 421 420 431 c 128,-1,90
 421 441 421 441 421 442 c 0,91,92
 418 446 418 446 418 493 c 0,93,94
 418 520 418 520 420 528 c 0,95,96
 421 530 421 530 416.5 535.5 c 128,-1,97
 412 541 412 541 412 542 c 0,98,99
 412 544 412 544 406 550.5 c 128,-1,100
 400 557 400 557 400 559 c 128,-1,101
 400 561 400 561 393 571 c 128,-1,102
 386 581 386 581 386 583 c 0,103,104
 386 584 386 584 373 597 c 0,105,106
 359 611 359 611 333 624 c 0,107,108
 313 634 313 634 299 634 c 0,109,110
 288 634 288 634 269.5 625.5 c 128,-1,111
 251 617 251 617 250 617 c 0,112,113
 245 615 245 615 236 608 c 0,114,115
 234 606 234 606 232 604 c 128,-1,116
 230 602 230 602 228 601 c 2,117,-1
 227 600 l 2,118,119
 225 600 225 600 219.5 591.5 c 128,-1,120
 214 583 214 583 207 570.5 c 128,-1,121
 200 558 200 558 197 554 c 0,122,123
 186 535 186 535 184 506 c 0,124,125
 184 500 184 500 182 490.5 c 128,-1,126
 180 481 180 481 180 473 c 0,127,128
 180 458 180 458 178 457 c 0,129,130
 176 455 176 455 176 452 c 0,131,132
 176 448 176 448 171.5 443.5 c 128,-1,133
 167 439 167 439 164 439 c 0,134,135
 160 439 160 439 160 437 c 1,136,-1
 156 437 l 2,137,138
 152 439 152 439 139 439 c 0,139,140
 134 439 134 439 131 446 c 0,141,142
 127 453 127 453 122 454 c 0,143,144
 116 455 116 455 115 459 c 0,145,146
 115 461 115 461 113.5 464.5 c 128,-1,147
 112 468 112 468 112 471 c 0,148,149
 112 477 112 477 109.5 484 c 128,-1,150
 107 491 107 491 102.5 499 c 128,-1,151
 98 507 98 507 96 511 c 0,152,153
 74 572 74 572 42 604 c 0,154,155
 39 607 39 607 34 614 c 128,-1,156
 29 621 29 621 25 625 c 2,157,-1
 17 636 l 2,158,159
 16 638 16 638 11.5 642 c 128,-1,160
 7 646 7 646 9 651 c 0,161,162
 11 652 11 652 9.5 656.5 c 128,-1,163
 8 661 8 661 8 664 c 0,164,165
 8 671 8 671 11 671 c 0,166,167
 13 671 13 671 20 677 c 128,-1,168
 27 683 27 683 27 685 c 0,169,170
 28 686 28 686 37 684 c 2,171,-1
 41 684 l 2,172,173
 56 684 56 684 75 660 c 0,174,175
 80 654 80 654 90 641.5 c 128,-1,176
 100 629 100 629 104 625 c 0,177,178
 120 606 120 606 121 605 c 0,179,180
 124 600 124 600 124 597 c 128,-1,181
 124 594 124 594 126 594 c 0,182,183
 127 594 127 594 132 585.5 c 128,-1,184
 137 577 137 577 139 577 c 0,185,186
 142 577 142 577 144.5 579.5 c 128,-1,187
 147 582 147 582 147 584 c 128,-1,188
 147 586 147 586 154.5 597 c 128,-1,189
 162 608 162 608 165 611 c 128,-1,190
 168 614 168 614 168 615 c 0,191,192
 168 620 168 620 182 634 c 0,193,194
 182 635 182 635 184 637 c 0,195,196
 185 638 185 638 185 639 c 0,0,1
EndSplineSet
EndChar

StartChar: o
Encoding: 79 79 36
AltUni2: 00006f.ffffffff.0 00006f.ffffffff.0
Width: 10
GlyphClass: 1
Flags: W
AnchorPoint: "diphthong" 4 241 basechar 0
AnchorPoint: "final" -1 71 basechar 0
AnchorPoint: "vowel" 5 343 mark 0
LayerCount: 2
Fore
SplineSet
-10 566 m 0,0,1
 -10 567 -10 567 -8 571 c 0,2,3
 -4 586 -4 586 -7 586 c 0,4,5
 -13 586 -13 586 -12 589 c 0,6,7
 -10 594 -10 594 -4 595 c 0,8,9
 4 596 4 596 6 601 c 0,10,11
 10 606 10 606 11 606 c 256,12,13
 12 606 12 606 14.5 605.5 c 128,-1,14
 17 605 17 605 18 605 c 0,15,16
 20 605 20 605 20 600 c 0,17,18
 20 594 20 594 25 593 c 0,19,20
 31 591 31 591 32.5 588.5 c 128,-1,21
 34 586 34 586 34 575 c 0,22,23
 34 569 34 569 33 559.5 c 128,-1,24
 32 550 32 550 32 547 c 0,25,26
 31 541 31 541 30 534 c 0,27,28
 28 526 28 526 28 445 c 0,29,30
 28 341 28 341 29 259 c 0,31,32
 29 203 29 203 24 141 c 0,33,34
 23 117 23 117 24 113 c 0,35,36
 27 103 27 103 15 103 c 0,37,38
 11 103 11 103 8 101 c 128,-1,39
 5 99 5 99 0 99 c 0,40,41
 -7 99 -7 99 -7 101 c 0,42,43
 -7 104 -7 104 -8 105 c 0,44,45
 -11 106 -11 106 -11 104.5 c 128,-1,46
 -11 103 -11 103 -10.5 100 c 128,-1,47
 -10 97 -10 97 -11 96 c 0,48,49
 -13 96 -13 96 -13 98 c 128,-1,50
 -13 100 -13 100 -16 100 c 0,51,52
 -18 100 -18 100 -20 104 c 0,53,54
 -23 108 -23 108 -23 151 c 2,55,-1
 -23 199 l 1,56,-1
 -23 263 l 2,57,58
 -24 281 -24 281 -24 341 c 2,59,-1
 -24 367 l 2,60,61
 -24 385 -24 385 -25 392 c 0,62,63
 -26 398 -26 398 -26 430 c 0,64,65
 -26 484 -26 484 -24 488 c 0,66,67
 -19 496 -19 496 -19 520 c 0,68,69
 -19 533 -19 533 -18 533 c 0,70,71
 -17 534 -17 534 -18.5 538.5 c 128,-1,72
 -20 543 -20 543 -17 544 c 0,73,74
 -14 546 -14 546 -14 553 c 0,75,76
 -14 557 -14 557 -12 560.5 c 128,-1,77
 -10 564 -10 564 -10 566 c 0,0,1
EndSplineSet
EndChar

StartChar: p
Encoding: 80 80 37
AltUni2: 000070.ffffffff.0 000070.ffffffff.0
Width: 523
GlyphClass: 1
Flags: W
AnchorPoint: "final" 306 122 basechar 0
AnchorPoint: "vowel" 268 532 basechar 0
LayerCount: 2
Fore
SplineSet
116 262 m 0,0,1
 114 268 114 268 95 260 c 0,2,3
 70 248 70 248 70 232 c 0,4,5
 70 229 70 229 69 229 c 128,-1,6
 68 229 68 229 68 227 c 128,-1,7
 68 225 68 225 68.5 219.5 c 128,-1,8
 69 214 69 214 70 205 c 0,9,10
 75 168 75 168 85 168 c 0,11,12
 94 168 94 168 101 184 c 2,13,-1
 104 190 l 2,14,15
 104 191 104 191 108 195 c 0,16,17
 117 204 117 204 117 248 c 0,18,19
 117 260 117 260 116 262 c 0,0,1
14 247 m 0,20,21
 14 248 14 248 19 256 c 128,-1,22
 24 264 24 264 24 265 c 0,23,24
 24 269 24 269 34.5 281.5 c 128,-1,25
 45 294 45 294 48 294 c 0,26,27
 50 294 50 294 52 296 c 0,28,29
 62 306 62 306 73 309 c 0,30,31
 88 313 88 313 94 319 c 128,-1,32
 100 325 100 325 108 325 c 0,33,34
 118 325 118 325 114 347 c 0,35,36
 113 350 113 350 111.5 366.5 c 128,-1,37
 110 383 110 383 108 388 c 0,38,39
 100 422 100 422 99 450 c 0,40,41
 98 481 98 481 93 502 c 0,42,43
 90 513 90 513 90 522 c 0,44,45
 87 552 87 552 78 578 c 2,46,-1
 76 584 l 2,47,48
 74 589 74 589 72.5 593.5 c 128,-1,49
 71 598 71 598 72 598 c 1,50,51
 60 630 60 630 59 633 c 0,52,53
 56 640 56 640 56 648 c 128,-1,54
 56 656 56 656 55 661 c 0,55,56
 48 678 48 678 52 680 c 0,57,58
 62 690 62 690 64 691 c 2,59,-1
 70 693 l 1,60,61
 77 686 77 686 83 686 c 0,62,63
 92 686 92 686 97 683 c 0,64,65
 105 679 105 679 107 679 c 2,66,-1
 111 677 l 2,67,68
 112 676 112 676 123.5 672 c 128,-1,69
 135 668 135 668 137 668 c 0,70,71
 149 664 149 664 157 664 c 0,72,73
 176 664 176 664 213 653 c 0,74,75
 225 648 225 648 229 648 c 128,-1,76
 233 648 233 648 235 646 c 2,77,-1
 238 645 l 2,78,79
 240 644 240 644 243.5 643.5 c 128,-1,80
 247 643 247 643 250 642 c 0,81,82
 292 630 292 630 327 625 c 0,83,84
 331 625 331 625 339.5 623 c 128,-1,85
 348 621 348 621 353 621 c 0,86,87
 362 621 362 621 366 619 c 0,88,89
 368 618 368 618 416 616 c 0,90,91
 494 613 494 613 501 609 c 0,92,93
 509 605 509 605 509 601 c 0,94,95
 509 599 509 599 511.5 595.5 c 128,-1,96
 514 592 514 592 515 590 c 0,97,98
 518 580 518 580 517 578 c 256,99,100
 516 576 516 576 514 574 c 0,101,102
 509 569 509 569 509 566 c 0,103,104
 509 564 509 564 501 564 c 0,105,106
 495 564 495 564 493 562 c 0,107,108
 491 557 491 557 470 560 c 0,109,110
 456 562 456 562 427 562 c 0,111,112
 369 564 369 564 353 567 c 0,113,114
 343 569 343 569 338 569 c 0,115,116
 332 569 332 569 327 571 c 128,-1,117
 322 573 322 573 315 574 c 0,118,119
 243 584 243 584 208 599 c 0,120,121
 204 601 204 601 202 601 c 2,122,-1
 190 605 l 2,123,124
 186 606 186 606 169.5 608.5 c 128,-1,125
 153 611 153 611 149 613 c 0,126,127
 143 615 143 615 135 615.5 c 128,-1,128
 127 616 127 616 127 614 c 0,129,130
 126 612 126 612 126 608.5 c 128,-1,131
 126 605 126 605 128 604 c 0,132,133
 129 604 129 604 129 600 c 128,-1,134
 129 596 129 596 131 594 c 0,135,136
 137 590 137 590 137 573 c 0,137,138
 137 572 137 572 142 545 c 0,139,140
 146 525 146 525 151 513 c 0,141,142
 154 506 154 506 156 463 c 0,143,144
 156 453 156 453 161 408 c 0,145,146
 161 404 161 404 163 398 c 0,147,148
 168 386 168 386 171 350 c 0,149,150
 172 344 172 344 174.5 334 c 128,-1,151
 177 324 177 324 177 318 c 2,152,-1
 177 293 l 1,153,-1
 177 264 l 2,154,155
 177 255 177 255 176 245.5 c 128,-1,156
 175 236 175 236 175 224 c 0,157,158
 175 216 175 216 174 211 c 128,-1,159
 173 206 173 206 172 201 c 128,-1,160
 171 196 171 196 170 191 c 0,161,162
 169 188 169 188 166.5 181.5 c 128,-1,163
 164 175 164 175 164 172 c 0,164,165
 164 171 164 171 161 164.5 c 128,-1,166
 158 158 158 158 158 157 c 0,167,168
 158 150 158 150 143.5 135.5 c 128,-1,169
 129 121 129 121 125 121 c 0,170,171
 123 121 123 121 121 119 c 0,172,173
 119 115 119 115 110.5 112.5 c 128,-1,174
 102 110 102 110 91 108 c 128,-1,175
 80 106 80 106 76 105 c 0,176,177
 66 103 66 103 53 111 c 0,178,179
 30 125 30 125 30 132 c 0,180,181
 21 153 21 153 21 154 c 0,182,183
 7 196 7 196 7 218 c 0,184,185
 7 231 7 231 11 239 c 0,186,187
 14 243 14 243 14 247 c 0,20,21
EndSplineSet
EndChar

StartChar: q
Encoding: 81 81 38
AltUni2: 000071.ffffffff.0 000071.ffffffff.0
Width: 10
GlyphClass: 1
Flags: W
AnchorPoint: "final" -1.5 124.5 mark 0
LayerCount: 2
Fore
SplineSet
101.5 155.5 m 0,0,1
 106.5 155.5 106.5 155.5 118.5 154.5 c 128,-1,2
 130.5 153.5 130.5 153.5 132.5 153.5 c 2,3,-1
 135.5 154.5 l 2,4,5
 135.5 155.5 135.5 155.5 137.5 159.5 c 0,6,7
 139.5 162.5 139.5 162.5 178.5 162.5 c 2,8,-1
 220.5 162.5 l 1,9,-1
 224.5 128.5 l 2,10,11
 223.5 127.5 223.5 127.5 223.5 124.5 c 0,12,13
 223.5 123.5 223.5 123.5 217 115.5 c 128,-1,14
 210.5 107.5 210.5 107.5 208.5 105.5 c 0,15,16
 204.5 102.5 204.5 102.5 165.5 98.5 c 0,17,18
 148.5 96.5 148.5 96.5 146.5 94.5 c 0,19,20
 141.5 89.5 141.5 89.5 126.5 89.5 c 2,21,-1
 100.5 89.5 l 1,22,23
 -0.5 94.5 -0.5 94.5 -82.5 95.5 c 2,24,-1
 -120.5 95.5 l 2,25,26
 -132.5 95.5 -132.5 95.5 -144 96 c 128,-1,27
 -155.5 96.5 -155.5 96.5 -158.5 96.5 c 0,28,29
 -171.5 96.5 -171.5 96.5 -183.5 93.5 c 0,30,31
 -186.5 93.5 -186.5 93.5 -187.5 95.5 c 0,32,33
 -187.5 98.5 -187.5 98.5 -195.5 102.5 c 0,34,35
 -203.5 107.5 -203.5 107.5 -203.5 112.5 c 0,36,37
 -203.5 116.5 -203.5 116.5 -204 117.5 c 128,-1,38
 -204.5 118.5 -204.5 118.5 -208.5 118.5 c 0,39,40
 -216.5 118.5 -216.5 118.5 -210.5 123.5 c 2,41,-1
 -207.5 124.5 l 2,42,43
 -202.5 126.5 -202.5 126.5 -203.5 130.5 c 0,44,45
 -204.5 135.5 -204.5 135.5 -199 145.5 c 128,-1,46
 -193.5 155.5 -193.5 155.5 -187.5 152.5 c 0,47,48
 -179.5 149.5 -179.5 149.5 -169.5 154.5 c 0,49,50
 -166.5 156.5 -166.5 156.5 -64.5 157.5 c 0,51,52
 -49.5 157.5 -49.5 157.5 -33.5 157.5 c 128,-1,53
 -17.5 157.5 -17.5 157.5 -5 158 c 128,-1,54
 7.5 158.5 7.5 158.5 17 159 c 128,-1,55
 26.5 159.5 26.5 159.5 32.5 159.5 c 2,56,-1
 37.5 159.5 l 2,57,58
 43.5 159.5 43.5 159.5 67.5 157.5 c 128,-1,59
 91.5 155.5 91.5 155.5 101.5 155.5 c 0,0,1
EndSplineSet
EndChar

StartChar: r
Encoding: 82 82 39
AltUni2: 000072.ffffffff.0 000072.ffffffff.0
Width: 585
GlyphClass: 1
Flags: W
AnchorPoint: "final" 256 70 basechar 0
AnchorPoint: "vowel" 137 370 basechar 0
LayerCount: 2
Fore
SplineSet
175 504 m 0,0,1
 175 505 175 505 173.5 506.5 c 128,-1,2
 172 508 172 508 171 507 c 128,-1,3
 170 506 170 506 171 504 c 128,-1,4
 172 502 172 502 173 502 c 0,5,6
 175 502 175 502 175 504 c 0,0,1
75 574 m 0,7,8
 75 570 75 570 73.5 565.5 c 128,-1,9
 72 561 72 561 72 555 c 2,10,-1
 72 545 l 1,11,-1
 77 545 l 2,12,13
 78 545 78 545 83.5 545.5 c 128,-1,14
 89 546 89 546 92 546 c 0,15,16
 101 547 101 547 110 544 c 0,17,18
 117 542 117 542 137 542 c 0,19,20
 162 543 162 543 172 547 c 128,-1,21
 182 551 182 551 186 563 c 0,22,23
 191 577 191 577 191 590 c 0,24,25
 191 615 191 615 172 622 c 0,26,27
 164 624 164 624 137 624 c 0,28,29
 121 624 121 624 119 623 c 0,30,31
 104 618 104 618 93 609 c 0,32,33
 81 599 81 599 78 593.5 c 128,-1,34
 75 588 75 588 75 574 c 0,7,8
99 682 m 0,35,36
 101 682 101 682 105.5 684.5 c 128,-1,37
 110 687 110 687 112 687 c 2,38,-1
 118 687 l 2,39,40
 158 687 158 687 198 677 c 0,41,42
 215 673 215 673 239 653 c 0,43,44
 247 646 247 646 249 643 c 0,45,46
 254 631 254 631 254 608 c 0,47,48
 254 583 254 583 245 547 c 0,49,50
 243 538 243 538 231 523.5 c 128,-1,51
 219 509 219 509 215 509 c 0,52,53
 213 509 213 509 208.5 505.5 c 128,-1,54
 204 502 204 502 201 502 c 0,55,56
 185 500 185 500 183 493 c 0,57,58
 182 491 182 491 187 486 c 128,-1,59
 192 481 192 481 194 481 c 0,60,61
 195 481 195 481 197.5 478.5 c 128,-1,62
 200 476 200 476 201 476 c 128,-1,63
 202 476 202 476 206.5 472.5 c 128,-1,64
 211 469 211 469 213 469 c 0,65,66
 216 469 216 469 216 468 c 0,67,68
 233 455 233 455 234 455 c 0,69,70
 236 455 236 455 238.5 452 c 128,-1,71
 241 449 241 449 242 449 c 128,-1,72
 243 449 243 449 250 444.5 c 128,-1,73
 257 440 257 440 257 439 c 2,74,-1
 263 435 l 1,75,-1
 275 427 l 2,76,77
 281 423 281 423 282 423 c 128,-1,78
 283 423 283 423 293 415 c 0,79,80
 299 410 299 410 328 388 c 0,81,82
 332 386 332 386 352 366 c 0,83,84
 353 365 353 365 359 361 c 128,-1,85
 365 357 365 357 369 353 c 128,-1,86
 373 349 373 349 373 347 c 2,87,-1
 376 344 l 2,88,89
 380 343 380 343 386 337.5 c 128,-1,90
 392 332 392 332 399 325 c 128,-1,91
 406 318 406 318 410 315 c 0,92,93
 420 307 420 307 424 303 c 0,94,95
 435 292 435 292 462 271.5 c 128,-1,96
 489 251 489 251 500 240 c 0,97,98
 504 236 504 236 511.5 226 c 128,-1,99
 519 216 519 216 524 211 c 2,100,-1
 544 191 l 2,101,102
 557 178 557 178 558 178 c 0,103,104
 560 178 560 178 564 172.5 c 128,-1,105
 568 167 568 167 569 167 c 0,106,107
 572 167 572 167 576 155.5 c 128,-1,108
 580 144 580 144 578 142 c 2,109,-1
 573 135 l 2,110,111
 568 124 568 124 562 123 c 0,112,113
 561 123 561 123 559 122.5 c 128,-1,114
 557 122 557 122 556 121 c 128,-1,115
 555 120 555 120 546.5 115.5 c 128,-1,116
 538 111 538 111 536 111 c 0,117,118
 522 111 522 111 496 139 c 0,119,120
 471 168 471 168 448 191 c 0,121,122
 447 192 447 192 445 194 c 0,123,124
 443 197 443 197 442 197 c 0,125,126
 440 197 440 197 430 207 c 0,127,128
 421 216 421 216 411 224 c 0,129,130
 406 228 406 228 388 245 c 128,-1,131
 370 262 370 262 362 268 c 0,132,133
 347 280 347 280 339 288 c 0,134,135
 325 302 325 302 323 303 c 0,136,137
 322 303 322 303 314.5 311 c 128,-1,138
 307 319 307 319 305 319 c 128,-1,139
 303 319 303 319 298.5 324.5 c 128,-1,140
 294 330 294 330 293 330 c 2,141,-1
 291 332 l 2,142,143
 289 334 289 334 287.5 336 c 128,-1,144
 286 338 286 338 284 340 c 2,145,-1
 282 341 l 2,146,147
 281 341 281 341 277 345 c 0,148,149
 275 348 275 348 261.5 356.5 c 128,-1,150
 248 365 248 365 244 370 c 0,151,152
 231 383 231 383 228 383 c 0,153,154
 227 383 227 383 217.5 390 c 128,-1,155
 208 397 208 397 207 397 c 0,156,157
 205 397 205 397 201 401 c 0,158,159
 188 414 188 414 187 414 c 0,160,161
 182 417 182 417 179 419 c 0,162,163
 160 433 160 433 149 433 c 0,164,165
 145 433 145 433 145 435 c 0,166,167
 144 436 144 436 136.5 439.5 c 128,-1,168
 129 443 129 443 127 443 c 0,169,170
 126 443 126 443 119.5 449 c 128,-1,171
 113 455 113 455 112 455 c 0,172,173
 110 455 110 455 110 456 c 0,174,175
 110 458 110 458 107 458 c 0,176,177
 105 458 105 458 99.5 463 c 128,-1,178
 94 468 94 468 94 470 c 128,-1,179
 94 472 94 472 92 472 c 2,180,181
 92 472 92 472 89 474 c 0,182,183
 75 483 75 483 75 478 c 0,184,185
 75 476 75 476 76.5 465.5 c 128,-1,186
 78 455 78 455 77 447 c 0,187,188
 77 445 77 445 76.5 441.5 c 128,-1,189
 76 438 76 438 76 437 c 0,190,191
 76 432 76 432 77 423 c 128,-1,192
 78 414 78 414 78 410 c 0,193,194
 78 403 78 403 77 399 c 0,195,196
 75 371 75 371 75 323 c 0,197,198
 75 304 75 304 76.5 286.5 c 128,-1,199
 78 269 78 269 78 257 c 2,200,-1
 78 250 l 2,201,202
 78 192 78 192 85 153 c 0,203,204
 85 152 85 152 85.5 145 c 128,-1,205
 86 138 86 138 86 133 c 2,206,-1
 86 126 l 2,207,208
 86 113 86 113 83 108.5 c 128,-1,209
 80 104 80 104 71 104 c 0,210,211
 67 104 67 104 65.5 100.5 c 128,-1,212
 64 97 64 97 56 102 c 0,213,214
 47 108 47 108 47 101 c 0,215,216
 47 99 47 99 45 99 c 0,217,218
 44 99 44 99 44 101 c 0,219,220
 46 106 46 106 40 110 c 0,221,222
 34 116 34 116 34 128 c 0,223,224
 34 132 34 132 31 133 c 0,225,226
 29 135 29 135 27.5 151.5 c 128,-1,227
 26 168 26 168 25 170 c 0,228,229
 18 200 18 200 18 227 c 0,230,231
 18 230 18 230 17.5 234.5 c 128,-1,232
 17 239 17 239 16 245.5 c 128,-1,233
 15 252 15 252 15 256 c 0,234,235
 13 276 13 276 13 308 c 0,236,237
 13 365 13 365 16 402 c 0,238,239
 17 410 17 410 17 424 c 0,240,241
 17 431 17 431 15 455 c 0,242,243
 10 502 10 502 10 508 c 128,-1,244
 10 514 10 514 11 515 c 0,245,246
 12 518 12 518 11 521 c 0,247,248
 9 527 9 527 9 535 c 0,249,250
 9 538 9 538 13 578 c 0,251,252
 17 616 17 616 32 638 c 0,253,254
 41 651 41 651 68 666 c 0,255,256
 93 682 93 682 99 682 c 0,35,36
EndSplineSet
EndChar

StartChar: s
Encoding: 83 83 40
AltUni2: 000073.ffffffff.0 000073.ffffffff.0
Width: 664
GlyphClass: 1
Flags: W
AnchorPoint: "final" 327 133 basechar 0
AnchorPoint: "vowel" 337 475 basechar 0
LayerCount: 2
Fore
SplineSet
23 167 m 128,-1,1
 23 168 23 168 26 172 c 128,-1,2
 29 176 29 176 29 177 c 0,3,4
 29 179 29 179 30 181 c 128,-1,5
 31 183 31 183 32.5 186 c 128,-1,6
 34 189 34 189 35 191 c 0,7,8
 36 194 36 194 40 201 c 128,-1,9
 44 208 44 208 45 212 c 128,-1,10
 46 216 46 216 54.5 229 c 128,-1,11
 63 242 63 242 64 245 c 128,-1,12
 65 248 65 248 66 250 c 128,-1,13
 67 252 67 252 68.5 254.5 c 128,-1,14
 70 257 70 257 72 260 c 0,15,16
 75 266 75 266 79 271 c 128,-1,17
 83 276 83 276 85 280 c 2,18,-1
 91 290 l 2,19,20
 92 290 92 290 96 296.5 c 128,-1,21
 100 303 100 303 104 310 c 2,22,-1
 108 318 l 2,23,24
 110 320 110 320 118 334 c 128,-1,25
 126 348 126 348 129 352 c 0,26,27
 135 360 135 360 135 364 c 0,28,29
 137 368 137 368 142 375.5 c 128,-1,30
 147 383 147 383 150 390 c 0,31,32
 154 399 154 399 155 399 c 0,33,34
 157 401 157 401 157 402 c 128,-1,35
 157 403 157 403 164 417 c 0,36,37
 167 423 167 423 174 436 c 128,-1,38
 181 449 181 449 183 454 c 0,39,40
 184 456 184 456 189 463.5 c 128,-1,41
 194 471 194 471 194 474 c 0,42,43
 194 479 194 479 205 496 c 0,44,45
 212 505 212 505 231 550 c 0,46,47
 231 551 231 551 235 558 c 128,-1,48
 239 565 239 565 239 568 c 0,49,50
 239 572 239 572 252 596 c 0,51,52
 259 608 259 608 259 611 c 128,-1,53
 259 614 259 614 262 615 c 2,54,-1
 269 629 l 2,55,56
 270 631 270 631 274.5 640 c 128,-1,57
 279 649 279 649 282 653 c 0,58,59
 284 655 284 655 286 660 c 2,60,-1
 287 665 l 2,61,62
 287 676 287 676 296 685 c 0,63,64
 298 687 298 687 298 689 c 128,-1,65
 298 691 298 691 309 702 c 0,66,67
 321 714 321 714 324 713 c 0,68,69
 326 712 326 712 330 713.5 c 128,-1,70
 334 715 334 715 335 713 c 0,71,72
 336 712 336 712 342 708.5 c 128,-1,73
 348 705 348 705 350 703 c 0,74,75
 353 700 353 700 360 698 c 0,76,77
 369 695 369 695 370 686 c 0,78,79
 370 683 370 683 374.5 678 c 128,-1,80
 379 673 379 673 384.5 667 c 128,-1,81
 390 661 390 661 391 660 c 0,82,83
 393 654 393 654 402 636.5 c 128,-1,84
 411 619 411 619 415 610 c 0,85,86
 429 579 429 579 432 571 c 0,87,88
 439 556 439 556 441 552 c 0,89,90
 445 546 445 546 445 545 c 0,91,92
 445 543 445 543 446 542 c 0,93,94
 455 533 455 533 473 488 c 0,95,96
 483 464 483 464 495 442 c 0,97,98
 504 428 504 428 504 426 c 0,99,100
 504 425 504 425 507 421 c 128,-1,101
 510 417 510 417 511 414 c 0,102,103
 515 408 515 408 523 391 c 0,104,105
 534 369 534 369 544 355 c 0,106,107
 553 342 553 342 561 329 c 0,108,109
 566 323 566 323 569 314 c 0,110,111
 576 293 576 293 589 277 c 0,112,113
 594 269 594 269 601.5 255 c 128,-1,114
 609 241 609 241 611 238 c 0,115,116
 616 230 616 230 625 210.5 c 128,-1,117
 634 191 634 191 637 186 c 0,118,119
 652 156 652 156 652 142 c 2,120,-1
 653 135 l 1,121,-1
 648 135 l 2,122,123
 643 135 643 135 642 133 c 128,-1,124
 641 131 641 131 637.5 131 c 128,-1,125
 634 131 634 131 632 130 c 0,126,127
 629 128 629 128 624 129 c 0,128,129
 612 133 612 133 600 157 c 0,130,131
 596 167 596 167 592.5 174 c 128,-1,132
 589 181 589 181 583.5 190 c 128,-1,133
 578 199 578 199 573 208 c 0,134,135
 562 230 562 230 560 232 c 128,-1,136
 558 234 558 234 558 236 c 0,137,138
 558 239 558 239 547 254 c 2,139,-1
 536 270 l 2,140,141
 534 274 534 274 530 280 c 128,-1,142
 526 286 526 286 523 291 c 0,143,144
 513 316 513 316 499 335 c 0,145,146
 482 360 482 360 470 387 c 0,147,148
 461 407 461 407 455 413 c 2,149,-1
 450 419 l 2,150,151
 450 422 450 422 426 472 c 0,152,153
 417 490 417 490 417 492 c 128,-1,154
 417 494 417 494 415 497.5 c 128,-1,155
 413 501 413 501 413 504 c 128,-1,156
 413 507 413 507 409.5 512.5 c 128,-1,157
 406 518 406 518 406 520 c 0,158,159
 406 521 406 521 400 529 c 128,-1,160
 394 537 394 537 394 538 c 0,161,162
 394 542 394 542 393 542 c 0,163,164
 391 542 391 542 391 545 c 0,165,166
 391 546 391 546 385 559.5 c 128,-1,167
 379 573 379 573 379 574 c 0,168,169
 379 577 379 577 371.5 593 c 128,-1,170
 364 609 364 609 362 611 c 128,-1,171
 360 613 360 613 360 615 c 256,172,173
 360 617 360 617 362 616.5 c 128,-1,174
 364 616 364 616 364 613 c 128,-1,175
 364 610 364 610 367 610 c 0,176,177
 369 611 369 611 366 618 c 0,178,179
 366 620 366 620 364 623 c 128,-1,180
 362 626 362 626 362 628 c 128,-1,181
 362 630 362 630 354 652 c 0,182,183
 352 655 352 655 352 655 c 129,-1,184
 352 655 352 655 350 653 c 0,185,186
 347 650 347 650 348 646 c 0,187,188
 349 643 349 643 348 642 c 128,-1,189
 347 641 347 641 345 642 c 0,190,191
 342 643 342 643 339.5 640 c 128,-1,192
 337 637 337 637 334.5 632.5 c 128,-1,193
 332 628 332 628 331 627 c 0,194,195
 328 624 328 624 328 621 c 0,196,197
 328 617 328 617 316 595 c 128,-1,198
 304 573 304 573 298 567 c 0,199,200
 296 565 296 565 292 556.5 c 128,-1,201
 288 548 288 548 289 547 c 0,202,203
 291 545 291 545 280 522 c 128,-1,204
 269 499 269 499 268 498 c 0,205,206
 266 496 266 496 266 493 c 0,207,208
 266 492 266 492 259 478 c 0,209,210
 251 464 251 464 247 455 c 0,211,212
 243 445 243 445 240 442 c 0,213,214
 235 437 235 437 235 434 c 0,215,216
 230 426 230 426 230 424 c 128,-1,217
 230 422 230 422 227 418 c 128,-1,218
 224 414 224 414 223 412 c 0,219,220
 222 411 222 411 219 405 c 128,-1,221
 216 399 216 399 216 397 c 0,222,223
 216 396 216 396 212.5 390 c 128,-1,224
 209 384 209 384 209 383 c 128,-1,225
 209 382 209 382 206 376 c 128,-1,226
 203 370 203 370 203 369 c 128,-1,227
 203 368 203 368 201 366 c 0,228,229
 199 366 199 366 199 363 c 2,230,-1
 193 355 l 2,231,232
 191 352 191 352 188 346 c 128,-1,233
 185 340 185 340 182 337 c 2,234,-1
 179 331 l 2,235,236
 179 327 179 327 170 315.5 c 128,-1,237
 161 304 161 304 161 302 c 2,238,-1
 147 279 l 2,239,240
 140 269 140 269 133 256 c 0,241,242
 123 234 123 234 118 229 c 0,243,244
 115 226 115 226 115 224 c 0,245,246
 115 223 115 223 113 219 c 0,247,248
 110 216 110 216 97 190 c 0,249,250
 94 185 94 185 92 180.5 c 128,-1,251
 90 176 90 176 88 171 c 0,252,253
 70 133 70 133 56 121 c 0,254,255
 52 118 52 118 45.5 118 c 128,-1,256
 39 118 39 118 38 121 c 0,257,258
 37 123 37 123 34 123 c 128,-1,259
 31 123 31 123 29 124 c 0,260,261
 26 127 26 127 24 127 c 128,-1,262
 22 127 22 127 22 129 c 0,263,264
 22 132 22 132 23 132 c 0,265,266
 25 132 25 132 25 137 c 0,267,268
 25 141 25 141 29 141 c 0,269,270
 37 141 37 141 31 147 c 0,271,272
 29 148 29 148 25.5 145.5 c 128,-1,273
 22 143 22 143 20 143 c 0,274,275
 16 143 16 143 17 149 c 0,276,277
 17 151 17 151 17.5 154.5 c 128,-1,278
 18 158 18 158 18 159 c 0,279,280
 18 161 18 161 20.5 163.5 c 128,-1,0
 23 166 23 166 23 167 c 128,-1,1
EndSplineSet
EndChar

StartChar: t
Encoding: 84 84 41
AltUni2: 000074.ffffffff.0 000074.ffffffff.0
Width: 588
GlyphClass: 1
Flags: W
AnchorPoint: "final" 253 60 basechar 0
AnchorPoint: "vowel" 349 566 basechar 0
LayerCount: 2
Fore
SplineSet
303 707 m 0,0,1
 312 707 312 707 328.5 710.5 c 128,-1,2
 345 714 345 714 352 714 c 0,3,4
 357 714 357 714 361 716 c 0,5,6
 363 717 363 717 369 717 c 0,7,8
 376 717 376 717 392.5 715 c 128,-1,9
 409 713 409 713 413 713 c 0,10,11
 436 713 436 713 462 707 c 0,12,13
 481 702 481 702 515 677 c 0,14,15
 522 672 522 672 533.5 656.5 c 128,-1,16
 545 641 545 641 547 635 c 0,17,18
 547 634 547 634 548.5 629.5 c 128,-1,19
 550 625 550 625 551 623 c 0,20,21
 554 618 554 618 558.5 603.5 c 128,-1,22
 563 589 563 589 564 587 c 0,23,24
 570 572 570 572 572 552 c 0,25,26
 573 546 573 546 569 529 c 0,27,28
 566 515 566 515 554 491 c 0,29,30
 548 477 548 477 548 476 c 2,31,-1
 542 468 l 1,32,-1
 537 460 l 2,33,34
 537 459 537 459 529.5 448 c 128,-1,35
 522 437 522 437 520 435 c 2,36,-1
 509 424 l 2,37,38
 493 410 493 410 479 410 c 0,39,40
 473 410 473 410 463 414 c 0,41,42
 458 419 458 419 455 424 c 0,43,44
 451 432 451 432 451 440 c 0,45,46
 452 447 452 447 462 458 c 0,47,48
 467 463 467 463 467 465 c 128,-1,49
 467 467 467 467 477.5 479.5 c 128,-1,50
 488 492 488 492 488 493 c 0,51,52
 489 496 489 496 491.5 501 c 128,-1,53
 494 506 494 506 495 508 c 0,54,55
 502 521 502 521 502 551 c 0,56,57
 502 555 502 555 502 560 c 128,-1,58
 502 565 502 565 502 568 c 2,59,-1
 501 572 l 2,60,61
 500 577 500 577 494 591.5 c 128,-1,62
 488 606 488 606 487 611 c 0,63,64
 480 641 480 641 439 656 c 0,65,66
 421 662 421 662 409 662 c 2,67,-1
 408 662 l 1,68,-1
 405 662 l 2,69,70
 402 663 402 663 396 663.5 c 128,-1,71
 390 664 390 664 385 664 c 0,72,73
 361 666 361 666 360 666 c 0,74,75
 349 666 349 666 334 661 c 0,76,77
 319 658 319 658 312 658 c 0,78,79
 270 656 270 656 247 646 c 0,80,81
 243 644 243 644 241 644 c 0,82,83
 238 644 238 644 232 641 c 0,84,85
 162 606 162 606 161 605 c 0,86,87
 157 601 157 601 155 601 c 0,88,89
 152 601 152 601 149 598 c 0,90,91
 123 572 123 572 121 569 c 0,92,93
 117 563 117 563 110 556 c 0,94,95
 106 552 106 552 103 552 c 0,96,97
 102 552 102 552 96.5 550 c 128,-1,98
 91 548 91 548 89 549 c 128,-1,99
 87 550 87 550 81 550 c 0,100,101
 78 549 78 549 73.5 551 c 128,-1,102
 69 553 69 553 68 555 c 0,103,104
 68 562 68 562 66 563 c 0,105,106
 63 564 63 564 64 573 c 0,107,108
 66 590 66 590 73 594 c 0,109,110
 79 597 79 597 80 601 c 0,111,112
 82 605 82 605 93.5 616.5 c 128,-1,113
 105 628 105 628 109 630 c 0,114,115
 111 631 111 631 119 636.5 c 128,-1,116
 127 642 127 642 133.5 646 c 128,-1,117
 140 650 140 650 142 650 c 128,-1,118
 144 650 144 650 148 654 c 128,-1,119
 152 658 152 658 200 682 c 0,120,121
 204 686 204 686 218.5 690 c 128,-1,122
 233 694 233 694 249.5 697.5 c 128,-1,123
 266 701 266 701 270 702 c 0,124,125
 287 707 287 707 303 707 c 0,0,1
178 584 m 0,126,127
 179 584 179 584 184.5 587 c 128,-1,128
 190 590 190 590 192 590 c 0,129,130
 196 591 196 591 203 596 c 128,-1,131
 210 601 210 601 212 604 c 0,132,133
 213 608 213 608 229 610 c 0,134,135
 256 612 256 612 256 604 c 0,136,137
 256 602 256 602 260 600 c 0,138,139
 267 596 267 596 267 585 c 0,140,141
 267 571 267 571 258 571 c 0,142,143
 255 571 255 571 255 569 c 128,-1,144
 255 567 255 567 239 562 c 0,145,146
 230 560 230 560 205 541.5 c 128,-1,147
 180 523 180 523 180 519 c 0,148,149
 180 517 180 517 173 512 c 0,150,151
 167 507 167 507 150 483 c 0,152,153
 149 482 149 482 147.5 480 c 128,-1,154
 146 478 146 478 145 476.5 c 128,-1,155
 144 475 144 475 142.5 473.5 c 128,-1,156
 141 472 141 472 140 470.5 c 128,-1,157
 139 469 139 469 138 468 c 0,158,159
 133 463 133 463 133 460 c 0,160,161
 133 458 133 458 130 456 c 128,-1,162
 127 454 127 454 127 453 c 2,163,-1
 126 451 l 2,164,165
 125 449 125 449 123 446.5 c 128,-1,166
 121 444 121 444 120 442 c 0,167,168
 114 432 114 432 103 410 c 0,169,170
 102 407 102 407 100.5 404 c 128,-1,171
 99 401 99 401 97.5 398.5 c 128,-1,172
 96 396 96 396 95 393.5 c 128,-1,173
 94 391 94 391 93 389.5 c 128,-1,174
 92 388 92 388 92 386 c 2,175,-1
 91 385 l 2,176,177
 89 383 89 383 89 381 c 0,178,179
 89 377 89 377 79 357 c 0,180,181
 66 334 66 334 66 319 c 0,182,183
 66 301 66 301 74 281 c 0,184,185
 74 276 74 276 77 276 c 0,186,187
 79 276 79 276 87 260 c 0,188,189
 99 234 99 234 127 215 c 0,190,191
 160 192 160 192 170 192 c 0,192,193
 171 192 171 192 181 188 c 0,194,195
 198 182 198 182 210 184 c 0,196,197
 212 184 212 184 225.5 185 c 128,-1,198
 239 186 239 186 246 186 c 0,199,200
 274 186 274 186 301 190 c 0,201,202
 360 201 360 201 379 201 c 0,203,204
 390 201 390 201 391 198 c 2,205,-1
 395 192 l 2,206,207
 399 185 399 185 399 183 c 0,208,209
 399 179 399 179 400 178 c 0,210,211
 403 174 403 174 400 166 c 128,-1,212
 397 158 397 158 392 156 c 0,213,214
 388 155 388 155 381.5 151 c 128,-1,215
 375 147 375 147 375 146 c 0,216,217
 375 144 375 144 354.5 137.5 c 128,-1,218
 334 131 334 131 330 131 c 128,-1,219
 326 131 326 131 325 130 c 0,220,221
 320 125 320 125 273 125 c 0,222,223
 258 125 258 125 249 123.5 c 128,-1,224
 240 122 240 122 227 122 c 0,225,226
 192 122 192 122 152 140 c 0,227,228
 151 141 151 141 130.5 151 c 128,-1,229
 110 161 110 161 102 169 c 0,230,231
 99 172 99 172 98 172 c 0,232,233
 92 172 92 172 77 189 c 128,-1,234
 62 206 62 206 39 242 c 0,235,236
 37 246 37 246 30.5 254 c 128,-1,237
 24 262 24 262 22 267 c 0,238,239
 22 268 22 268 21 270 c 128,-1,240
 20 272 20 272 18.5 275 c 128,-1,241
 17 278 17 278 16 279 c 0,242,243
 9 292 9 292 9 314 c 0,244,245
 9 345 9 345 19 363 c 0,246,247
 26 384 26 384 30 386 c 0,248,249
 32 386 32 386 32 390 c 0,250,251
 32 392 32 392 35.5 398.5 c 128,-1,252
 39 405 39 405 39 406 c 128,-1,253
 39 407 39 407 46 423 c 0,254,255
 52 435 52 435 57 446 c 128,-1,256
 62 457 62 457 65 463 c 0,257,258
 86 495 86 495 89 496 c 0,259,260
 92 498 92 498 91 499 c 0,261,262
 91 500 91 500 94 502 c 128,-1,263
 97 504 97 504 97 506 c 128,-1,264
 97 508 97 508 99.5 511.5 c 128,-1,265
 102 515 102 515 105 518.5 c 128,-1,266
 108 522 108 522 109 523 c 0,267,268
 110 526 110 526 121 537 c 0,269,270
 124 540 124 540 132 549.5 c 128,-1,271
 140 559 140 559 146 563 c 0,272,273
 147 564 147 564 149.5 566.5 c 128,-1,274
 152 569 152 569 154 570.5 c 128,-1,275
 156 572 156 572 157 572 c 0,276,277
 160 572 160 572 167 575.5 c 128,-1,278
 174 579 174 579 175 581 c 0,279,280
 175 584 175 584 178 584 c 0,126,127
EndSplineSet
EndChar

StartChar: u
Encoding: 85 85 42
AltUni2: 000075.ffffffff.0 000075.ffffffff.0
Width: 27
GlyphClass: 1
Flags: W
AnchorPoint: "diphthong" 10 358 basechar 0
AnchorPoint: "final" -1 233 basechar 0
AnchorPoint: "vowel" 12 417 mark 0
LayerCount: 2
Fore
SplineSet
4 453 m 0,0,1
 14 453 14 453 26 454 c 128,-1,2
 38 455 38 455 43 455 c 0,3,4
 44 455 44 455 57.5 454.5 c 128,-1,5
 71 454 71 454 95 453.5 c 128,-1,6
 119 453 119 453 134 453 c 0,7,8
 143 453 143 453 157 452 c 128,-1,9
 171 451 171 451 172 451 c 0,10,11
 177 450 177 450 196 450 c 0,12,13
 204 450 204 450 207.5 449.5 c 128,-1,14
 211 449 211 449 211.5 448 c 128,-1,15
 212 447 212 447 214 445 c 128,-1,16
 216 443 216 443 219 441 c 0,17,18
 233 431 233 431 233 417 c 0,19,20
 233 412 233 412 232 409 c 0,21,22
 230 403 230 403 227.5 399.5 c 128,-1,23
 225 396 225 396 220 392 c 128,-1,24
 215 388 215 388 213 386 c 128,-1,25
 211 384 211 384 201 384 c 0,26,27
 197 384 197 384 190 384.5 c 128,-1,28
 183 385 183 385 170.5 385.5 c 128,-1,29
 158 386 158 386 147 386 c 0,30,31
 83 388 83 388 19 388 c 0,32,33
 -27 388 -27 388 -35 387 c 0,34,35
 -51 385 -51 385 -87 385 c 0,36,37
 -113 385 -113 385 -149.5 382 c 128,-1,38
 -186 379 -186 379 -210 379 c 2,39,-1
 -220 379 l 1,40,-1
 -220 385 l 2,41,42
 -220 387 -220 387 -219 391 c 128,-1,43
 -218 395 -218 395 -218.5 397 c 128,-1,44
 -219 399 -219 399 -221 399 c 128,-1,45
 -223 399 -223 399 -223 400 c 256,46,47
 -223 401 -223 401 -221 401 c 0,48,49
 -214 401 -214 401 -221 408 c 256,50,51
 -228 415 -228 415 -223 415 c 0,52,53
 -222 415 -222 415 -221 415 c 0,54,55
 -214 415 -214 415 -210 418 c 1,56,57
 -216 424 -216 424 -216 425 c 0,58,59
 -216 428 -216 428 -207 428 c 0,60,61
 -204 428 -204 428 -206 431 c 2,62,-1
 -206 435 l 2,63,64
 -206 438 -206 438 -210 438 c 0,65,66
 -212 438 -212 438 -213.5 439 c 128,-1,67
 -215 440 -215 440 -214.5 440.5 c 128,-1,68
 -214 441 -214 441 -212 441 c 256,69,70
 -210 441 -210 441 -203.5 438.5 c 128,-1,71
 -197 436 -197 436 -193 435.5 c 128,-1,72
 -189 435 -189 435 -184 438 c 0,73,74
 -181 441 -181 441 -170 441 c 0,75,76
 -152 442 -152 442 -142 443.5 c 128,-1,77
 -132 445 -132 445 -123 446 c 128,-1,78
 -114 447 -114 447 -91 447 c 0,79,80
 -50 447 -50 447 -49 448 c 0,81,82
 -39 453 -39 453 4 453 c 0,0,1
EndSplineSet
EndChar

StartChar: w
Encoding: 87 87 43
AltUni2: 000077.ffffffff.0 000077.ffffffff.0
Width: 701
GlyphClass: 1
Flags: W
AnchorPoint: "final" 301 132 basechar 0
AnchorPoint: "vowel" 463 592 basechar 0
LayerCount: 2
Fore
SplineSet
594 521 m 0,0,1
 594 525 594 525 593.5 533.5 c 128,-1,2
 593 542 593 542 593 559 c 0,3,4
 594 596 594 596 598 601 c 0,5,6
 599 602 599 602 599.5 606 c 128,-1,7
 600 610 600 610 599 612 c 0,8,9
 597 616 597 616 603 633 c 0,10,11
 606 641 606 641 603.5 643 c 128,-1,12
 601 645 601 645 591 645 c 0,13,14
 580 645 580 645 572 649 c 0,15,16
 561 653 561 653 543 655 c 0,17,18
 531 657 531 657 520 657 c 0,19,20
 510 657 510 657 500 655 c 0,21,22
 462 650 462 650 454 650 c 0,23,24
 444 650 444 650 438 652 c 0,25,26
 426 654 426 654 421 654 c 0,27,28
 418 654 418 654 411 653.5 c 128,-1,29
 404 653 404 653 400 653 c 0,30,31
 392 653 392 653 387 654 c 0,32,33
 377 656 377 656 373 654.5 c 128,-1,34
 369 653 369 653 368 646 c 0,35,36
 367 644 367 644 364 640 c 128,-1,37
 361 636 361 636 362 633 c 0,38,39
 364 630 364 630 350 611 c 0,40,41
 343 602 343 602 343 599 c 2,42,-1
 335 588 l 2,43,44
 324 571 324 571 304 551 c 0,45,46
 290 537 290 537 285 536 c 0,47,48
 280 534 280 534 269.5 526.5 c 128,-1,49
 259 519 259 519 256 517 c 0,50,51
 220 496 220 496 215 496 c 0,52,53
 211 496 211 496 211 495 c 0,54,55
 208 492 208 492 178 478 c 0,56,57
 175 477 175 477 171.5 474 c 128,-1,58
 168 471 168 471 165 471 c 128,-1,59
 162 471 162 471 156 468 c 128,-1,60
 150 465 150 465 79 440 c 0,61,62
 37 426 37 426 27 426 c 0,63,64
 22 426 22 426 20 429 c 0,65,66
 20 431 20 431 16 431 c 0,67,68
 15 431 15 431 15 435 c 0,69,70
 15 441 15 441 14 441 c 128,-1,71
 13 441 13 441 13 458 c 0,72,73
 13 474 13 474 16 474 c 0,74,75
 17 474 17 474 19 476 c 2,76,-1
 23 479 l 2,77,78
 29 484 29 484 46.5 488.5 c 128,-1,79
 64 493 64 493 68 495 c 0,80,81
 73 497 73 497 97.5 505.5 c 128,-1,82
 122 514 122 514 125 515 c 0,83,84
 133 518 133 518 143 525 c 128,-1,85
 153 532 153 532 160 535 c 0,86,87
 170 539 170 539 174 543 c 2,88,-1
 204 560 l 2,89,90
 258 589 258 589 272 606 c 0,91,92
 281 616 281 616 292.5 633.5 c 128,-1,93
 304 651 304 651 304 653 c 2,94,-1
 307 659 l 2,95,96
 314 668 314 668 314 679 c 0,97,98
 314 681 314 681 317 684 c 0,99,100
 319 685 319 685 321 691 c 0,101,102
 321 695 321 695 323 697 c 0,103,104
 324 698 324 698 326 710 c 0,105,106
 329 728 329 728 331 735 c 0,107,108
 332 737 332 737 333 740 c 128,-1,109
 334 743 334 743 334.5 745 c 128,-1,110
 335 747 335 747 336 749 c 2,111,-1
 336 751 l 2,112,113
 336 754 336 754 341 759 c 0,114,115
 343 761 343 761 347 768 c 128,-1,116
 351 775 351 775 355.5 779.5 c 128,-1,117
 360 784 360 784 366 784 c 0,118,119
 375 784 375 784 375 778 c 2,120,-1
 375 773 l 2,121,122
 375 769 375 769 379 769 c 128,-1,123
 383 769 383 769 383 766 c 0,124,125
 383 762 383 762 388 763 c 0,126,127
 394 764 394 764 395 760.5 c 128,-1,128
 396 757 396 757 394 750 c 128,-1,129
 392 743 392 743 392 741 c 0,130,131
 392 736 392 736 391 736 c 0,132,133
 389 734 389 734 387 724.5 c 128,-1,134
 385 715 385 715 386 711 c 128,-1,135
 387 707 387 707 395 705.5 c 128,-1,136
 403 704 403 704 408 706 c 0,137,138
 420 709 420 709 452 709 c 2,139,-1
 497 709 l 2,140,141
 504 709 504 709 506 711 c 0,142,143
 511 715 511 715 524 715 c 0,144,145
 530 715 530 715 563 709 c 0,146,147
 569 708 569 708 579 706.5 c 128,-1,148
 589 705 589 705 591 705 c 0,149,150
 601 703 601 703 602 702 c 0,151,152
 602 700 602 700 618 700 c 0,153,154
 632 700 632 700 650 698 c 2,155,-1
 668 696 l 1,156,157
 673 684 673 684 677 680 c 128,-1,158
 681 676 681 676 677 672 c 0,159,160
 676 671 676 671 680 664 c 128,-1,161
 684 657 684 657 677 653 c 128,-1,162
 670 649 670 649 671 643 c 0,163,164
 671 631 671 631 662 598 c 0,165,166
 662 590 662 590 660 586 c 0,167,168
 657 576 657 576 657 534 c 0,169,170
 657 514 657 514 653 505 c 0,171,172
 650 499 650 499 650 496 c 128,-1,173
 650 493 650 493 647.5 486 c 128,-1,174
 645 479 645 479 644 476 c 0,175,176
 642 465 642 465 640 462 c 0,177,178
 630 442 630 442 625 423 c 0,179,180
 623 411 623 411 616 401 c 0,181,182
 603 383 603 383 597 364 c 0,183,184
 597 360 597 360 592.5 355 c 128,-1,185
 588 350 588 350 587 347 c 0,186,187
 585 343 585 343 577 335 c 0,188,189
 574 332 574 332 560 315.5 c 128,-1,190
 546 299 546 299 544 297 c 2,191,-1
 542 294 l 2,192,193
 542 292 542 292 531 281 c 0,194,195
 518 268 518 268 489 245 c 128,-1,196
 460 222 460 222 456 222 c 0,197,198
 455 222 455 222 450 218 c 2,199,-1
 444 215 l 2,200,201
 442 215 442 215 442 214 c 0,202,203
 442 212 442 212 439 212 c 128,-1,204
 436 212 436 212 431 209 c 0,205,206
 429 208 429 208 411 199 c 128,-1,207
 393 190 393 190 391 188 c 128,-1,208
 389 186 389 186 388 186 c 0,209,210
 386 186 386 186 374 180 c 0,211,212
 354 170 354 170 314 160 c 0,213,214
 302 158 302 158 290 158 c 0,215,216
 281 158 281 158 280 159 c 0,217,218
 278 161 278 161 274.5 169 c 128,-1,219
 271 177 271 177 275 182 c 0,220,221
 277 184 277 184 275.5 186.5 c 128,-1,222
 274 189 274 189 270.5 192 c 128,-1,223
 267 195 267 195 267 196 c 0,224,225
 267 200 267 200 265 202 c 0,226,227
 264 205 264 205 268.5 208 c 128,-1,228
 273 211 273 211 278 211 c 0,229,230
 281 211 281 211 291 215 c 0,231,232
 296 218 296 218 309 220.5 c 128,-1,233
 322 223 322 223 325 224 c 0,234,235
 341 231 341 231 348 233 c 0,236,237
 354 234 354 234 376.5 245 c 128,-1,238
 399 256 399 256 401 258 c 0,239,240
 401 260 401 260 405 260 c 128,-1,241
 409 260 409 260 418 265.5 c 128,-1,242
 427 271 427 271 429 274 c 0,243,244
 429 276 429 276 432 276 c 0,245,246
 436 276 436 276 457 293 c 128,-1,247
 478 310 478 310 487 319 c 0,248,249
 489 321 489 321 503 337 c 128,-1,250
 517 353 517 353 522 358 c 0,251,252
 536 374 536 374 536 381 c 0,253,254
 536 389 536 389 546.5 401.5 c 128,-1,255
 557 414 557 414 558 415 c 0,256,257
 558 416 558 416 560.5 419.5 c 128,-1,258
 563 423 563 423 563.5 425 c 128,-1,259
 564 427 564 427 563 430 c 0,260,261
 560 432 560 432 561.5 436 c 128,-1,262
 563 440 563 440 566 444 c 2,263,-1
 568 449 l 2,264,265
 568 451 568 451 570.5 457.5 c 128,-1,266
 573 464 573 464 573 467 c 128,-1,267
 573 470 573 470 575.5 478 c 128,-1,268
 578 486 578 486 578 489 c 0,269,270
 578 504 578 504 588 514 c 0,271,272
 594 520 594 520 594 521 c 0,0,1
15 481 m 128,-1,274
 15 483 15 483 17 483 c 0,275,276
 20 483 20 483 20 480 c 0,277,278
 20 479 20 479 18 479 c 0,279,273
 15 479 15 479 15 481 c 128,-1,274
261 185 m 0,280,281
 262 189 262 189 266 186 c 0,282,283
 269 182 269 182 264 180 c 0,284,285
 259 180 259 180 261 185 c 0,280,281
EndSplineSet
EndChar

StartChar: z
Encoding: 90 90 44
AltUni2: 00007a.ffffffff.0 00007a.ffffffff.0
Width: 748
GlyphClass: 1
Flags: W
AnchorPoint: "final" 327 44 basechar 0
AnchorPoint: "vowel" 352.85 640.859 basechar 0
LayerCount: 2
Fore
SplineSet
590.026367188 179.399414062 m 2,0,1
 591.630859375 181.6796875 591.630859375 181.6796875 591.630859375 183.959960938 c 0,2,3
 591.630859375 185.099609375 591.630859375 185.099609375 590.026367188 180.540039062 c 0,4,5
 588.422851562 177.120117188 588.422851562 177.120117188 588.422851562 177.120117188 c 1,6,-1
 590.026367188 179.399414062 l 2,0,1
140.961914062 744.83984375 m 0,7,8
 140.849609375 745.859375 140.849609375 745.859375 143.368164062 748.259765625 c 256,9,10
 145.849609375 750.859375 145.849609375 750.859375 144.97265625 751.6796875 c 0,11,12
 144.849609375 758.859375 144.849609375 758.859375 148.1796875 758.51953125 c 0,13,14
 150.849609375 757.859375 150.849609375 757.859375 150.5859375 755.099609375 c 0,15,16
 150.849609375 751.859375 150.849609375 751.859375 148.981445312 751.6796875 c 0,17,18
 145.849609375 749.859375 145.849609375 749.859375 157 738 c 1,19,-1
 157.802734375 722.040039062 l 2,20,21
 159.849609375 688.859375 159.849609375 688.859375 159.405273438 688.979492188 c 0,22,23
 159.849609375 686.859375 159.849609375 686.859375 156.19921875 621.719726562 c 0,24,25
 151.849609375 541.859375 151.849609375 541.859375 152.188476562 460.979492188 c 0,26,27
 151.849609375 359.859375 151.849609375 359.859375 149.783203125 339 c 0,28,29
 145.849609375 299.859375 145.849609375 299.859375 145.7734375 237.540039062 c 0,30,31
 146.015625 200.416992188 146.015625 200.416992188 146.174804688 198.209960938 c 0,32,33
 146.575195312 195.03515625 146.575195312 195.03515625 146.575195312 161.16015625 c 2,34,-1
 146.575195312 124.6796875 l 1,35,-1
 155.396484375 124.6796875 l 2,36,37
 161.969726562 124.862304688 161.969726562 124.862304688 162.61328125 124.6796875 c 2,38,-1
 166.623046875 123.540039062 l 1,39,40
 209.849609375 126.859375 209.849609375 126.859375 233.180664062 130.379882812 c 0,41,42
 236.849609375 130.859375 236.849609375 130.859375 244.407226562 130.950195312 c 0,43,44
 252.849609375 131.859375 252.849609375 131.859375 254.83203125 131.51953125 c 0,45,46
 257.849609375 131.859375 257.849609375 131.859375 262.850585938 131.51953125 c 2,47,-1
 267.663085938 132.66015625 l 1,48,-1
 285.3046875 132.66015625 l 2,49,50
 325.849609375 132.859375 325.849609375 132.859375 335.022460938 128.099609375 c 0,51,52
 344.849609375 123.859375 344.849609375 123.859375 395.966796875 125.819335938 c 0,53,54
 484.849609375 129.859375 484.849609375 129.859375 513.043945312 128.099609375 c 0,55,56
 517.849609375 127.859375 517.849609375 127.859375 525.875 128.669921875 c 0,57,58
 533.849609375 128.859375 533.849609375 128.859375 534.6953125 129.240234375 c 0,59,60
 538.849609375 128.859375 538.849609375 128.859375 544.71875 127.529296875 c 0,61,62
 550.849609375 125.859375 550.849609375 125.859375 556.748046875 122.969726562 c 0,63,64
 562.849609375 119.859375 562.849609375 119.859375 565.166992188 118.979492188 c 1,65,66
 566.849609375 134.859375 566.849609375 134.859375 566.771484375 146.33984375 c 0,67,68
 566.849609375 147.859375 566.849609375 147.859375 567.573242188 153.1796875 c 0,69,70
 567.849609375 158.859375 567.849609375 158.859375 568.375 161.16015625 c 0,71,72
 568.849609375 163.859375 568.849609375 163.859375 570.780273438 201.629882812 c 0,73,74
 572.849609375 239.859375 572.849609375 239.859375 573.98828125 243.240234375 c 0,75,76
 574.849609375 248.859375 574.849609375 248.859375 573.186523438 255.779296875 c 0,77,78
 571.849609375 262.859375 571.849609375 262.859375 572.384765625 277.439453125 c 0,79,80
 575.849609375 314.859375 575.849609375 314.859375 574.790039062 374.33984375 c 0,81,82
 573.849609375 420.859375 573.849609375 420.859375 573.186523438 424.5 c 0,83,84
 572.849609375 425.859375 572.849609375 425.859375 573.586914062 438.1796875 c 0,85,86
 573.849609375 450.859375 573.849609375 450.859375 573.186523438 450.719726562 c 0,87,88
 572.849609375 451.859375 572.849609375 451.859375 573.186523438 461.549804688 c 0,89,90
 573.849609375 470.859375 573.849609375 470.859375 573.186523438 473.51953125 c 2,91,-1
 573.186523438 486.059570312 l 2,92,93
 572.849609375 535.859375 572.849609375 535.859375 573.98828125 541.919921875 c 0,94,95
 574.849609375 549.859375 574.849609375 549.859375 574.790039062 597.779296875 c 0,96,97
 574.849609375 638.859375 574.849609375 638.859375 577.196289062 642.240234375 c 0,98,99
 578.849609375 645.859375 578.849609375 645.859375 578.399414062 647.939453125 c 128,-1,100
 577.849609375 649.859375 577.849609375 649.859375 577.196289062 655.919921875 c 0,101,102
 576.849609375 661.859375 576.849609375 661.859375 576.393554688 666.1796875 c 0,103,104
 576.849609375 672.859375 576.849609375 672.859375 577.196289062 688.979492188 c 0,105,106
 576.849609375 698.859375 576.849609375 698.859375 578.799804688 699.240234375 c 0,107,108
 581.849609375 698.859375 581.849609375 698.859375 582.809570312 701.51953125 c 0,109,110
 583.849609375 703.859375 583.849609375 703.859375 583.611328125 710.639648438 c 256,111,112
 583.849609375 717.859375 583.849609375 717.859375 586.41796875 722.040039062 c 0,113,114
 588.849609375 726.859375 588.849609375 726.859375 589.224609375 730.01953125 c 0,115,116
 588.849609375 738.859375 588.849609375 738.859375 590.828125 739.139648438 c 0,117,118
 592.849609375 739.859375 592.849609375 739.859375 594.036132812 739.139648438 c 256,119,120
 595.849609375 737.859375 595.849609375 737.859375 596.041015625 738.569335938 c 0,121,122
 596.849609375 738.859375 596.849609375 738.859375 596.44140625 742.559570312 c 0,123,124
 596.849609375 747.859375 596.849609375 747.859375 598.84765625 748.259765625 c 0,125,126
 601.849609375 749.859375 601.849609375 749.859375 599.649414062 743.700195312 c 0,127,128
 597.049804688 734.52734375 597.049804688 734.52734375 600.451171875 735.719726562 c 0,129,130
 600.849609375 735.859375 600.849609375 735.859375 603.658203125 743.700195312 c 0,131,132
 604.849609375 746.859375 604.849609375 746.859375 605.262695312 748.259765625 c 1,133,134
 606.866210938 745.979492188 606.866210938 745.979492188 606.866210938 745.979492188 c 1,135,136
 606.849609375 739.859375 606.849609375 739.859375 609.271484375 739.139648438 c 0,137,138
 609.849609375 738.859375 609.849609375 738.859375 610.875976562 740.279296875 c 0,139,140
 612.849609375 742.859375 612.849609375 742.859375 614.884765625 739.139648438 c 0,141,142
 616.849609375 735.859375 616.849609375 735.859375 618.092773438 735.719726562 c 0,143,144
 619.849609375 735.859375 619.849609375 735.859375 619.696289062 730.01953125 c 0,145,146
 619.849609375 725.859375 619.849609375 725.859375 621.30078125 718.620117188 c 0,147,148
 621.849609375 715.859375 621.849609375 715.859375 622.102539062 701.51953125 c 0,149,150
 621.849609375 688.859375 621.849609375 688.859375 620.899414062 650.790039062 c 128,-1,151
 619.849609375 612.859375 619.849609375 612.859375 619.696289062 598.919921875 c 0,152,153
 619.849609375 588.859375 619.849609375 588.859375 619.295898438 577.259765625 c 0,154,155
 618.895507812 569.723632812 618.895507812 569.723632812 618.895507812 557.879882812 c 2,156,-1
 618.895507812 551.040039062 l 2,157,158
 612.849609375 532.859375 612.849609375 532.859375 616.489257812 365.219726562 c 0,159,160
 616.849609375 348.859375 616.849609375 348.859375 616.088867188 331.01953125 c 0,161,162
 615.849609375 312.859375 615.849609375 312.859375 615.6875 300.809570312 c 0,163,164
 615.849609375 288.859375 615.849609375 288.859375 615.6875 286.559570312 c 0,165,166
 615.849609375 281.859375 615.849609375 281.859375 614.083984375 250.080078125 c 0,167,168
 612.84375 216.709960938 612.84375 216.709960938 612.479492188 213.599609375 c 2,169,-1
 611.677734375 206.759765625 l 2,170,171
 610.849609375 199.859375 610.849609375 199.859375 610.875976562 193.080078125 c 0,172,173
 610.849609375 177.859375 610.849609375 177.859375 609.271484375 169.139648438 c 0,174,175
 600.849609375 102.859375 600.849609375 102.859375 606.064453125 98.4599609375 c 0,176,177
 608.849609375 95.859375 608.849609375 95.859375 609.262695312 100.240234375 c 0,178,179
 609.262695312 102.65625 609.262695312 102.65625 607.658203125 88.83984375 c 0,180,181
 606.849609375 80.859375 606.849609375 80.859375 605.252929688 76.2998046875 c 0,182,183
 604.849609375 74.859375 604.849609375 74.859375 603.649414062 72.8798828125 c 0,184,185
 602.849609375 71.859375 602.849609375 71.859375 602.84765625 70.599609375 c 0,186,187
 601.849609375 66.859375 601.849609375 66.859375 600.842773438 68.3193359375 c 0,188,189
 597.849609375 71.859375 597.849609375 71.859375 597.233398438 70.599609375 c 0,190,191
 595.849609375 68.859375 595.849609375 68.859375 593.224609375 67.1796875 c 0,192,193
 589.849609375 63.859375 589.849609375 63.859375 589.21484375 69.4599609375 c 0,194,195
 588.849609375 72.859375 588.849609375 72.859375 582.799804688 69.4599609375 c 0,196,197
 578.849609375 66.859375 578.849609375 66.859375 573.176757812 76.2998046875 c 0,198,199
 567.849609375 85.859375 567.849609375 85.859375 569.166992188 91.1201171875 c 0,200,201
 569.849609375 93.859375 569.849609375 93.859375 569.969726562 97.9599609375 c 0,202,203
 569.849609375 102.859375 569.849609375 102.859375 568.366210938 102.51953125 c 0,204,205
 565.849609375 102.859375 565.849609375 102.859375 563.5546875 97.9599609375 c 0,206,207
 561.849609375 93.859375 561.849609375 93.859375 555.53515625 90.5498046875 c 0,208,209
 548.849609375 87.859375 548.849609375 87.859375 547.515625 86.5595703125 c 0,210,211
 543.849609375 83.859375 543.849609375 83.859375 489.780273438 83.1396484375 c 0,212,213
 477.849609375 82.859375 477.849609375 82.859375 434.849609375 80.859375 c 128,-1,214
 391.849609375 78.859375 391.849609375 78.859375 374.305664062 78.580078125 c 0,215,216
 357.849609375 78.859375 357.849609375 78.859375 331.805664062 83.1396484375 c 0,217,218
 305.849609375 87.859375 305.849609375 87.859375 286.8984375 88.83984375 c 0,219,220
 280.849609375 88.859375 280.849609375 88.859375 269.2578125 89.41015625 c 128,-1,221
 257.849609375 89.859375 257.849609375 89.859375 253.21875 89.9794921875 c 0,222,223
 228.849609375 89.859375 228.849609375 89.859375 207.510742188 86.5595703125 c 0,224,225
 187.849609375 83.859375 187.849609375 83.859375 165.8125 84.279296875 c 0,226,227
 149.849609375 83.859375 149.849609375 83.859375 147.368164062 85.419921875 c 0,228,229
 143.849609375 86.859375 143.849609375 86.859375 137.745117188 86.5595703125 c 0,230,231
 134.849609375 86.859375 134.849609375 86.859375 129.325195312 89.41015625 c 128,-1,232
 123.849609375 91.859375 123.849609375 91.859375 124.11328125 94.5400390625 c 0,233,234
 123.849609375 96.859375 123.849609375 96.859375 120.905273438 99.099609375 c 0,235,236
 104.849609375 108.859375 104.849609375 108.859375 104.876953125 142.919921875 c 0,237,238
 104.849609375 151.859375 104.849609375 151.859375 104.4765625 173.700195312 c 0,239,240
 103.849609375 194.859375 103.849609375 194.859375 104.075195312 206.759765625 c 0,241,242
 103.849609375 257.859375 103.849609375 257.859375 105.678710938 276.299804688 c 0,243,244
 107.849609375 300.859375 107.849609375 300.859375 107.283203125 304.799804688 c 0,245,246
 106.849609375 313.859375 106.849609375 313.859375 108.485351562 321.330078125 c 0,247,248
 109.849609375 328.859375 109.849609375 328.859375 109.688476562 340.139648438 c 0,249,250
 109.849609375 353.859375 109.849609375 353.859375 108.083984375 362.370117188 c 0,251,252
 105.849609375 375.859375 105.849609375 375.859375 106.48046875 376.620117188 c 0,253,254
 106.849609375 377.859375 106.849609375 377.859375 106.881835938 381.75 c 0,255,256
 106.849609375 385.859375 106.849609375 385.859375 107.283203125 388.01953125 c 0,257,258
 107.849609375 405.859375 107.849609375 405.859375 108.083984375 407.399414062 c 2,259,-1
 108.083984375 411.959960938 l 2,260,261
 107.849609375 417.859375 107.849609375 417.859375 107.68359375 426.779296875 c 0,262,263
 106.849609375 435.859375 106.849609375 435.859375 107.283203125 446.16015625 c 0,264,265
 106.849609375 456.859375 106.849609375 456.859375 107.283203125 470.669921875 c 0,266,267
 106.849609375 484.859375 106.849609375 484.859375 107.283203125 497.459960938 c 0,268,269
 106.849609375 514.859375 106.849609375 514.859375 106.881835938 535.080078125 c 0,270,271
 106.849609375 555.859375 106.849609375 555.859375 106.48046875 560.16015625 c 0,272,273
 106.849609375 582.859375 106.849609375 582.859375 108.083984375 587.51953125 c 0,274,275
 110.849609375 594.859375 110.849609375 594.859375 110.490234375 608.040039062 c 0,276,277
 112.849609375 671.859375 112.849609375 671.859375 113.697265625 682.709960938 c 0,278,279
 114.849609375 693.859375 114.849609375 693.859375 118.508789062 695.819335938 c 0,280,281
 119.849609375 696.859375 119.849609375 696.859375 121.716796875 706.649414062 c 0,282,283
 122.849609375 715.859375 122.849609375 715.859375 124.122070312 717.479492188 c 0,284,285
 126.849609375 723.859375 126.849609375 723.859375 126.528320312 725.459960938 c 0,286,287
 126.849609375 731.859375 126.849609375 731.859375 131.33984375 733.439453125 c 0,288,289
 132.849609375 733.859375 132.849609375 733.859375 136.953125 738 c 0,290,291
 140.849609375 742.859375 140.849609375 742.859375 140.961914062 744.83984375 c 0,7,8
131.33984375 751.6796875 m 2,292,293
 133.745117188 755.099609375 133.745117188 755.099609375 135.348632812 750.540039062 c 0,294,295
 135.348632812 747.120117188 135.348632812 747.120117188 133.745117188 747.120117188 c 128,-1,296
 132.140625 747.120117188 132.140625 747.120117188 132.140625 744.83984375 c 0,297,298
 132.140625 741.419921875 132.140625 741.419921875 131.33984375 741.419921875 c 2,299,-1
 130.538085938 748.259765625 l 1,300,-1
 131.33984375 751.6796875 l 2,292,293
121.716796875 741.419921875 m 0,301,302
 121.716796875 744.83984375 121.716796875 744.83984375 122.518554688 745.979492188 c 0,303,304
 124.122070312 747.120117188 124.122070312 747.120117188 124.924804688 743.700195312 c 2,305,-1
 125.7265625 741.419921875 l 2,306,307
 126.528320312 736.859375 126.528320312 736.859375 124.924804688 735.719726562 c 0,308,309
 122.518554688 736.859375 122.518554688 736.859375 121.716796875 741.419921875 c 0,301,302
EndSplineSet
Validated: 37
EndChar

StartChar: uni02c4
Encoding: 708 708 46
Width: 531
GlyphClass: 1
Flags: W
LayerCount: 2
Fore
SplineSet
224 788 m 0,0,1
 225 788 225 788 228 790.5 c 128,-1,2
 231 793 231 793 234.5 796 c 128,-1,3
 238 799 238 799 239 800 c 2,4,-1
 358 800 l 1,5,6
 360 794 360 794 368 782 c 128,-1,7
 376 770 376 770 377 768 c 0,8,9
 381 761 381 761 393 750 c 128,-1,10
 405 739 405 739 414 734 c 0,11,12
 416 733 416 733 433 728 c 0,13,14
 476 717 476 717 477 714 c 2,15,-1
 477 703 l 2,16,17
 476 692 476 692 474 691 c 0,18,19
 471 690 471 690 471 686 c 0,20,21
 472 683 472 683 468 676.5 c 128,-1,22
 464 670 464 670 461 669 c 0,23,24
 458 669 458 669 452.5 666 c 128,-1,25
 447 663 447 663 439 664 c 0,26,27
 399 666 399 666 364 685 c 0,28,29
 362 686 362 686 358 689 c 128,-1,30
 354 692 354 692 353 692 c 0,31,32
 348 694 348 694 337 708 c 0,33,34
 329 719 329 719 311 746 c 0,35,36
 299 764 299 764 296 764 c 0,37,38
 295 764 295 764 293 762 c 0,39,40
 290 760 290 760 289 759 c 0,41,42
 271 744 271 744 256 737 c 0,43,44
 249 732 249 732 247 732 c 128,-1,45
 245 732 245 732 245 730 c 0,46,47
 242 725 242 725 208 711 c 2,48,-1
 188 703 l 2,49,50
 183 701 183 701 175 697 c 0,51,52
 169 693 169 693 164 693 c 0,53,54
 162 693 162 693 158 691 c 128,-1,55
 154 689 154 689 153 689 c 128,-1,56
 152 689 152 689 142 685 c 0,57,58
 110 671 110 671 83 671 c 0,59,60
 81 671 81 671 78.5 671 c 128,-1,61
 76 671 76 671 74.5 670.5 c 128,-1,62
 73 670 73 670 72 670 c 2,63,-1
 70 670 l 2,64,65
 68 670 68 670 62 673 c 2,66,-1
 57 676 l 2,67,68
 56 676 56 676 55 685 c 0,69,70
 55 686 55 686 54 689 c 2,71,-1
 54 692 l 2,72,73
 54 695 54 695 56 695 c 0,74,75
 62 696 62 696 59 701.5 c 128,-1,76
 56 707 56 707 63 708 c 2,77,-1
 68 709 l 1,78,-1
 68 718 l 2,79,80
 68 727 68 727 70 727 c 2,81,-1
 72 728 l 2,82,83
 74 729 74 729 77 730 c 128,-1,84
 80 731 80 731 82 731 c 0,85,86
 84 732 84 732 101 735 c 0,87,88
 117 739 117 739 131 743.5 c 128,-1,89
 145 748 145 748 152 750 c 2,90,-1
 160 754 l 2,91,92
 163 757 163 757 165 757 c 128,-1,93
 167 757 167 757 176 761.5 c 128,-1,94
 185 766 185 766 195.5 772 c 128,-1,95
 206 778 206 778 209 779 c 0,96,97
 221 785 221 785 224 788 c 0,0,1
EndSplineSet
Validated: 1
EndChar

StartChar: ai
Encoding: 65538 -1 48
Width: 16
Flags: W
AnchorPoint: "final" 10 38 basechar 0
AnchorPoint: "diphthong" 10 432 mark 0
AnchorPoint: "vowel" 7 424 mark 0
LayerCount: 2
Fore
SplineSet
10 473.139648438 m 0,0,1
 8.58984375 473.139648438 8.58984375 473.139648438 7.1796875 472.91015625 c 128,-1,2
 5.76953125 472.6796875 5.76953125 472.6796875 5.41796875 472.565429688 c 0,3,4
 4.3603515625 473.139648438 4.3603515625 473.139648438 2.48046875 472.6796875 c 0,5,6
 -3.6298828125 470.379882812 -3.6298828125 470.379882812 -15.615234375 460.030273438 c 128,-1,7
 -27.599609375 449.6796875 -27.599609375 449.6796875 -29.009765625 445.540039062 c 1,8,-1
 -30.419921875 444.16015625 l 2,9,10
 -32.76953125 441.860351562 -32.76953125 441.860351562 -36.5302734375 430.360351562 c 0,11,12
 -37.4697265625 427.599609375 -37.4697265625 427.599609375 -37.4697265625 420.700195312 c 0,13,14
 -37.4697265625 404.139648438 -37.4697265625 404.139648438 -33.240234375 391.719726562 c 0,15,16
 -30.8896484375 385.280273438 -30.8896484375 385.280273438 -27.599609375 384.8203125 c 0,17,18
 -25.7197265625 384.8203125 -25.7197265625 384.8203125 -21.490234375 380.6796875 c 1,19,-1
 -12.5595703125 380.219726562 l 1,20,-1
 -4.099609375 380.219726562 l 2,21,22
 -1.2802734375 379.759765625 -1.2802734375 379.759765625 2.009765625 379.759765625 c 2,23,-1
 4.3603515625 379.759765625 l 2,24,25
 11.8798828125 379.759765625 11.8798828125 379.759765625 23.16015625 385.280273438 c 0,26,27
 29.740234375 388.5 29.740234375 388.5 30.2099609375 388.5 c 0,28,29
 31.150390625 388.5 31.150390625 388.5 35.14453125 391.030273438 c 128,-1,30
 39.1396484375 393.559570312 39.1396484375 393.559570312 40.080078125 394.01953125 c 0,31,32
 55.1201171875 401.379882812 55.1201171875 401.379882812 57.4697265625 418.860351562 c 0,33,34
 57.9404296875 422.080078125 57.9404296875 422.080078125 57.9404296875 428.059570312 c 0,35,36
 57.9404296875 440.01953125 57.9404296875 440.01953125 56.0595703125 445.540039062 c 0,37,38
 55.58984375 446.919921875 55.58984375 446.919921875 54.4150390625 448.759765625 c 128,-1,39
 53.240234375 450.599609375 53.240234375 450.599609375 53.240234375 451.059570312 c 0,40,41
 52.2998046875 451.059570312 52.2998046875 451.059570312 49.556640625 454.583984375 c 0,42,43
 45.25 459.799804688 45.25 459.799804688 45.25 459.799804688 c 0,44,45
 40.080078125 465.3203125 40.080078125 465.3203125 33.9697265625 470.83984375 c 0,46,47
 33.3271484375 470.995117188 33.3271484375 470.995117188 27.3896484375 469.459960938 c 0,48,49
 20.33984375 471.759765625 20.33984375 471.759765625 20.33984375 471.759765625 c 0,50,51
 15.6396484375 472.6796875 15.6396484375 472.6796875 10 473.139648438 c 0,0,1
-14.91015625 488.780273438 m 0,52,53
 -14.4404296875 488.780273438 -14.4404296875 488.780273438 -10.4453125 490.389648438 c 128,-1,54
 -6.4501953125 492 -6.4501953125 492 -5.509765625 492 c 128,-1,55
 -4.5703125 492 -4.5703125 492 -0.5751953125 494.299804688 c 128,-1,56
 3.419921875 496.599609375 3.419921875 496.599609375 4.3603515625 496.599609375 c 0,57,58
 5.76953125 497.059570312 5.76953125 497.059570312 8.58984375 497.059570312 c 0,59,60
 15.6396484375 497.059570312 15.6396484375 497.059570312 19.400390625 495.219726562 c 0,61,62
 25.509765625 492 25.509765625 492 39.1396484375 492 c 0,63,64
 46.1904296875 492 46.1904296875 492 50.8896484375 489.700195312 c 128,-1,65
 55.58984375 487.400390625 55.58984375 487.400390625 56.5302734375 487.400390625 c 0,66,67
 57 487.400390625 57 487.400390625 58.64453125 485.790039062 c 128,-1,68
 60.2900390625 484.1796875 60.2900390625 484.1796875 60.759765625 484.1796875 c 128,-1,69
 61.23046875 484.1796875 61.23046875 484.1796875 64.990234375 480.959960938 c 2,70,-1
 68.2802734375 478.200195312 l 2,71,72
 69.2197265625 477.740234375 69.2197265625 477.740234375 73.21484375 472.219726562 c 128,-1,73
 77.2099609375 466.700195312 77.2099609375 466.700195312 78.6201171875 463.48046875 c 0,74,75
 80.0302734375 461.1796875 80.0302734375 461.1796875 85.2001953125 441.860351562 c 0,76,77
 86.1396484375 438.1796875 86.1396484375 438.1796875 86.1396484375 428.059570312 c 128,-1,78
 86.1396484375 417.940429688 86.1396484375 417.940429688 85.2001953125 414.259765625 c 0,79,80
 85.2001953125 413.33984375 85.2001953125 413.33984375 84.73046875 411.73046875 c 128,-1,81
 84.259765625 410.120117188 84.259765625 410.120117188 84.025390625 408.969726562 c 128,-1,82
 83.7900390625 407.8203125 83.7900390625 407.8203125 83.7900390625 407.360351562 c 0,83,84
 83.7900390625 401.83984375 83.7900390625 401.83984375 77.2099609375 388.73046875 c 128,-1,85
 70.6298828125 375.620117188 70.6298828125 375.620117188 66.400390625 373.780273438 c 0,86,87
 64.51953125 372.860351562 64.51953125 372.860351562 61.7001953125 370.099609375 c 128,-1,88
 58.8798828125 367.33984375 58.8798828125 367.33984375 32.5595703125 355.379882812 c 0,89,90
 25.0400390625 351.700195312 25.0400390625 351.700195312 14.7001953125 349.400390625 c 0,91,92
 9.0595703125 348.01953125 9.0595703125 348.01953125 -5.509765625 348.01953125 c 0,93,94
 -13.9697265625 348.01953125 -13.9697265625 348.01953125 -16.7900390625 348.48046875 c 0,95,96
 -32.76953125 350.3203125 -32.76953125 350.3203125 -41.7001953125 356.759765625 c 0,97,98
 -44.51953125 358.139648438 -44.51953125 358.139648438 -48.044921875 361.360351562 c 128,-1,99
 -51.5703125 364.580078125 -51.5703125 364.580078125 -51.5703125 365.5 c 128,-1,100
 -51.5703125 366.419921875 -51.5703125 366.419921875 -53.919921875 368.719726562 c 0,101,102
 -57.6796875 372.400390625 -57.6796875 372.400390625 -60.0302734375 386.66015625 c 0,103,104
 -60.5 390.799804688 -60.5 390.799804688 -61.4404296875 394.709960938 c 128,-1,105
 -62.3798828125 398.620117188 -62.3798828125 398.620117188 -62.849609375 401.83984375 c 0,106,107
 -62.849609375 403.219726562 -62.849609375 403.219726562 -63.0849609375 406.209960938 c 128,-1,108
 -63.3203125 409.200195312 -63.3203125 409.200195312 -63.3203125 411.040039062 c 0,109,110
 -63.3203125 434.5 -63.3203125 434.5 -54.3896484375 450.599609375 c 0,111,112
 -53.4501953125 451.98046875 -53.4501953125 451.98046875 -51.8046875 454.740234375 c 128,-1,113
 -50.16015625 457.5 -50.16015625 457.5 -49.6904296875 458.419921875 c 0,114,115
 -45.4599609375 466.700195312 -45.4599609375 466.700195312 -33.240234375 475.900390625 c 0,116,117
 -15.849609375 488.780273438 -15.849609375 488.780273438 -14.91015625 488.780273438 c 0,52,53
20.33984375 442.3203125 m 0,118,119
 23.6298828125 442.3203125 23.6298828125 442.3203125 24.3349609375 441.629882812 c 128,-1,120
 25.0400390625 440.940429688 25.0400390625 440.940429688 25.0400390625 437.259765625 c 0,121,122
 25.0400390625 436.33984375 25.0400390625 436.33984375 25.509765625 434.26953125 c 128,-1,123
 25.98046875 432.200195312 25.98046875 432.200195312 25.98046875 430.8203125 c 128,-1,124
 25.98046875 429.440429688 25.98046875 429.440429688 25.0400390625 428.51953125 c 0,125,126
 23.6298828125 427.139648438 23.6298828125 427.139648438 23.6298828125 423 c 0,127,128
 23.6298828125 418.400390625 23.6298828125 418.400390625 21.75 416.559570312 c 0,129,130
 17.990234375 412.879882812 17.990234375 412.879882812 12.349609375 412.879882812 c 0,131,132
 10.9404296875 412.879882812 10.9404296875 412.879882812 -1.75 415.639648438 c 0,133,134
 -4.5703125 416.099609375 -4.5703125 416.099609375 -4.5703125 419.3203125 c 0,135,136
 -4.5703125 421.620117188 -4.5703125 421.620117188 -6.4501953125 422.540039062 c 0,137,138
 -11.150390625 425.299804688 -11.150390625 425.299804688 -5.509765625 429.900390625 c 0,139,140
 -3.16015625 432.200195312 -3.16015625 432.200195312 -3.16015625 434.959960938 c 128,-1,141
 -3.16015625 437.719726562 -3.16015625 437.719726562 -0.33984375 439.099609375 c 128,-1,142
 2.48046875 440.48046875 2.48046875 440.48046875 3.419921875 441.400390625 c 0,143,144
 4.830078125 443.700195312 4.830078125 443.700195312 9.0595703125 445.080078125 c 128,-1,145
 13.2900390625 446.459960938 13.2900390625 446.459960938 15.6396484375 444.16015625 c 0,146,147
 17.51953125 442.3203125 17.51953125 442.3203125 20.33984375 442.3203125 c 0,118,119
EndSplineSet
LCarets2: 1 0
Ligature2: "'liga' Standard Ligatures in Latin lookup 1-1" a i
EndChar

StartChar: ao
Encoding: 65539 -1 49
Width: 270
Flags: W
AnchorPoint: "diphthong" 124 460 mark 0
AnchorPoint: "final" 118 11 basechar 0
AnchorPoint: "vowel" 128 452 mark 0
LayerCount: 2
Fore
SplineSet
44 573 m 0,0,1
 51 579 51 579 64 566 c 0,2,3
 87 543 87 543 87 540 c 2,4,-1
 88 539 l 2,5,6
 89 537 89 537 91 535.5 c 128,-1,7
 93 534 93 534 94 532 c 0,8,9
 122 503 122 503 123 500 c 0,10,11
 124 499 124 499 125.5 498.5 c 128,-1,12
 127 498 127 498 130 500 c 128,-1,13
 133 502 133 502 135 503.5 c 128,-1,14
 137 505 137 505 139 507 c 128,-1,15
 141 509 141 509 142 509 c 0,16,17
 147 512 147 512 147 513 c 0,18,19
 147 515 147 515 153 517 c 0,20,21
 157 519 157 519 162 525.5 c 128,-1,22
 167 532 167 532 170 534 c 0,23,24
 178 540 178 540 193 553.5 c 128,-1,25
 208 567 208 567 215 571 c 0,26,27
 221 575 221 575 230 575 c 128,-1,28
 239 575 239 575 239 568 c 0,29,30
 240 564 240 564 244 563 c 0,31,32
 254 560 254 560 255 549 c 2,33,-1
 255 540 l 1,34,-1
 249 531 l 2,35,36
 236 514 236 514 230 514 c 0,37,38
 228 514 228 514 225 511 c 0,39,40
 215 501 215 501 209 501 c 0,41,42
 206 501 206 501 186 481 c 128,-1,43
 166 461 166 461 166 458 c 0,44,45
 166 452 166 452 175 446 c 0,46,47
 177 444 177 444 177 443 c 0,48,49
 177 441 177 441 184 434 c 128,-1,50
 191 427 191 427 192 425 c 0,51,52
 194 422 194 422 203 413 c 0,53,54
 209 408 209 408 218 393 c 128,-1,55
 227 378 227 378 236 373 c 0,56,57
 238 372 238 372 242 369 c 0,58,59
 244 368 244 368 245.5 367 c 128,-1,60
 247 366 247 366 249 366 c 0,61,62
 250 366 250 366 256 358 c 0,63,64
 259 354 259 354 259.5 351.5 c 128,-1,65
 260 349 260 349 260 347 c 128,-1,66
 260 345 260 345 259 342 c 128,-1,67
 258 339 258 339 258 335 c 0,68,69
 258 330 258 330 255 329 c 0,70,71
 254 329 254 329 249.5 327.5 c 128,-1,72
 245 326 245 326 243 326 c 0,73,74
 231 324 231 324 226 324 c 0,75,76
 211 324 211 324 189 336 c 0,77,78
 180 339 180 339 164 366 c 0,79,80
 161 372 161 372 156 378.5 c 128,-1,81
 151 385 151 385 149 389 c 0,82,83
 145 399 145 399 129 411 c 0,84,85
 126 412 126 412 120 408.5 c 128,-1,86
 114 405 114 405 114 403 c 128,-1,87
 114 401 114 401 108 393 c 0,88,89
 102 386 102 386 89.5 368.5 c 128,-1,90
 77 351 77 351 70 344 c 0,91,92
 65 339 65 339 65 336 c 0,93,94
 65 334 65 334 56 325 c 2,95,-1
 48 316 l 1,96,-1
 35 316 l 2,97,98
 12 316 12 316 12 324 c 0,99,100
 12 327 12 327 15 330 c 0,101,102
 17 332 17 332 17 338 c 0,103,104
 17 342 17 342 15 351 c 128,-1,105
 13 360 13 360 13 362 c 0,106,107
 13 365 13 365 16.5 368.5 c 128,-1,108
 20 372 20 372 25.5 376 c 128,-1,109
 31 380 31 380 32 381 c 0,110,111
 43 392 43 392 43 396 c 0,112,113
 43 398 43 398 53 408 c 0,114,115
 54 409 54 409 58.5 415 c 128,-1,116
 63 421 63 421 67 426.5 c 128,-1,117
 71 432 71 432 72 432 c 128,-1,118
 73 432 73 432 75 435 c 128,-1,119
 77 438 77 438 79.5 441.5 c 128,-1,120
 82 445 82 445 83 446 c 0,121,122
 91 455 91 455 81 465 c 0,123,124
 79 467 79 467 53 496 c 0,125,126
 51 498 51 498 48 501 c 2,127,-1
 46 504 l 2,128,129
 45 504 45 504 45 508 c 0,130,131
 45 511 45 511 36 519 c 0,132,133
 19 533 19 533 23 542 c 0,134,135
 24 546 24 546 22.5 547 c 128,-1,136
 21 548 21 548 15 548 c 0,137,138
 11 548 11 548 11 550 c 0,139,140
 11 551 11 551 13 551 c 128,-1,141
 15 551 15 551 18 552.5 c 128,-1,142
 21 554 21 554 24 553 c 0,143,144
 26 553 26 553 28 553 c 0,145,146
 32 555 32 555 26 556 c 0,147,148
 18 558 18 558 27 566 c 0,149,150
 30 570 30 570 35 570 c 0,151,152
 41 570 41 570 44 573 c 0,0,1
EndSplineSet
LCarets2: 1 0
Ligature2: "'liga' Standard Ligatures in Latin lookup 1-1" a o
EndChar

